<svg width="184" height="26" viewBox="0 0 184 26" fill="none" xmlns="http://www.w3.org/2000/svg">
<path d="M69.4031 8.09881C69.1961 8.89546 69.9014 9.65075 70.6449 9.5653C71.971 9.2731 71.971 7.21671 70.3562 7.21671C69.8578 7.5089 69.5692 7.59436 69.4031 8.09605M176.247 8.64185C176.04 9.4385 176.745 10.2765 177.489 10.1083C179.022 9.89885 178.938 7.67705 177.282 7.67705C176.743 7.96925 176.454 8.09605 176.247 8.64185ZM162.906 14.3038C162.906 13.4245 162.825 11.4949 163.113 10.9905C163.612 10.3206 165.599 10.486 166.593 10.4033H167.255C168.581 10.4033 168.415 11.2827 168.415 12.457V15.1832C168.208 16.2748 168.415 17.3223 168.208 18.2871C168.001 19.1664 167.547 19.839 167.048 20.5089C166.675 21.0133 165.97 21.6832 165.019 21.3882C162.411 20.7184 162.906 17.405 162.906 14.3011M146.17 16.6497C145.671 19.081 145.881 22.0167 147.411 23.1497C147.7 23.3592 147.991 23.6542 148.364 23.7368C149.979 24.324 151.139 23.3592 152.011 22.6452C152.509 22.2676 153.089 21.7659 153.917 21.9754C155.159 22.2676 155.532 23.5273 156.899 23.8195C157.561 23.9022 158.141 23.61 158.639 23.4419C159.426 22.9374 159.965 22.4771 160.959 22.2676C161.539 22.1849 162.038 22.4771 162.285 22.6452C163.072 23.0229 163.734 23.61 164.687 23.8195C165.267 23.9022 165.766 23.61 166.013 23.5273C166.8 23.0229 167.34 22.4357 168.334 22.2703C168.832 22.1877 169.287 22.4798 169.575 22.5625C170.237 22.9402 170.735 23.6541 171.688 23.8195C173.303 24.1972 174.962 22.7279 175.997 22.2676C176.495 22.0581 177.075 22.0581 177.53 22.2676C177.903 22.5598 178.317 22.8547 178.69 23.1469C179.352 23.6514 180.719 24.0263 181.963 23.7341C182.336 23.6514 182.625 23.5246 182.916 23.3564C183.205 23.1469 184.076 22.6866 183.995 22.1821C183.995 22.1821 183.995 22.0994 183.913 22.0994C183.54 22.0167 182.671 22.3916 182.173 22.3916C180.558 22.6838 179.398 21.4268 178.984 20.462C178.695 19.7922 178.486 18.9955 178.322 18.1134C178.322 17.609 178.24 17.2341 178.24 16.771C178.034 15.8062 178.241 14.8414 177.372 14.6319C176.046 14.3397 176.293 16.6855 176.13 17.6503C175.841 19.5799 175.468 20.6688 173.81 21.3414C172.941 21.719 171.988 21.719 171.324 21.1319C170.164 20.1671 170.164 18.4056 170.164 16.2665V13.3308C170.164 12.5341 169.957 10.8995 170.371 10.395C170.869 9.72518 172.192 10.1028 172.979 9.80788C173.186 9.72518 173.478 9.51568 173.478 9.13803C173.271 8.04643 171.283 8.84583 170.577 8.25868C169.709 7.58884 170.866 4.73578 169.624 4.27543C169.251 4.06593 168.837 4.35814 168.671 4.56764C168.298 5.0721 168.383 6.20228 168.383 7.08438C168.383 7.46203 168.383 7.75423 168.301 8.04918C168.219 8.25868 168.012 8.42684 167.803 8.55364C167.514 8.63634 167.141 8.55363 166.642 8.63633C165.981 8.63633 165.401 8.63635 164.736 8.71904C164.363 8.71904 163.868 8.80174 163.494 8.71904C161.88 8.34139 163.783 4.35814 161.754 4.35814C161.381 4.56764 161.174 4.65034 160.967 5.02799C160.679 5.90733 161.049 7.45927 160.76 8.34138C160.387 9.22072 158.732 8.63358 158.152 9.51568C158.07 9.59838 157.945 9.80788 158.07 10.1028C158.359 11.3598 160.183 10.6073 160.679 11.3598C160.967 11.8643 160.886 13.4135 160.886 14.2956C160.886 16.8123 160.804 18.6565 159.933 20.2498C159.726 20.6274 159.559 20.9196 159.146 21.2146C158.857 21.4241 158.647 21.5922 158.277 21.8017C157.906 22.0112 157.324 22.0112 156.951 21.8844C155.418 21.2973 155.502 19.2436 155.211 17.5235C155.004 16.5587 155.418 15.0922 154.424 14.8827C153.345 14.6732 153.263 16.7269 153.097 17.609C152.724 19.5386 152.144 21.5095 150.197 21.8872C149.037 22.1794 148.375 21.2173 148.168 20.3352C148.087 19.9576 148.087 19.4559 148.087 18.9928C148.005 18.3229 148.087 17.5263 148.168 16.8537C148.25 15.9743 147.961 14.6319 147.09 14.8C146.385 14.6732 146.262 15.8475 146.178 16.6442M118.42 2.93024C118.502 3.43469 119.289 3.22242 119.662 3.13972C120.741 2.84753 122.064 2.26038 122.355 3.72688C122.437 6.24363 122.562 8.88443 122.644 11.4012C122.644 12.1978 122.644 12.9531 122.726 13.7498C122.726 14.7146 122.726 15.8034 122.807 16.7682V17.6062C123.014 18.6978 122.726 20.4152 123.594 20.8342C124.093 21.0437 124.381 20.6247 124.463 20.247C124.752 19.5772 124.752 18.6124 124.836 17.7303V16.9336C124.836 16.0543 124.836 15.1722 124.918 14.2928C124.918 12.5314 125 10.6872 125 8.92579V2.80343C125.081 2.51123 125.207 2.21628 125.498 2.13359C126.078 1.84139 128.48 1.62913 129.433 1.84139C130.22 1.92409 130.882 2.05089 131.546 2.13359C133.948 2.72074 136.061 3.89503 137.428 5.65648C138.215 6.62128 138.754 7.71013 139.25 8.96988C139.457 9.63973 139.539 10.4364 139.748 11.3185C140.037 13.1626 139.667 15.3872 139.168 16.771C137.635 20.8397 134.653 22.7252 130.054 23.69C129.392 23.8995 128.605 23.7727 127.859 23.9822H125.83C125.457 23.9822 124.961 23.9822 124.588 23.8995C124.09 23.8995 123.51 23.8168 123.055 23.8168C122.393 23.7341 121.729 23.6073 120.942 23.5246C120.569 23.4419 120.073 23.3151 119.7 23.4419V23.5246C119.907 23.9022 120.362 23.9022 120.779 24.1117C121.732 24.4894 122.807 24.6989 123.845 24.9911C129.313 26.2481 135.28 24.4866 138.553 22.2648C140.873 20.6302 142.488 18.5738 143.359 15.3458C143.566 14.5492 143.858 13.124 143.648 12.1179V11.448C143.566 10.7782 143.566 10.1056 143.359 9.51844C143.071 8.34414 142.698 7.16985 142.117 6.2905C139.756 2.2218 135.615 0 129.357 0C129.068 0 128.777 -3.36824e-06 128.404 0.0826938C127.823 0.165391 127.243 0.292196 126.663 0.292196C124.635 0.669847 122.521 0.962045 120.781 1.7587C120.201 1.96819 119.54 2.13634 119.041 2.42854C118.586 2.42854 118.295 2.63803 118.42 2.93298M52.9632 20.1257C54.2049 20.1257 54.8694 22.1794 53.5433 22.557C52.6746 22.8492 51.1414 22.2648 51.4301 21.3C51.5118 20.5034 52.2987 20.3352 52.9632 20.1257ZM62.4916 19.9576C62.6986 19.9576 62.8647 19.9576 63.0717 20.0403C63.57 20.2498 64.2317 21.1319 63.9403 21.8017C63.7334 22.1794 63.3603 22.3889 62.862 22.4716C61.9933 22.6811 60.6671 21.9671 61.0402 21.0051C61.2471 20.3352 61.9088 20.1257 62.4889 19.9576M28.6425 16.9391C27.7738 18.9928 29.0155 21.3 30.1756 22.3062C31.6243 23.4805 33.9036 24.0676 36.3082 23.3978C37.4683 23.0201 38.4214 22.3062 39.6632 22.1408C39.9519 22.0581 40.3249 22.1408 40.5319 22.2235C41.692 22.6011 42.852 23.9849 44.3852 23.4805C44.8835 23.271 45.3383 23.1028 45.7114 22.8106C46.7898 22.014 47.6176 20.9665 48.1976 19.7067C48.5707 18.9101 48.8593 17.9453 49.276 17.19C49.5646 16.8123 50.1447 16.5201 50.7247 16.8123C51.0134 16.895 51.2231 17.1045 51.3864 17.3168C51.5934 17.5263 51.7595 17.6944 51.8848 17.9039C52.0918 18.1961 51.9665 18.5738 51.8031 18.7833C51.5961 18.9928 51.3048 19.1609 51.0161 19.3704C50.5178 19.6626 50.1474 20.1671 49.7743 20.5447C48.9873 21.6363 49.1126 22.5984 50.2727 23.271C51.8876 24.2358 55.9478 24.4453 56.4053 22.3062C56.6123 21.5095 56.1983 20.7542 56.0322 20.1671C55.9505 19.8749 55.6591 19.5799 55.7435 19.0755C55.8252 18.571 56.3236 18.4056 56.6123 18.1107C57.274 17.5235 57.9385 16.9364 58.7255 16.3492C59.0141 16.1397 59.3872 16.057 59.8038 16.2665C60.0925 16.3492 60.3839 16.6442 60.5908 16.8537C60.8795 17.0632 61.544 17.6503 61.4596 18.1107C61.3779 18.4883 61.0864 18.6978 60.7978 18.9073C60.0108 19.4118 58.1046 21.0464 59.183 22.3034C59.3899 22.5129 59.6813 22.6811 59.9699 22.8906C60.4683 23.1828 61.13 23.395 61.7101 23.5604C63.6163 24.0649 65.8521 23.4777 66.2251 21.9258C66.5982 20.4593 64.692 19.285 66.1434 18.3202C66.4321 18.2375 66.6417 18.028 66.9304 17.9425C67.2191 17.8571 67.7174 17.5649 68.1722 17.6503C69.1253 17.8598 69.1253 18.9073 69.4983 19.704C69.9967 20.961 70.8245 23.1001 72.1072 23.4777C72.7689 23.6872 73.349 23.2682 73.6404 22.9733C74.5935 22.1766 75.2552 21.0437 76.0422 19.9548C76.3308 19.5772 76.8292 18.7805 77.4909 18.8632C78.5693 19.0727 78.651 21.2945 79.0241 22.3861C79.1058 22.8906 79.3127 23.3509 79.8111 23.4777C80.3911 23.6872 80.8895 22.6811 81.0528 22.3034C81.5512 21.1291 82.2129 18.6978 83.373 18.3202C83.8713 18.1107 84.2417 18.5297 84.4514 18.8246C85.0314 19.704 84.8244 21.4654 85.2383 22.5984C85.32 22.976 85.7367 23.69 86.3167 23.4777C87.1037 23.2682 87.1854 22.3034 87.4768 21.6336C87.8499 20.4593 88.2638 18.9928 89.383 18.6151C90.2517 18.3229 90.5431 19.2023 90.7092 19.7067C91.2076 20.9637 91.4962 22.8106 92.738 23.3978C93.3997 23.69 94.1867 23.3978 94.6442 23.1883C95.8043 22.6011 96.3843 21.5536 97.8331 21.3441C98.2061 21.2614 98.6201 21.4268 98.9114 21.5536C99.5732 21.9313 100.153 22.433 100.818 22.8106C102.724 23.9849 105.333 23.3978 106.866 22.433C108.026 21.6363 108.979 20.5034 109.475 19.0369C110.262 16.6056 108.606 14.7587 106.988 14.0888C105.828 13.5844 103.8 13.5844 102.555 14.0888C102.348 14.1715 101.477 14.5933 101.686 14.8855C101.768 15.095 102.185 14.9682 102.348 14.9682C102.928 14.8855 103.674 14.676 104.461 14.7587C106.201 15.0509 107.735 16.3106 107.07 18.5324C106.988 18.8246 106.781 19.2023 106.572 19.4972C105.91 20.5888 103.672 21.8458 101.684 21.2587C100.524 20.881 99.5705 20.0844 99.2818 18.9101C98.9932 18.0307 98.9931 16.5615 99.2001 15.5967C99.2818 15.0922 99.1184 14.5051 98.6201 14.6319C98.0401 14.7146 97.667 16.5615 97.46 17.1486C96.88 18.7006 95.9269 20.462 94.105 20.7542C93.2363 20.8369 92.8633 20.0844 92.5719 19.4972C92.0736 18.2402 91.9102 16.6883 91.6188 15.3045C91.4118 14.5078 91.4118 13.7525 90.6657 13.6698C90.0857 13.5871 89.5873 13.962 89.4239 14.257C88.7622 15.1363 88.3455 16.3106 87.6838 17.1927C87.3951 17.4849 87.0221 18.0721 86.3576 17.9894C85.1975 17.7799 85.0314 16.1452 84.6175 15.0536C84.4105 14.676 84.1191 13.7112 83.5391 13.8793C82.379 14.0888 82.0059 16.3961 81.5103 17.4849C81.3034 17.8626 80.8486 18.6592 80.0616 18.2816C78.7354 17.6944 79.4815 14.381 78.0328 14.0034C77.1641 13.7939 76.5841 14.9682 76.2927 15.5553C75.631 16.7296 75.1327 18.1961 74.3865 19.2464C74.0978 19.7508 73.7247 20.338 73.0603 20.4207C72.2733 20.5034 71.9002 19.7508 71.7341 19.2464C71.361 18.1548 71.154 17.0246 70.8654 15.7235C70.7837 14.9268 70.7837 14.257 70.2037 13.8793C69.4167 13.3749 68.8775 14.257 68.3819 14.676C67.4288 15.3458 66.4757 15.933 65.4 16.6056C65.1113 16.8151 64.5313 17.1927 63.9512 17.1101C63.3712 17.0274 62.9981 16.5229 62.625 16.2307C61.838 15.6436 61.1763 14.9737 60.5118 14.3011C60.1388 13.9235 59.7249 13.2095 59.0631 13.2095C58.9815 13.2922 58.7745 13.2922 58.69 13.2922C58.1917 13.5844 58.0283 14.257 57.7369 14.7587C57.2386 15.5553 55.8307 17.1073 54.8368 17.2754C54.2567 17.3581 53.7584 16.6883 53.5105 16.4788C52.5574 15.514 51.7704 14.6346 50.5287 14.0475C50.0303 13.838 49.2025 13.3776 48.6224 13.7553C48.1241 14.0475 48.1241 15.5167 47.9607 16.1039C47.3807 17.7385 46.4276 19.6268 45.1858 20.6743C44.6875 21.0519 44.0257 21.6391 43.157 21.4709C41.5421 21.0933 41.2508 19.0397 40.8368 17.4022C40.6299 16.6056 40.5482 15.0536 39.8837 14.9709C39.3037 14.8883 39.222 15.3486 39.0968 15.8503C39.0151 16.3547 39.0968 16.8151 39.0968 17.4022V18.2816C39.0151 18.8687 39.015 19.3732 38.8081 19.8335C38.228 21.176 36.3218 22.5598 34.2087 22.1821C33.7103 22.0994 33.3399 22.0994 32.9669 21.9726C31.8068 21.4682 31.1451 20.6302 30.8537 19.1637C30.772 18.6592 30.9354 18.2843 31.0606 17.9067C31.559 16.3547 32.8824 16.0625 34.707 15.7676C35.287 15.6849 37.1088 15.9771 37.3158 15.5581C37.5227 15.1804 36.7358 14.8882 36.5288 14.7614C35.5757 14.257 34.0425 13.9648 32.6755 14.257C30.7692 14.2983 29.3205 15.3899 28.656 16.9419M0.0299846 23.5246C-0.0517109 24.1117 0.0300006 24.6989 0.318658 24.9911C0.691734 25.2833 1.4787 25.2833 1.85178 24.9911C2.43182 24.4866 2.5135 23.0615 2.72046 22.1821C3.38219 18.9542 4.0467 14.0034 4.74928 10.8168C4.95624 10.0201 5.12232 7.88104 6.07544 8.00784C7.15382 8.09054 7.23553 10.7341 7.52419 11.7816C8.02253 14.2129 8.39285 16.5615 8.85034 18.9955C9.139 20.2525 9.13905 21.6363 9.71909 22.6011C10.2174 23.271 11.3339 24.1531 12.6193 23.6927C13.9454 23.1056 14.3594 21.3441 14.8142 20.0017L18.5422 10.0615C18.9153 8.88719 19.4109 7.71289 19.784 6.66539C19.9909 6.28774 20.157 5.70059 20.7371 5.78604C22.1858 5.99554 21.5241 9.18213 21.8154 10.6514C22.0224 14.9296 22.1041 18.1575 22.3138 22.3089C22.6025 24.0704 21.8154 26 23.8469 26C24.0539 26 24.22 26 24.3453 25.9173C25.4237 25.6251 25.4237 23.9877 25.214 22.6894C25.214 22.0195 25.1323 21.4324 25.1323 20.7598C25.1323 20.2553 25.0506 19.7949 25.0506 19.2933C24.7183 14.3039 24.4297 10.4033 24.1383 5.45525C23.9314 4.1128 24.22 1.7642 23.5583 0.884849C23.1852 0.380396 22.4799 0.297698 21.652 0.297698H21.072C20.5737 0.380395 20.2033 0.380394 19.9119 0.589894C19.2502 1.09435 18.6701 3.31615 18.3788 4.28095C17.2187 7.5089 16.0586 10.6982 14.8985 13.9262C14.4002 15.1832 14.0299 16.4429 13.5724 17.6999C13.3654 18.2871 13.074 18.9569 12.494 19.0424C11.914 19.1278 11.6253 18.6648 11.5409 18.2458C11.0425 17.1542 11.0425 15.729 10.8791 14.5547C10.3808 11.4508 9.80075 8.22286 9.34598 5.11896C9.13902 4.02736 9.05732 2.10051 8.39287 1.51336C7.89453 1.13571 6.36412 0.926207 5.49271 1.22116C4.25093 1.59881 4.16648 4.0301 3.75255 5.4139C2.79944 9.6921 1.84635 15.6463 0.852391 19.9245C0.479315 21.2256 0.231495 22.3999 0.0245329 23.5301" fill="#F8F8F7"/>
</svg>
