<svg width="86" height="23" viewBox="0 0 86 23" fill="none" xmlns="http://www.w3.org/2000/svg">
<path d="M0.726367 0.402344H5.8403V18.7554C7.24172 18.7554 8.56934 18.7554 9.897 18.7554C10.793 18.7554 11.6918 18.7445 12.5879 18.7636C12.7545 18.7663 13.014 18.8482 13.0659 18.9657C13.574 20.0964 14.0494 21.2434 14.5302 22.3878C14.5439 22.4205 14.511 22.4697 14.4892 22.5571H0.723633V0.402344H0.726367Z" fill="#F8F8F7"/>
<path d="M67.0813 15.7371H54.4276C54.2965 17.8674 55.4985 19.3722 57.5692 19.5252C58.5745 19.5989 59.6126 19.4706 60.6097 19.2821C61.4292 19.1264 62.0384 18.6075 61.9811 17.5888C63.6393 17.4031 65.262 17.2229 66.8765 17.0426C67.3081 18.867 66.2427 20.7924 64.3413 21.7865C63.0137 22.4802 61.5849 22.7561 60.118 22.8817C58.121 23.051 56.1241 23.0019 54.1845 22.4912C51.7395 21.8466 50.1742 20.2762 49.5841 17.7855C49.0405 15.4913 49.035 13.1972 49.6196 10.9167C50.2398 8.50788 51.7832 6.95934 54.1927 6.34484C56.7988 5.67845 59.435 5.68118 62.0603 6.23559C64.6719 6.78728 66.2864 8.40683 66.7289 11.0178C66.9857 12.5308 66.9666 14.093 67.0786 15.7426L67.0813 15.7371ZM61.9401 12.4106C61.9674 10.7091 61.3063 9.73414 59.8667 9.3709C58.6783 9.07321 57.4791 9.09778 56.3098 9.46648C55.004 9.87615 54.302 10.9713 54.3976 12.4106H61.9401Z" fill="#F8F8F7"/>
<path d="M29.9836 21.5763C27.0032 22.1144 24.1239 23.114 21.056 22.9446C19.4142 22.8545 17.7833 22.7125 16.2617 22.0078C13.2103 20.5959 12.4181 16.1141 14.8521 13.9756C15.9121 13.0443 17.2452 12.8586 18.581 12.7385C20.3021 12.5855 22.0231 12.4735 23.7469 12.3424C23.8343 12.337 23.9272 12.337 24.0064 12.3042C24.5009 12.1076 25.181 12.1759 25.192 11.3402C25.2084 10.2477 24.9379 9.63866 24.0993 9.41471C22.676 9.03781 21.2336 9.05693 19.8295 9.51849C19.152 9.74244 18.7695 10.2614 18.7203 10.996C18.6958 11.362 18.6684 11.7279 18.6356 12.1977C17.7751 11.9929 16.9774 11.8044 16.1797 11.6133C15.3985 11.4275 14.6144 11.2391 13.7922 11.0424C13.9342 9.22079 14.8111 7.93444 16.33 7.05229C17.5484 6.34493 18.9034 6.07457 20.2775 5.94348C22.3345 5.74684 24.3889 5.81236 26.3831 6.42959C28.1096 6.96489 29.5493 7.83339 29.9536 9.78067C29.9973 9.99369 30.0191 10.2122 30.0191 10.4307C30.0219 13.9893 30.0219 17.5479 30.0191 21.1066C30.0191 21.2568 29.9972 21.4043 29.9836 21.5736V21.5763ZM25.1784 15.3986C24.2222 15.486 23.3562 15.5597 22.4902 15.6498C21.4959 15.7536 20.4933 15.8328 19.5099 16.0103C19.1902 16.0677 18.8023 16.3353 18.6493 16.6166C18.1904 17.4715 18.6248 18.8425 19.5153 19.1894C21.2009 19.8448 22.9273 19.8257 24.6074 19.1292C24.8533 19.0282 25.1346 18.665 25.151 18.4083C25.2139 17.4141 25.1756 16.4118 25.1756 15.404L25.1784 15.3986Z" fill="#F8F8F7"/>
<path d="M48.4674 12.5639C46.801 12.7961 45.1591 13.0255 43.3807 13.274C43.3807 12.7852 43.3862 12.34 43.3807 11.8975C43.3507 10.1442 42.7278 9.41225 40.9877 9.25384C40.1681 9.1801 39.3268 9.23199 38.5045 9.31665C37.2834 9.44228 36.4884 10.1496 36.2289 11.3458C35.7918 13.3751 35.8027 15.418 36.2234 17.4499C36.4611 18.5942 37.1932 19.3508 38.357 19.46C39.4306 19.5638 40.5424 19.5692 41.6078 19.419C42.7688 19.2552 43.2305 18.6161 43.3398 17.4472C43.3889 16.9091 43.3917 16.3657 43.4217 15.7402C44.3205 15.844 45.1782 15.9451 46.036 16.0461C46.6889 16.1226 47.3364 16.2318 47.9921 16.2673C48.4155 16.2919 48.5438 16.4421 48.552 16.86C48.623 19.9325 46.9566 21.9972 43.9025 22.5789C41.0723 23.1169 38.2422 23.1524 35.4475 22.4123C33.0272 21.7705 31.5547 20.1755 31.0849 17.7011C30.6614 15.4698 30.6533 13.233 31.104 11.0072C31.664 8.22966 33.4943 6.73303 36.1879 6.21412C38.9033 5.69248 41.6188 5.68699 44.3096 6.42712C47.2681 7.24099 48.8799 9.57065 48.4756 12.5667L48.4674 12.5639Z" fill="#F8F8F7"/>
<path d="M76.1756 12.1432C76.1756 11.5505 76.1975 10.9251 76.1702 10.2997C76.1374 9.51858 75.856 9.24821 75.0884 9.1854C73.3127 9.04065 72.9822 9.34107 72.9822 11.0944C72.9822 14.6558 72.9822 18.2172 72.9822 21.7785C72.9822 22.0134 72.9822 22.2483 72.9822 22.5269H68.1495C68.1359 22.3193 68.1113 22.1117 68.1113 21.9014C68.1113 17.1821 68.1195 12.4627 68.0977 7.74337C68.0977 7.21899 68.2534 7.0169 68.7642 6.9377C70.9196 6.59631 73.0586 6.09925 75.225 5.90807C76.3559 5.80975 77.5825 6.08012 78.6807 6.44335C80.3006 6.97865 81.2732 8.81124 81.0437 10.4881C81.0246 10.6274 80.9016 10.8295 80.7814 10.8677C79.3254 11.332 77.8612 11.769 76.3997 12.2115C76.3669 12.2224 76.3204 12.1896 76.1729 12.1432H76.1756Z" fill="#F8F8F7"/>
<path fill-rule="evenodd" clip-rule="evenodd" d="M81.5908 5.91063C81.5908 6.91568 82.4049 7.72679 83.4102 7.72679C84.4128 7.72406 85.2213 6.91021 85.2213 5.91063C85.2186 4.91104 84.41 4.10263 83.4102 4.09717C82.4076 4.09717 81.5936 4.90831 81.5908 5.91063ZM84.8799 5.91063C84.8853 6.72177 84.2325 7.37994 83.4211 7.3854C83.4157 7.3854 83.4129 7.3854 83.4074 7.3854C82.5961 7.39086 81.935 6.73541 81.9296 5.927C81.9296 5.92154 81.9296 5.91609 81.9296 5.91063C81.9296 5.09949 82.5824 4.44129 83.3938 4.43856C83.3965 4.43856 83.402 4.43856 83.4047 4.43856C84.2161 4.43856 84.8745 5.09129 84.8772 5.90243C84.8772 5.90516 84.8772 5.9079 84.8772 5.91063H84.8799ZM84.309 6.89655L83.8336 6.07175C84.1806 6.04717 84.3663 5.89967 84.3663 5.53917C84.3663 5.33433 84.3199 5.14043 84.1396 5.03119C83.9948 4.94106 83.7735 4.94107 83.6069 4.94107H82.6589V6.89655H83.0414V6.07175H83.4266L83.8636 6.89655H84.309ZM83.6151 5.77681H83.0386V5.22238H83.514C83.7052 5.22238 83.9839 5.22237 83.9839 5.48183C83.9839 5.74128 83.8309 5.77681 83.6123 5.77681H83.6151Z" fill="#F8F8F7"/>
</svg>
