<svg width="94" height="32" viewBox="0 0 94 32" fill="none" xmlns="http://www.w3.org/2000/svg">
<path fill-rule="evenodd" clip-rule="evenodd" d="M77.5679 3.95602e-05C73.8689 -0.00531608 70.2773 1.21038 67.3786 3.44636C64.48 1.2077 60.8883 -0.00531608 57.1893 3.95602e-05C53.4904 -0.00531608 49.8987 1.21038 47 3.44636C44.1013 1.2077 40.5096 -0.0079939 36.8107 3.95602e-05C33.1117 -0.00531608 29.52 1.21038 26.6214 3.44636C23.7227 1.2077 20.1311 -0.00531608 16.4321 3.95602e-05C7.35664 3.95602e-05 0 7.16053 0 16C0 24.8395 7.35389 32 16.4321 32C20.1311 32.0053 23.7227 30.7896 26.6214 28.5536C29.52 30.7923 33.1117 32.0053 36.8107 32C40.5096 32.0053 44.1013 30.7896 47 28.5536C49.8987 30.7923 53.4904 32.0053 57.1893 32C60.8883 32.0053 64.48 30.7896 67.3786 28.5536C70.2773 30.7923 73.8689 32.0053 77.5679 32C86.6434 32 94 24.8368 94 16C94 7.16321 86.6461 3.95602e-05 77.5679 3.95602e-05ZM23.9345 25.94C21.8417 27.4262 19.2235 28.3341 16.4349 28.3341C9.43301 28.3341 3.76769 22.8177 3.76769 16C3.76769 9.18228 9.43301 3.66596 16.4349 3.66596C19.2263 3.66596 21.8389 4.57373 23.9345 6.06259C21.6244 8.88769 20.3731 12.393 20.3813 16.0027C20.3813 19.6097 21.6354 23.1123 23.9345 25.9427V25.94ZM26.6241 23.3292C25.0098 21.211 24.1407 18.6403 24.1462 16C24.1407 13.3597 25.0098 10.7889 26.6241 8.67079C28.2412 10.7889 29.1103 13.3597 29.102 16C29.1075 18.6403 28.2385 21.2083 26.6241 23.3292ZM44.3131 25.94C42.1377 27.4985 39.5058 28.3367 36.8052 28.3314C34.11 28.3367 31.4836 27.4985 29.3138 25.94C31.6157 23.1123 32.867 19.6097 32.867 16C32.8753 12.3903 31.6212 8.88501 29.3138 6.05991C31.4836 4.50142 34.11 3.66328 36.8052 3.66864C39.6158 3.66864 42.212 4.55498 44.3131 6.05991C42.003 8.88501 40.7517 12.3903 40.7599 16C40.7599 19.607 42.014 23.1096 44.3131 25.94ZM47 23.3292C45.3857 21.211 44.5166 18.6403 44.5221 16C44.5166 13.3597 45.3857 10.7889 47 8.67079C48.6171 10.7889 49.4861 13.3597 49.4806 16C49.4861 18.6403 48.6171 21.2083 47 23.3292ZM64.689 25.94C62.5879 27.4477 59.9917 28.3314 57.1811 28.3314C54.3704 28.3314 51.7908 27.445 49.6896 25.94C51.9915 23.1123 53.2428 19.6097 53.2428 16C53.2511 12.3903 51.997 8.88501 49.6896 6.05991C51.7908 4.55498 54.3704 3.66864 57.1811 3.66864C59.9917 3.66864 62.5879 4.55498 64.689 6.05991C62.3816 8.88501 61.1275 12.3903 61.1357 16C61.1357 19.607 62.3898 23.1096 64.689 25.94ZM67.3786 23.3292C65.7643 21.211 64.8952 18.6403 64.9007 16C64.8925 13.3597 65.7643 10.7889 67.3786 8.67079C68.9957 10.7889 69.8648 13.3597 69.8565 16C69.862 18.6377 68.993 21.2083 67.3786 23.3292ZM77.5679 28.3341C74.7765 28.3341 72.1611 27.4262 70.0683 25.94C72.3674 23.1123 73.6214 19.6097 73.6214 16C73.6297 12.3903 72.3756 8.88501 70.0683 6.05991C72.1639 4.57372 74.7765 3.66328 77.5679 3.66328C84.5697 3.66328 90.2351 9.1796 90.2351 15.9973C90.2351 22.8151 84.567 28.3314 77.5679 28.3314V28.3341Z" fill="#F8F8F7"/>
</svg>
