<svg width="158" height="21" viewBox="0 0 158 21" fill="none" xmlns="http://www.w3.org/2000/svg">
<path d="M48.7224 6.14757C44.0112 6.14757 40.5545 10.3814 40.5545 14.7788C40.5545 19.1762 43.3429 20.9837 47.4707 20.9837C48.9936 20.9837 50.5877 20.6347 52.0421 20.1903L52.5106 17.2733C51.1356 17.9194 49.6373 18.2629 48.1144 18.2765C45.7232 18.2765 44.329 17.4478 44.14 15.2204L44.1153 14.8251V14.7079C44.1345 13.7401 44.3426 12.7859 44.7261 11.8972C45.441 10.0897 46.46 8.84111 48.6649 8.84111C50.2234 8.84111 51.0314 9.69167 51.0314 11.2102C51.0314 11.5373 51.0068 11.8399 50.9492 12.178H45.8272C45.5725 12.9986 45.4383 13.8519 45.4301 14.7107H54.2197C54.4553 13.6611 54.595 12.6114 54.595 11.5373C54.595 7.93325 52.2503 6.14757 48.7115 6.14757H48.7224ZM42.3924 6.47477H37.5278L32.3236 11.6191H32.2661L34.7505 0H31.0117L26.5826 20.6484H30.2283L31.8443 13.1349H31.9019L35.6051 20.6592H39.8232L35.4873 12.9359L42.3788 6.47204H42.3897L42.3924 6.47477ZM60.1607 16.739C60.1635 16.2755 60.2237 15.812 60.336 15.3622L61.6946 9.17916H65.0473L65.6334 6.47204H62.2808L63.2065 2.25998L59.1993 3.54408L58.5556 6.46112H55.8604L55.2633 9.16824H57.9585L56.904 13.9637C56.6684 15.0951 56.4356 16.1692 56.4356 17.2651C56.4356 19.994 58.216 20.9973 60.7606 20.9973C61.3933 20.9973 62.1192 20.7874 62.7519 20.6484L63.4092 17.7912C62.8286 18.0121 62.2123 18.1212 61.5933 18.1184C60.7496 18.1184 60.1635 17.6059 60.1635 16.7417L60.1607 16.739ZM4.91115 16.739C4.91115 16.191 4.99332 15.6893 5.07549 15.3622L6.43405 9.17916H9.78666L10.3728 6.47204H7.02021L7.94602 2.25998L3.92506 3.54408L3.29236 6.46112H0.586163L0 9.17916H2.69523L1.64069 13.9745C1.39418 15.1059 1.17233 16.1801 1.17233 17.276C1.17233 19.994 2.95269 20.9973 5.49728 20.9973C6.13 20.9973 6.85586 20.7874 7.48858 20.6484L8.14597 17.7912C7.56528 18.0121 6.94899 18.1212 6.32997 18.1184C5.49729 18.1184 4.90018 17.6059 4.90018 16.7417H4.91115V16.739ZM19.5377 14.4299C19.5377 11.7582 21.2031 9.00464 24.1914 9.00464C25.224 9.00464 26.1827 9.25004 26.9222 9.72713L27.8371 6.69281C26.6237 6.33568 25.3637 6.15029 24.0983 6.14484C18.9406 6.14484 15.6373 9.91248 15.6373 14.8715C15.6373 18.5355 18.0285 20.9837 21.7317 20.9837C22.9615 20.9837 24.1941 20.8664 25.3308 20.3184L25.7527 17.4014C24.7803 17.8676 23.6326 18.113 22.7041 18.113C20.1485 18.113 19.5405 16.27 19.5405 14.4271L19.5377 14.4299ZM16.9931 0.362542H13.2543L12.4682 3.88486H16.218L16.9904 0.362542H16.9931ZM11.882 6.47477L8.83347 20.6484H12.5723L15.6318 6.46385H11.893L11.882 6.47477ZM96.3383 6.15848C94.662 6.15848 93.0459 6.46113 91.4518 7.0091L90.9232 9.96155C92.394 9.25273 94.0018 8.87383 95.6343 8.85202C96.9463 8.85202 98.5049 9.26096 98.5049 10.6949C98.5049 11.1148 98.5049 11.5237 98.3871 11.9081H97.086C93.5691 11.9081 88.2717 12.2571 88.2717 16.9489C88.2717 19.5606 90.1124 20.9973 92.7008 20.9973C94.7633 20.9973 96.0534 20.0867 97.3298 18.4892H97.3873L97.0011 20.6701H100.143C100.482 17.9875 101.901 12.4342 101.901 10.5204C101.901 7.19445 99.2061 6.15848 96.3328 6.15848H96.3383ZM93.7608 18.2902C92.7994 18.2902 91.8626 17.7995 91.8626 16.8098C91.8626 14.4189 94.8619 14.1163 96.667 14.1163H97.9926C97.4065 16.4036 96.5382 18.2929 93.7608 18.2929V18.2902ZM83.9166 6.14757C81.9007 6.14757 79.8135 6.99818 78.8658 8.84111H78.8083C78.6083 7.12632 76.8498 6.14757 75.1516 6.14757C73.4534 6.14757 71.7524 6.9164 70.7554 8.36402H70.6979L71.0375 6.47477H67.5452L67.2412 8.05046L64.6282 20.6484H68.356L69.8324 13.9064C70.3008 12.0062 71.0047 9.00737 73.5356 9.00737C74.497 9.00737 75.2941 9.67257 75.2941 10.7113C75.2941 11.5755 75.0256 12.8923 74.8257 13.7456L73.3247 20.662H77.0525L78.5289 13.9064C78.9973 11.9817 79.6409 9.00737 82.243 9.00737C83.1798 9.00737 84.0015 9.67257 84.0015 10.7113C84.0015 11.5755 83.7194 12.8923 83.5332 13.7456L82.0102 20.662H85.76L87.2473 13.8846C87.565 12.7178 87.891 11.2947 87.891 10.0352C87.8472 7.87599 86.075 6.1503 83.9056 6.1503H83.9166V6.14757ZM132.25 6.14757C127.539 6.14757 124.082 10.3814 124.082 14.7788C124.082 19.1762 126.871 20.9837 130.998 20.9837C132.521 20.9837 134.115 20.6347 135.57 20.1903L136.038 17.2733C134.663 17.9194 133.165 18.2602 131.642 18.2765C129.251 18.2765 127.857 17.4478 127.681 15.2204C127.67 15.0814 127.646 14.9642 127.646 14.8251V14.7079C127.67 13.7292 127.881 12.7723 128.267 11.8972C128.971 10.0897 129.99 8.84111 132.193 8.84111C133.751 8.84111 134.559 9.69167 134.559 11.2102C134.559 11.5373 134.534 11.8399 134.477 12.178H129.366C129.111 12.9986 128.977 13.8519 128.969 14.7107H137.758C137.994 13.6611 138.134 12.6114 138.134 11.5373C138.134 7.93325 135.789 6.14757 132.25 6.14757ZM144.181 9.14641H144.124L144.628 6.46385H141.053L140.725 8.37766L138.158 20.662H141.897L143.234 14.2935C143.702 12.0062 144.992 9.67535 147.641 9.67535C148.109 9.67535 148.638 9.75708 149.046 9.89612L149.843 6.28115C149.375 6.18028 148.893 6.13667 148.413 6.15303C146.69 6.15303 144.85 7.61155 144.181 9.15187V9.14641ZM119.722 16.7417C119.722 16.1937 119.804 15.6921 119.886 15.3649L121.258 9.18188H124.6L125.186 6.47477H121.844L122.759 2.26271L118.752 3.54675L118.108 6.46385H115.413L114.827 9.17097H117.522L116.468 13.9664C116.21 15.0978 115.999 16.1719 115.999 17.2678C115.999 19.9968 117.78 21 120.313 21C120.957 21 121.686 20.7901 122.318 20.6511L122.962 17.794C122.494 17.993 121.814 18.1212 121.146 18.1212C120.313 18.1212 119.727 17.6086 119.727 16.7444L119.722 16.7417ZM104.123 10.6649C104.123 14.2117 108.963 14.4326 108.963 16.7308C108.963 17.8731 107.651 18.282 106.396 18.282C105.131 18.2411 103.901 17.8621 102.833 17.186L102.011 20.1385C103.391 20.7383 104.887 21.0273 106.393 20.9892C109.604 20.9892 112.863 19.8796 112.863 16.2074C112.863 12.7314 108.012 12.0662 108.012 10.2806C108.012 9.14918 109.406 8.84656 110.521 8.84656C111.576 8.84656 112.619 9.14914 113.016 9.35906L113.824 6.58379C112.679 6.30844 111.51 6.16393 110.332 6.15303C107.366 6.15303 104.12 7.33077 104.12 10.6677L104.123 10.6649ZM154.79 6.16121C153.026 6.16121 151.591 7.57888 151.58 9.33457C151.58 11.0848 153.02 12.5079 154.79 12.5079C156.557 12.5133 157.995 11.093 158 9.33457C158 7.58434 156.559 6.16121 154.79 6.16121ZM154.801 12.0417C153.357 12.0362 152.19 10.8667 152.196 9.42995C152.196 9.39723 152.196 9.36728 152.196 9.33457C152.196 7.81879 153.308 6.64103 154.798 6.64103C156.288 6.64103 157.389 7.81879 157.389 9.33457C157.389 10.8503 156.277 12.0417 154.812 12.0417H154.801ZM156.302 8.51943C156.302 7.81879 155.88 7.46981 155.012 7.46981H153.571V11.202H154.182V9.53358H154.697L155.751 11.1775H156.395L155.329 9.54443C155.916 9.54443 156.302 9.1001 156.302 8.50579V8.5167V8.51943ZM154.182 9.07825V7.93598H154.908C155.305 7.93598 155.68 8.05321 155.68 8.48396C155.68 8.96104 155.376 9.06734 154.908 9.06734H154.182V9.07825Z" fill="#F8F8F7"/>
</svg>
