<svg width="107" height="35" viewBox="0 0 107 35" fill="none" xmlns="http://www.w3.org/2000/svg">
<path fill-rule="evenodd" clip-rule="evenodd" d="M70.1489 18.6628L70.0833 18.3405L69.3375 15.6968H69.2255L68.7092 17.3737L67.6575 18.7283L67.1056 18.843H66.6057L66.0539 18.955H65.5376L65.0377 19.0506H64.4886L63.8575 19.1653H63.4368L62.9205 19.28H62.3878L61.8715 19.3592H61.3552L60.3034 19.5831H59.7543L59.3336 19.6952H58.8173V19.5831L61.2432 10.4503V10.3384L53.6597 20.0201L53.4493 20.3424L53.2882 20.6811L53.1434 21.0034L53.0286 21.342L52.9139 21.6315L52.8483 21.9374L52.7855 22.2269L52.7691 22.5328L52.7363 22.7895L52.7527 23.0653L52.7691 23.3221L52.8347 23.5815L52.9002 23.8082L52.9986 24.0513L53.1106 24.2752L53.2554 24.5019L53.6269 24.8569L54.0312 25.1464L54.4683 25.3731L54.9682 25.5342L55.4681 25.6299L56.0336 25.6626L56.3095 25.6463L56.6155 25.6299L57.2465 25.5643L62.0655 23.9994L66.0594 22.0794L69.7637 20.9514L69.8292 20.7739L69.9085 20.6128L70.0368 20.2905L70.1188 19.9683L70.198 19.646V19.4685L70.2144 19.3073L70.198 18.985L70.1489 18.6601V18.6628ZM65.4829 20.9815L58.3201 23.9174L56.4461 24.2233L54.7633 23.5952L54.6841 23.4996L54.6349 23.4204L54.553 23.2265L54.5038 23.0162L54.4874 22.9042L54.5038 22.8086L54.5202 22.5519L54.5858 22.2952L54.6977 22.0221L54.8425 21.7326L56.3314 19.0861L57.8038 17.4092L57.5798 19.3947L56.9652 21.6205L65.3709 20.7657V20.8777H65.4829V20.9924V20.9815Z" fill="#F8F8F7"/>
<path fill-rule="evenodd" clip-rule="evenodd" d="M83.0598 1.65374C80.2515 1.20584 77.4432 1.35062 74.6349 2.09075C74.0721 1.84221 73.5121 1.59362 72.9521 1.34509L70.4142 0.71699L67.7944 0.828941L63.4782 1.76569C63.0629 1.91044 62.6477 2.05522 62.2352 2.2027L61.036 2.66971L59.8394 3.18586C59.4515 3.3743 59.0636 3.56277 58.6757 3.75121L57.5119 4.34931L56.3973 4.98021L55.28 5.65752L54.2119 6.38404L53.3869 6.80458L53.824 6.07813L54.4386 5.44996L51.0758 4.19095L49.9421 3.78675L48.8275 3.4481L47.6801 3.10944L46.5492 2.83633L45.369 2.56322L44.2053 2.33652L43.0088 2.12622L41.8122 1.98146L38.5614 1.77116L36.3295 2.39933L34.5675 3.77035V3.8823L29.8305 3.44537L29.0875 3.56005H28.4564L26.872 3.77035L21.7307 5.01302L19.7419 5.86782L18.1411 7.1269L17.898 7.41641L17.7204 7.75506L17.5756 8.14286L17.4609 8.5798C17.439 8.65081 17.4172 8.71909 17.3953 8.7901C17.3844 8.8693 17.3735 8.95127 17.3626 9.03047L17.3134 9.53028C17.3079 9.71327 17.3024 9.89626 17.297 10.0792L17.3134 10.6773L17.5073 12.9032C17.3352 13.4904 17.1631 14.0748 16.991 14.662L15.9393 16.5656L15.8245 16.8879L15.6306 17.1937H15.5159L15.5322 16.1286L15.6142 15.0963L15.8245 13.0807L15.9529 12.0784L16.1305 11.1115L16.5676 9.22437L17.3107 3.96425V3.41529C17.3052 3.30878 17.2997 3.19955 17.2943 3.09304L17.2615 2.78713L17.2287 2.51401L17.1631 2.2409L17.0839 2.0006L16.9883 1.75749L16.8736 1.54719L16.7288 1.33696C16.6687 1.27687 16.6113 1.21948 16.5512 1.15939L16.3572 1.01464L16.1469 0.899953C16.0595 0.867179 15.9748 0.834379 15.8874 0.804337L15.6115 0.755196L15.3055 0.706055L14.9968 0.722457L13.09 1.35056L4.47116 5.96617C3.51776 7.08593 2.56435 8.20296 1.60821 9.32272L1.3323 9.96722L1.13835 10.6445L0.977167 11.3382L0.878826 12.0484C0.856971 12.2532 0.83512 12.458 0.813265 12.6601L0.796875 13.291L0.813265 13.9191L0.878826 14.5801L0.977167 15.2902L1.12196 16.0167L1.28313 16.7267L1.47709 17.4532L1.67106 18.1469L1.91417 18.857L2.46327 20.2444L6.45717 28.4405L5.92447 29.5875L4.98746 31.0541L4.90551 31.248L4.88912 31.4583C4.89458 31.5348 4.90004 31.6085 4.90551 31.685L4.97107 31.9281L5.05302 32.1548L5.19781 32.4142L5.37539 32.671L5.60211 32.9468C6.24409 33.2964 6.88334 33.6459 7.52532 33.9955L9.95116 34.1075L13.0873 33.3646L15.8191 31.9937L16.4993 31.6058L17.1932 31.218L17.8734 30.7974L18.0346 30.6827L18.2121 30.5871C18.3323 30.5216 18.4498 30.4587 18.5673 30.3932L19.2147 29.9426L19.8785 29.4919C20.0944 29.3362 20.3102 29.1806 20.526 29.0249L21.1734 28.5579L21.7881 28.0417L22.4027 27.5255L22.6923 27.2524L22.9983 26.9957L23.6129 26.4632L24.1784 25.8814L24.7603 25.316L24.8887 25.155L24.9542 25.073L25.0335 25.0075L25.323 24.7179L25.9049 24.1198L31.5789 16.7786H31.6936L29.1885 24.0379L28.2188 29.38L28.4455 31.8816L28.5575 32.1247L28.7023 32.3842L28.8471 32.6082L29.041 32.8348L29.235 33.0287L29.4617 33.239L29.6885 33.4166C29.7813 33.4766 29.8715 33.5367 29.9644 33.5941L30.2703 33.7552L30.6091 33.9327L30.9806 34.0775L31.3849 34.2222L35.7995 34.6264L36.2994 34.5609L36.4142 34.5281C36.4579 34.5226 36.4989 34.5172 36.5426 34.5117L36.8021 34.4789L37.272 34.3806L37.7254 34.2686L37.9194 34.1894L38.1298 34.1239C38.2636 34.0692 38.4002 34.0174 38.5341 33.9628L38.7116 33.8672L38.9056 33.7879L39.2607 33.5941L39.5995 33.3673L40.8616 31.6905L41.6865 29.705L43.5934 31.6905L44.1588 32.0291L44.7571 32.3842C45.1778 32.6081 45.5985 32.8348 46.0192 33.0615L46.6967 33.3209L47.4097 33.5941L47.9916 33.7879L48.5898 33.9818L49.1717 34.143L49.4613 34.2086L49.6061 34.2414L49.7672 34.2905L50.931 34.5172L51.5129 34.5963L52.0948 34.6619L52.6438 34.6947L53.2257 34.7111H53.7912L54.3731 34.6947L54.9222 34.6456L55.1981 34.6127L55.4876 34.5963L56.0367 34.5172C56.2307 34.4844 56.4247 34.4516 56.6186 34.4189L58.1047 34.0311C58.3533 33.9628 58.6019 33.8918 58.8478 33.8208L59.5908 33.5941C60.1618 33.3892 60.7327 33.1844 61.3037 32.9796L62.145 32.6409L63.0165 32.2858L63.8579 31.898C63.9972 31.827 64.1366 31.7588 64.2786 31.6877C64.4234 31.6222 64.5682 31.5594 64.7157 31.4938L65.5571 31.0732L66.3985 30.6362L66.5105 30.5216V30.6362C66.5815 30.8465 66.6525 31.0568 66.7208 31.2671L66.8028 31.6058C66.841 31.7123 66.8766 31.8216 66.9148 31.9281L67.0596 32.2176C67.1251 32.3077 67.1907 32.4005 67.2535 32.4907L67.4639 32.7174L67.707 32.9277L67.9829 33.1052L68.3053 33.2499L68.6604 33.4275L69.0155 33.5886L69.4363 33.7333L69.887 33.8781L70.3405 33.9928L70.8267 34.1048L81.03 34.4107L90.8126 32.3132L96.0659 30.5216C96.9401 29.7514 97.8115 28.984 98.6857 28.2138C99.3577 27.094 100.032 25.977 100.707 24.8572C100.729 24.707 100.748 24.5568 100.773 24.4066L100.789 23.986L100.74 23.5654L100.658 23.194L100.497 22.8062C100.431 22.6887 100.366 22.5685 100.303 22.4511L100.043 22.1125C99.9396 22.0114 99.8385 21.9077 99.7374 21.8066L99.5107 21.629L99.284 21.4843L99.0408 21.3696C98.9616 21.3478 98.8797 21.3259 98.7977 21.3041L98.5218 21.2412L98.2459 21.2248L97.9399 21.2412L97.6504 21.2877H97.2297C97.0466 21.3259 96.8636 21.3642 96.6806 21.4024C97.5957 20.0696 98.5109 18.7341 99.4287 17.4013C99.4615 17.2402 99.4943 17.079 99.5271 16.9179L99.5408 16.6748V16.4481L99.5107 16.2215C99.4943 16.145 99.4779 16.0713 99.4616 15.9948L99.3987 15.7681L99.3168 15.5578L99.1856 15.3312C99.1365 15.2547 99.09 15.1809 99.0408 15.1045C98.9889 15.028 98.9343 14.9542 98.8797 14.8778C98.8196 14.8067 98.7622 14.7385 98.7021 14.6675C98.6311 14.591 98.56 14.5173 98.4918 14.4408L98.265 14.2468L97.7487 13.8263V13.7143L98.8004 13.0861L99.06 12.925L99.1884 12.8458L99.3331 12.7803L99.8822 12.458C100.237 12.2204 100.595 11.9855 100.95 11.7479L101.983 10.9395C102.155 10.7948 102.327 10.65 102.499 10.5025L103.018 10.0519L106.381 6.06446L83.0352 1.64281L83.0598 1.65374ZM102.871 7.20884C102.144 8.08007 101.415 8.95124 100.688 9.82247L97.8252 11.8244L95.9512 12.5508H95.6261L94.3831 12.7611H94.0608L93.3177 12.8732L86.0566 12.3242L83.5351 12.5508L81.855 15.4868L81.8878 15.5523C81.9151 15.5742 81.9425 15.596 81.9671 15.6179L82.0791 15.6671C82.1337 15.6889 82.1883 15.7108 82.2402 15.7326L82.4178 15.749L82.6445 15.7818L82.9205 15.7982L83.2264 15.8146H84.9912L92.5883 14.2496L96.1479 14.6374L96.3418 14.733L96.5194 14.8641L96.8417 15.1399L97.1013 15.413L97.2952 15.7354L97.4263 16.0412L97.4892 16.3963V16.7677L97.4263 17.1719L95.6316 19.8019L93.3204 20.9627H93.0117L92.5911 21.0419H92.042L91.6377 21.1538H91.023L90.3619 21.2659L83.1199 21.7028L82.6036 21.782H82.2621L81.631 21.8967L79.757 22.4129L78.7053 23.8986V24.0598L78.738 24.2209L78.7681 24.3493L78.8501 24.4776L78.9293 24.5732C78.9675 24.606 79.0058 24.6388 79.044 24.6688L79.156 24.7508L79.3172 24.8299L80.4973 25.2505L86.286 25.3625L97.3116 23.0547H98.153L98.3797 23.1039C98.448 23.1367 98.5191 23.1694 98.5901 23.1994C98.642 23.2377 98.6966 23.2732 98.7513 23.3142L98.8797 23.4589L98.8004 24.5076L98.3797 25.5728C98.2705 25.7777 98.1639 25.9825 98.0547 26.1873L97.8771 26.4768L97.7159 26.7663L97.5219 27.0257L97.4263 27.1541C97.41 27.1759 97.3936 27.1978 97.3772 27.2196C97.3663 27.2469 97.3553 27.2743 97.3444 27.3016C97.3226 27.318 97.3007 27.3344 97.2788 27.3508L97.2297 27.4163C97.1969 27.46 97.1641 27.5037 97.1313 27.5447L96.9373 27.7877L96.7106 27.998L96.5986 28.0936C96.5658 28.1319 96.533 28.1673 96.5003 28.2056L96.2571 28.3995L96.0304 28.5934L95.7709 28.7545L95.6397 28.8337C95.6015 28.8665 95.566 28.8993 95.5277 28.9293L95.0114 29.2352L90.2745 30.6062L88.9659 30.8302L88.3185 30.9749L87.7039 31.1525L87.0728 31.3136L86.4745 31.5075L85.8763 31.7178L85.3081 31.9581L82.3659 32.4743L82.0599 32.589H81.6228L81.3169 32.701H80.9918L80.4919 32.8157H80.0548L79.5385 32.9113H78.891L78.26 33.0232L70.7093 32.4743C70.5536 32.4416 70.3978 32.4088 70.2421 32.3787L70.0154 32.3132L69.8215 32.2668C69.6903 32.2231 69.5619 32.1793 69.4335 32.1383L69.1112 32.01C69.0101 31.9499 68.9063 31.8926 68.8052 31.8325L68.6604 31.7369C68.6222 31.7096 68.5867 31.6823 68.5484 31.6577L68.3381 31.4474C68.3053 31.4092 68.2725 31.3737 68.2425 31.3354C68.2206 31.3026 68.1988 31.2699 68.1769 31.2399L67.7398 27.673L67.4338 27.7877L67.0295 28.0444C66.9011 28.1373 66.77 28.2274 66.6416 28.3203L65.8658 28.8365L65.0599 29.3199L64.2677 29.8033C64.1256 29.8743 63.9863 29.9426 63.847 30.0136L63.4427 30.2402L63.022 30.4505L62.6176 30.6772L61.779 31.0814L60.9376 31.4692L57.2524 32.6L56.2006 32.8266H55.8783L55.3429 32.9222H54.8266L48.7319 32.2913L48.0052 32.0974L47.3114 31.8871L46.6475 31.614L46.0493 31.3382C45.9482 31.2781 45.8444 31.2207 45.7433 31.1607L45.4674 30.9995L44.9347 30.6444L44.4348 30.2266C44.29 30.0818 44.1452 29.9344 43.9977 29.7896L43.7545 29.5329C43.6835 29.4455 43.6152 29.3608 43.5442 29.2734L43.3338 29.0003L43.1563 28.7245L42.8175 28.11L42.6728 27.7877L42.558 27.4819L42.4296 27.1268L42.3313 26.7717L42.252 26.4003L42.2029 26.0453L42.1373 25.6411L42.1045 25.2532L42.0881 24.8326L42.1045 24.4284H41.9925V24.3165H41.8778L39.6787 29.7869L38.5149 31.8516L36.7201 32.7064C36.6163 32.7447 36.5153 32.7829 36.4142 32.8211H36.0099L35.7012 32.9167L32.2099 32.8211L31.5461 32.66L31.2401 32.5453L30.9642 32.4169L30.6883 32.2558C30.6091 32.1957 30.5271 32.1384 30.4452 32.0783C30.3632 32.0073 30.284 31.939 30.202 31.868L29.9917 31.6577L29.877 31.4638L29.7977 31.2699L29.7158 31.0596L29.6666 30.8493L29.601 30.6062L29.5683 30.3795L29.5355 30.1228V29.8634L29.5191 29.5739L29.5355 29.2844L29.5519 28.9621L29.601 28.6562L29.713 27.9789L29.8906 27.2524L33.2699 16.6502L32.8328 11.8271H32.7208L23.49 24.0106L22.859 24.5923L22.2443 25.174L21.6132 25.723L20.9986 26.2719L19.7037 27.3043L19.6081 27.3535C19.5808 27.3754 19.5535 27.3972 19.5261 27.4191L19.365 27.5474L19.0426 27.8041L18.3952 28.2875L17.7177 28.7381L17.0566 29.1888L16.36 29.6093L15.6825 30.0299L14.9695 30.4178L14.2756 30.8056L12.8523 31.5485L10.4265 32.2913H8.01704C7.93782 32.2858 7.85586 32.2804 7.7739 32.2749L7.54716 32.2422C7.47613 32.2258 7.40785 32.2094 7.33682 32.1958L7.15925 32.1302L6.98169 32.0346L6.82051 31.9199L6.54459 31.6604V31.3546L6.62654 30.9176L6.80412 30.5462L7.0773 30.1747L7.4816 29.8688L7.56355 29.7732L7.65917 29.6913L7.82034 29.5302L7.94874 29.3362L7.99791 29.2407L8.06347 29.1587L8.09626 29.0468L8.14543 28.9512V28.8365H8.16182L8.1946 28.7409L8.211 28.5142V28.3995L8.22739 28.3039L5.99549 24.7371L4.12148 20.4137L2.55342 15.1864L2.42502 14.4927L2.34307 13.8481L2.31029 13.22C2.31575 13.0206 2.32122 12.8212 2.32668 12.6219L2.35946 12.0238L2.44141 11.4748L2.56982 10.9422L2.74739 10.4588C2.84027 10.2485 2.93041 10.041 3.02329 9.83067L3.36205 9.26531L3.71718 8.73276L4.12148 8.26575L4.52578 7.81514L4.99566 7.42728L5.46552 7.07229L5.99823 6.78277L14.7619 2.37746H14.8411L15.0187 2.42667L15.1798 2.52222L15.2918 2.63423L15.4038 2.77892L15.453 2.94008L15.5022 3.15038L15.4858 3.36068L15.4694 3.6338L13.7074 15.0744L13.6282 15.7845L13.5954 16.4946L13.579 17.2047L13.6282 17.9312L13.6773 18.6412L13.7893 19.3841L13.9205 20.1106L14.098 20.8535H14.2128L14.4395 20.7414L14.7947 20.4028L15.1498 20.0314L15.5049 19.6272L15.8928 19.1929L16.248 18.6931L16.6359 18.1934L16.991 17.628L17.3789 17.0626L17.7013 16.4317L18.01 15.8336L18.2695 15.2547C18.346 15.0772 18.4198 14.8996 18.4962 14.7221L18.6574 14.1895L18.8022 13.6898L18.8814 13.2063L18.947 12.7693L18.753 10.4616L19.0617 8.26848L19.2721 7.99264L19.548 7.73593L19.8704 7.49282L20.2419 7.26618L20.6462 7.03948L21.1161 6.84558L21.6324 6.65168L22.1978 6.47412L31.2674 4.98842L34.7286 5.53737C35.1166 5.25334 35.5045 4.9666 35.8924 4.68257L36.2339 4.32751L36.6218 4.03799L37.0097 3.77855L37.4468 3.58465L37.8839 3.4235L38.3538 3.34428L38.84 3.29514L39.3727 3.31154L45.4838 4.2483L51.2397 6.05626V6.17101L50.9173 6.47686L47.1666 11.8353L44.9347 16.2406V16.3553H45.0494L45.3581 16.1286L48.1063 13.0807L48.7374 12.4662C48.9586 12.2614 49.1799 12.0566 49.4012 11.8517C49.882 11.453 50.36 11.0569 50.8408 10.6582L51.6003 10.0464L52.3925 9.46474L54.0917 8.27121C54.3703 8.06638 54.6517 7.86155 54.9331 7.65671L55.8045 7.09136L56.6787 6.5424L57.5829 6.02625C57.8862 5.85419 58.1867 5.68209 58.4872 5.51003L59.4242 5.04302L60.3776 4.59242L61.3638 4.17182C61.514 4.09535 61.667 4.02158 61.8145 3.94511L62.2844 3.75121L63.2214 3.41256L64.1447 3.10671L65.0817 2.8636L65.986 2.6533L66.9093 2.50855L67.8135 2.413L68.7205 2.38019L71.0316 2.57409L72.9056 3.42896L72.485 5.62479L70.6109 11.2072V11.2864H70.7229C72.78 10.762 74.837 10.2404 76.8941 9.71872V9.52482L73.646 8.45964L72.4003 7.52289C72.3729 7.4273 72.3456 7.32897 72.321 7.23338V6.94387L72.3511 6.65442C72.3839 6.55883 72.4167 6.46049 72.4494 6.36491L72.5806 6.07539L72.7909 5.78588L73.034 5.49643L73.34 5.22332L75.6511 3.54638L78.1889 3.20773L80.694 3.31974L98.3825 5.94977L102.988 7.11049L102.876 7.22244L102.871 7.20884Z" fill="#F8F8F7"/>
</svg>
