<svg width="181" height="46" viewBox="0 0 181 46" fill="none" xmlns="http://www.w3.org/2000/svg">
<path d="M11.725 22.0791V26.8288C11.725 26.9078 11.6858 26.9472 11.6073 26.9472C11.5289 26.9472 11.4496 26.9078 11.3694 26.8288C11.1313 26.38 11.0136 25.9037 11.0136 25.3365C10.8959 24.1718 11.0137 22.9162 11.4597 21.8699C11.4597 21.7515 11.5773 21.7515 11.5773 21.7515C11.725 21.9608 11.725 22.0791 11.725 22.0791ZM13.3284 7.52999C13.8921 7.52999 14.3683 7.64838 14.932 7.88793C15.378 10.4266 14.6939 12.3981 14.3683 13.326C14.1303 13.8932 13.9223 14.6118 13.5665 15.179C13.5665 15.2974 13.4488 15.2974 13.4488 15.2974C13.3312 15.2974 13.2109 15.179 13.2109 15.0579V7.52999H13.3284ZM10.9232 35.4912C9.76579 35.2516 8.72608 34.8028 7.71639 34.2053C1.9565 30.4111 0.443268 22.3159 2.52011 16.1923C3.5599 13.0561 5.63676 10.1871 8.48797 8.6644C9.52776 8.09719 10.6853 7.73925 11.695 7.6181V17.5663C11.5773 17.9242 11.4569 18.373 11.249 18.731C11.1313 18.9705 10.8932 19.2982 10.6853 19.5377C10.5676 19.7773 10.3295 19.8957 10.2392 20.1049C9.79315 20.6721 9.31985 21.2696 8.87383 21.958C8.42782 22.6464 8.07214 23.4504 7.95448 24.2571C7.83682 24.4967 7.83678 24.8243 7.71639 25.0639C7.27037 27.6026 8.28002 30.7387 11.1613 31.1875H11.3994C11.3994 31.1875 11.5171 31.1875 11.5171 31.3059V31.6639C11.487 32.8286 11.2489 34.2025 10.9232 35.4884V35.4912ZM14.4558 6.00733C14.1001 5.88893 13.6541 5.88893 13.2984 5.88893V4.39657C13.2984 4.31764 13.3377 4.23779 13.4161 4.15702C13.4945 4.15702 13.5738 4.19649 13.6541 4.27542C13.6541 4.39382 13.7718 4.51497 13.7718 4.51497C13.8894 4.63337 14.0098 4.87292 14.0098 4.96378C14.2479 5.44288 14.3655 5.80082 14.4558 6.01008V6.00733ZM22.2926 15.1487C20.8095 15.9555 19.8873 17.569 19.7697 19.1825C19.652 22.0792 22.0545 23.8138 24.1341 25.1878C24.2518 25.3062 24.4898 25.4273 24.5801 25.5457C25.3818 25.9945 26.4217 26.8316 26.7774 27.5172C26.8951 27.7567 27.0154 28.0844 26.895 28.4423C26.7773 29.2491 25.9756 29.8163 25.1739 29.8163C24.7278 29.8163 24.2545 29.6979 23.896 29.4584C22.8562 29.0096 22.0545 28.2937 21.4908 27.3685C21.1351 26.8013 20.8068 26.0826 20.5715 25.397H19.7697L20.0078 31.2811C18.2866 33.4921 15.8814 35.2241 12.8825 35.3149C13.0001 33.941 13.1206 32.7763 13.1206 32.2972V30.9232C13.1206 30.8443 13.1598 30.7644 13.2383 30.6836C14.2781 30.4441 15.315 29.8769 16.1167 29.1913C17.2742 28.2661 17.9583 26.9803 18.314 25.6063C18.4317 24.9179 18.4317 24.2323 18.314 23.5165C18.1964 23.0676 17.868 22.5913 17.5122 22.2306C17.0662 21.7818 16.4724 21.4238 15.7911 21.3054C15.5531 21.3054 15.3451 21.187 15.107 21.187C14.7513 21.187 14.423 21.187 14.0673 21.3054C13.7116 21.4238 13.5036 21.6634 13.5036 21.8726C13.5036 22.1122 13.6212 22.3215 13.8593 22.561C13.9769 22.6794 14.0974 22.6794 14.2151 22.6794C14.3327 22.7978 14.5708 22.7978 14.6611 22.9189C14.8991 23.1585 15.0167 23.3678 15.107 23.6073C15.2247 23.9653 15.2247 24.4141 15.107 24.772C14.9894 25.2208 14.7513 25.5788 14.423 25.9367C14.1849 26.1763 13.5036 26.7435 13.2655 26.5039C13.1479 26.5039 13.1479 26.3855 13.1479 26.3855V19.5432C13.594 18.7365 13.832 17.9297 14.3054 17.123C14.6611 16.4346 14.9894 15.8371 15.3451 15.2699C16.7105 12.9708 17.422 10.8782 17.63 9.0251C18.9078 9.95026 19.8271 10.8782 20.7164 12.131C21.3704 13.2957 21.9341 14.2208 22.2898 15.1487H22.2926ZM22.6182 30.8626C24.3393 31.4298 25.9427 31.7878 27.5462 31.2206C28.1099 30.981 28.7037 30.6534 29.1498 30.1743C30.1895 29.128 30.7532 27.754 30.7532 26.3497C30.7532 24.1387 29.5958 23.0043 27.9923 21.7184C26.8349 20.7933 25.1136 19.8654 24.0739 18.8218C23.5102 18.2546 23.0341 17.4479 23.7182 16.732C24.1642 16.374 24.8756 16.2832 25.3216 16.374C25.7676 16.4924 26.2411 16.732 26.6871 16.9412C27.8445 17.6296 28.5286 19.2404 29.0923 20.4078H29.8939L29.656 14.6421H28.8542C28.8542 14.6421 28.4082 15.4489 27.9349 15.4489C27.6968 15.4489 27.3711 15.3305 27.0154 15.0909C26.7773 14.9725 26.6596 14.9725 26.4517 14.8514C25.6499 14.4934 24.6102 14.4934 23.6908 14.6118C22.413 11.3848 20.2459 8.72773 17.6054 7.20233C17.3673 5.91647 16.9212 4.78205 16.2399 3.49895C16.0018 3.141 15.8842 2.93174 15.6762 2.5738C15.1727 1.9763 13.6569 -0.113563 12.6472 0.00483481C12.4091 0.00483481 12.2915 0.00483279 12.2012 0.123231C12.1109 0.241629 11.9631 0.241627 11.9631 0.362778C11.9631 0.48393 11.8454 0.602324 11.8454 0.720722V5.91922C5.16612 6.48642 0 13.2984 0 21.6331C0 29.3703 4.60247 35.8519 10.5676 37.1074C10.3295 37.7958 10.1216 38.3933 9.88351 38.9605L9.64542 39.5277C9.2897 40.3344 8.84369 40.9017 8.48797 41.2596L8.13231 41.6176C7.89425 41.736 7.68629 41.9755 7.44824 42.0664C7.21018 42.1848 7.00222 42.3059 6.76416 42.3059H6.40837C6.17031 42.3059 6.05268 42.1875 5.96238 41.948C5.84472 41.8296 5.84481 41.59 5.84481 41.3808C5.96247 41.1412 6.08281 40.932 6.20047 40.8136C6.43853 40.574 6.76411 40.4556 7.11983 40.4556H7.92161C8.03927 40.4556 8.15961 40.4556 8.27727 40.3372C8.51533 40.2188 8.51536 39.9793 8.51536 39.8884C8.51536 39.8095 8.47609 39.7296 8.39765 39.6488C8.27999 39.5304 8.28009 39.4093 8.1597 39.4093C7.80398 39.2909 7.47554 39.1697 7.11983 39.1697C6.67381 39.1697 6.31812 39.1697 5.842 39.2881C5.39599 39.4065 4.92263 39.5277 4.56418 39.737L4.20851 39.9765C3.7625 40.216 3.4067 40.5437 3.16864 40.9017C2.81293 41.3505 2.72266 41.948 2.72266 42.394C2.605 45.8606 6.96665 46.6646 9.16389 45.4999C11.9248 44.1259 12.4884 40.183 12.8441 37.1652C16.8829 37.1047 20.4429 34.566 22.6101 30.8626H22.6182ZM144.246 16.5227C144.364 16.5227 144.484 16.6411 144.602 16.6411C144.72 16.7595 144.84 16.7595 144.958 16.8807C145.075 16.9991 145.075 17.1202 145.196 17.3295C145.196 17.569 145.313 17.6874 145.313 17.8967V27.3658C145.313 27.8146 145.313 28.5305 145.196 28.9793C145.196 29.0977 145.078 29.2188 145.078 29.2188C144.84 29.4584 144.722 29.5768 144.514 29.6676C144.159 29.786 143.951 29.786 143.595 29.786V31.0719H152.203V29.786C151.757 29.786 150.926 29.6676 150.72 29.3372C150.603 29.2188 150.603 29.0977 150.482 28.9793C150.482 28.7397 150.365 28.6213 150.365 28.4121C150.365 28.0541 150.247 27.7237 150.365 27.3658V15.0276H143.595V16.3134C143.685 16.4318 143.921 16.4318 144.249 16.5227H144.246ZM161.496 16.5227C161.942 16.6411 162.059 16.8807 162.059 16.8807C162.298 17.2386 162.415 18.373 162.415 19.0917V26.8288C162.177 27.1868 162.059 27.396 161.851 27.6356C161.613 27.9935 161.288 28.324 160.932 28.5608C160.576 28.8003 160.248 28.9187 159.892 28.9187C159.654 28.9187 159.446 28.8003 159.208 28.6791C158.853 28.4396 158.762 27.9908 158.645 27.5144V15.2671H152.083V16.553C152.321 16.553 152.529 16.6714 152.885 16.6714C153.123 16.7898 153.331 16.911 153.448 17.0294C153.686 17.3873 153.804 18.5217 153.804 19.2404V25.0061C153.804 25.9312 153.804 26.738 153.922 27.6659C153.922 28.1147 154.039 28.4726 154.16 28.8306C154.398 29.6373 154.962 30.3229 155.525 30.802C156.209 31.3692 157.008 31.6088 157.93 31.6088C159.413 31.6088 160.574 31.16 161.611 30.1164C161.966 29.8769 162.174 29.5492 162.412 29.3097V31.1627H168.974V29.998C168.736 29.998 168.528 29.8796 168.172 29.8796C167.934 29.7612 167.726 29.6401 167.609 29.5217C167.371 29.1638 167.253 28.0293 167.253 27.3107V15.0634H160.812V16.3492C161.02 16.4401 161.258 16.4401 161.496 16.5282V16.5227ZM121.387 22.6464V27.0381C121.27 27.1565 121.149 27.2776 120.941 27.396C120.495 27.6356 120.022 27.8449 119.576 27.8449C118.774 27.8449 118.093 27.2776 118.093 26.3525C118.093 25.7853 118.331 25.1878 118.656 24.739C119.22 23.9322 120.14 23.365 120.941 22.8859L121.387 22.6464ZM121.387 28.8912C121.387 29.1307 121.505 29.34 121.625 29.6979C121.746 30.0559 121.981 30.3863 122.309 30.6231C122.665 30.8626 122.873 31.0719 123.349 31.0719C123.795 31.1903 124.151 31.1903 124.507 31.1903C126.348 31.1903 127.593 30.2651 128.515 28.77L127.714 28.0816C127.476 28.3212 127.15 28.77 126.674 28.6488C126.436 28.5305 126.318 28.2909 126.228 27.8421V19.5377C126.228 19.0889 126.228 18.731 126.11 18.2519C126.11 18.1335 125.992 17.8031 125.992 17.6847C125.875 17.2359 125.637 16.8779 125.308 16.52C124.624 15.7132 123.705 15.0276 122.665 14.788C121.981 14.6696 121.387 14.5485 120.706 14.5485C119.428 14.5485 118.301 14.788 117.143 15.1157C116.697 15.2341 116.224 15.4737 115.778 15.6829C115.214 16.0409 114.858 16.3713 114.5 16.7292C114.144 17.0872 114.054 17.4176 113.816 17.7755V17.9242C113.252 19.2101 113.698 20.3445 114.618 21.0301C115.537 21.7184 117.023 21.5973 117.942 20.7905C118.744 19.9838 118.744 18.7007 117.942 17.8939C117.496 17.4451 117.379 17.0872 117.704 16.7292C117.822 16.6108 118.06 16.4897 118.268 16.3713C119.187 16.0133 121.029 15.9225 121.354 17.2964V20.763C120.315 21.2118 119.395 21.6882 118.355 22.2554C117.436 22.7042 116.634 23.1805 115.712 23.7477C114.347 24.6729 113.189 26.0469 113.189 27.8999C113.189 28.8251 113.545 29.6318 114.109 30.199C114.793 30.7662 115.474 31.1242 116.394 31.1242C116.84 31.1242 117.313 31.0058 117.759 30.8847C118.205 30.7635 118.678 30.5267 119.124 30.3174C119.896 30.0476 120.698 29.4804 121.382 28.8829L121.387 28.8912ZM107.851 15.0304V16.3162H108.297C109.216 16.4346 109.662 16.765 109.454 17.6902C109.337 18.6153 108.653 19.9893 108.535 20.4684L106.814 24.6206L104.409 19.0641C104.053 18.0178 103.131 16.765 104.647 16.4043H105.331V15.1185H96.84V16.4318C97.286 16.5502 97.7594 16.6714 98.1178 16.9991C98.3559 17.2386 98.4735 17.357 98.5638 17.5663C98.6815 17.8058 98.802 18.0151 98.9196 18.2546C99.1577 18.7034 99.3656 19.1798 99.6037 19.6286L104.77 31.5179H105.689L110.735 19.2706C110.973 18.7034 111.299 18.2243 111.537 17.6571C111.654 17.5387 111.654 17.4176 111.775 17.2992L112.13 16.9412C112.248 16.8228 112.486 16.7017 112.576 16.5833C112.814 16.4649 113.022 16.4649 113.26 16.3437V15.0579H107.856V15.0276L107.851 15.0304ZM89.712 16.5227C89.8297 16.5227 89.95 16.6411 90.0677 16.6411C90.1854 16.7595 90.3057 16.7595 90.4234 16.8807C90.541 16.9991 90.5411 17.1202 90.6615 17.3295C90.6615 17.569 90.7792 17.6874 90.7792 17.8967V27.3658C90.7792 27.8146 90.7791 28.5305 90.6615 28.9793C90.6615 29.0977 90.5438 29.2188 90.5438 29.2188C90.3057 29.4584 90.1882 29.5768 89.9802 29.6676C89.6245 29.786 89.4164 29.786 89.0607 29.786V31.0719H97.6691V29.786C97.223 29.786 96.5116 29.6676 96.186 29.3372C96.0684 29.2188 96.0683 29.0977 95.9479 28.9793C95.9479 28.7397 95.8303 28.6213 95.8303 28.4121C95.8303 28.0541 95.7127 27.7237 95.8303 27.3658V15.0276H89.0607V16.3134C89.1209 16.4318 89.3563 16.4318 89.7147 16.5227H89.712ZM81.1912 18.7337V26.7104C81.0735 26.95 80.9532 27.1592 80.7452 27.3988C80.5072 27.6383 80.3895 27.8476 80.1815 28.0872C79.9435 28.3267 79.7355 28.4451 79.4975 28.6544C79.0514 28.8939 78.578 29.0123 78.132 28.8939C77.8939 28.8939 77.7763 28.7755 77.686 28.6544C77.3303 28.4148 77.24 28.2056 77.0019 27.8476C76.7639 27.4897 76.6462 27.1593 76.5559 26.6829C76.4383 26.325 76.4383 25.9945 76.3179 25.6366C76.3179 25.2786 76.2002 24.9482 76.2002 24.5903C76.2002 23.7835 76.0826 23.2163 76.0826 22.3793V20.6474C76.2002 19.6011 76.3206 18.6759 76.7666 17.6296C76.8843 17.2717 77.1224 17.0624 77.3303 16.8228C77.7764 16.4649 78.6081 16.4649 79.0513 16.7044C80.1486 17.0018 80.8628 17.9297 81.1884 18.7365L81.1912 18.7337ZM79.8257 9.38305C80.3894 9.38305 80.5099 9.62259 80.6275 9.62259C80.8656 9.74099 81.0735 9.98054 81.1912 10.311C81.3089 10.6689 81.3088 12.0429 81.3088 12.4008V16.3437L80.7452 15.7765C80.3895 15.4186 80.0611 15.2093 79.7054 14.9698C79.1417 14.6118 78.34 14.6118 77.6286 14.6118C76.4711 14.6118 75.3438 14.9698 74.304 15.6581C73.7403 16.0161 73.3845 16.4649 72.9385 16.944C72.4925 17.5112 72.1368 18.1087 71.8988 18.6759C71.2147 20.1683 70.9793 21.6937 70.9793 23.3072C70.9793 25.6063 71.543 28.0569 73.1766 29.7888C74.2164 30.9535 75.5818 31.5207 77.1852 31.5207C78.225 31.5207 79.1444 31.1627 79.9461 30.5955C80.3921 30.2376 80.8656 29.7888 81.3116 29.3097V31.1627H88.0811V29.8769C86.598 29.7585 86.2397 29.4281 86.122 27.9054V7.9788H78.9967V9.26465C79.2649 9.26465 79.5905 9.26465 79.8285 9.38305H79.8257ZM64.2098 22.6464V27.0381C64.0921 27.1565 63.9718 27.2776 63.7638 27.396C63.3178 27.6356 62.8443 27.8449 62.3983 27.8449C61.5966 27.8449 60.9153 27.2776 60.9153 26.3525C60.9153 25.7853 61.1534 25.1878 61.479 24.739C62.0426 23.9322 62.9621 23.365 63.7638 22.8859L64.2098 22.6464ZM64.3275 28.8912C64.3275 29.1307 64.4451 29.34 64.5654 29.6979C64.6831 30.0559 64.9212 30.3863 65.2495 30.6231C65.5779 30.8599 65.8133 31.0719 66.2894 31.0719C66.7354 31.1903 67.0911 31.1903 67.4468 31.1903C69.2884 31.1903 70.5333 30.2651 71.4555 28.77L70.6537 28.0816C70.4156 28.3212 69.9697 28.77 69.614 28.6488C69.3759 28.5305 69.2583 28.2909 69.168 27.8421V19.5377C69.168 19.0889 69.1679 18.731 69.0503 18.2519C69.0503 18.1335 68.9326 17.8031 68.9326 17.6847C68.8149 17.2359 68.5768 16.8779 68.2485 16.52C67.5644 15.7132 66.6451 15.0276 65.6053 14.788C64.9212 14.6696 64.3274 14.5485 63.6461 14.5485C62.3682 14.5485 61.3613 14.788 60.0834 15.1157C59.6374 15.2341 59.1641 15.4737 58.7181 15.6829C58.2721 16.0409 57.7986 16.3713 57.4401 16.7292C57.2021 17.0872 56.9941 17.4176 56.7561 17.7755V17.9242C56.1924 19.2101 56.6385 20.3445 57.5579 21.0301C58.4772 21.7157 59.963 21.5973 60.8824 20.7905C61.6841 19.9838 61.5665 18.7007 60.8824 17.8939C60.4364 17.4451 60.3188 17.0872 60.6445 16.7292C60.7621 16.6108 61.0001 16.4897 61.208 16.3713C62.1274 16.0133 63.969 15.9225 64.2946 17.2964V20.763C63.2548 21.2118 62.3355 21.6882 61.2957 22.2554C60.3763 22.7042 59.5745 23.1805 58.6524 23.7477C57.287 24.6729 56.1296 26.0469 56.1296 27.8999C56.1296 28.8251 56.4853 29.6318 57.0489 30.199C57.6126 30.7662 58.4144 31.1242 59.3338 31.1242C59.7798 31.1242 60.2531 31.0058 60.6991 30.8847C61.1451 30.7635 61.6186 30.5267 62.0646 30.3174C62.8061 30.0476 63.4902 29.4804 64.322 28.8829L64.3275 28.8912ZM177.555 15.1487C177.317 15.0303 177.199 15.0304 176.991 14.9092C176.072 14.5513 174.915 14.4604 173.905 14.6697C171.708 15.1185 170.342 17.0899 170.225 19.1798C170.107 22.0764 172.509 23.8111 174.589 25.185C174.707 25.3034 174.827 25.4246 175.035 25.543C175.837 25.9918 176.876 26.8288 177.232 27.5144C177.35 27.754 177.47 28.0817 177.35 28.4396C177.232 29.2464 176.43 29.8136 175.629 29.8136C175.183 29.8136 174.709 29.6952 174.351 29.4556C173.311 29.0068 172.509 28.2909 171.946 27.3658C171.59 26.7985 171.262 26.0799 171.026 25.3943H170.225L170.463 31.2784H171.264C171.62 30.3532 171.948 30.3532 172.747 30.59C174.469 31.1572 176.072 31.6363 177.793 30.948C178.357 30.7084 178.951 30.3808 179.397 29.9017C180.436 28.8554 181 27.4814 181 26.0771C181 23.8661 179.843 22.7317 178.239 21.4459C177.082 20.5207 175.361 19.5928 174.321 18.5492C173.757 17.982 173.281 17.1753 173.965 16.4594C174.411 16.1014 175.123 16.0106 175.569 16.1014C176.015 16.2198 176.488 16.4594 176.934 16.6687C178.091 17.357 178.775 18.9678 179.339 20.1352H180.141L179.903 14.4604H179.101C179.101 14.4604 178.655 15.2671 178.182 15.2671C178.242 15.5067 177.913 15.3855 177.558 15.1487H177.555ZM150.449 10.1898C150.449 9.50144 150.211 8.90395 149.765 8.33674C148.725 7.29044 147.122 7.17204 145.965 8.0972C144.925 9.1435 144.807 10.8754 145.847 11.9217C146.887 13.0864 148.608 13.0864 149.648 12.0401C150.124 11.6822 150.449 10.9938 150.449 10.187V10.1898ZM129.432 16.4346C129.788 16.553 129.996 16.6741 129.996 16.6741C130.234 16.7925 130.351 17.0321 130.442 17.2414C130.442 17.3598 130.559 17.4809 130.559 17.5993V26.1432C130.559 26.8316 130.559 28.4424 130.442 29.0398C130.324 29.4887 130.086 29.7282 129.402 29.8466C129.284 29.8466 129.046 29.8466 128.838 29.965V31.0113H137.447V29.965C137.208 29.965 136.883 29.965 136.527 29.8466C135.725 29.7282 135.487 29.2794 135.487 28.6819V25.3365C135.487 23.365 135.37 21.3027 136.171 19.4524C136.409 18.8852 136.856 18.2877 137.329 18.1665C137.893 17.927 138.131 18.1665 138.486 18.5245C139.05 18.9733 139.644 19.4496 140.328 19.4496C141.606 19.4496 142.287 18.4033 142.405 17.2386C142.643 15.6251 141.841 14.4604 140.12 14.4604C137.923 14.5788 136.557 15.9527 135.517 17.6874V14.9092H128.956V16.1951C128.986 16.4346 129.194 16.4346 129.432 16.4346ZM42.8339 16.4346C43.1896 16.553 43.3976 16.6741 43.3976 16.6741C43.6356 16.7925 43.7532 17.0321 43.8435 17.2414C43.8435 17.3598 43.9613 17.4809 43.9613 17.5993V25.9037C43.9613 26.592 43.9612 28.2028 43.8435 28.8003C43.7259 29.2491 43.4879 29.4887 42.8038 29.6071C42.5657 29.6071 42.4481 29.6071 42.2401 29.7255V30.8902H50.8485V29.7255C50.6104 29.7255 50.2848 29.7255 49.9291 29.6071C49.1274 29.4887 48.8892 29.0398 48.8892 28.4423V25.0969C48.8892 23.1255 48.7716 21.154 49.5733 19.3312C49.8114 18.764 50.2574 18.1665 50.7308 18.0454C51.2944 17.8058 51.5326 18.0454 51.8883 18.4033C52.452 18.8521 53.0458 19.3285 53.7299 19.3285C55.0077 19.3285 55.689 18.2822 55.8067 17.1175C55.9243 15.5039 55.243 14.3392 53.5218 14.3392C51.3246 14.4576 49.9592 15.8316 48.9194 17.5663V14.788H42.3578V16.0739C42.3879 16.4318 42.5958 16.4318 42.8339 16.4318V16.4346ZM34.4608 13.0589L32.8574 14.6724C32.1733 15.2396 31.5795 15.7187 30.8981 16.2859V16.9743H32.9751V25.0694C32.9751 26.1157 32.975 27.0408 33.0927 27.966C33.6563 31.6694 38.1384 31.9998 40.5436 30.177C41.2276 29.7282 41.7011 29.0123 42.0267 28.2055L40.8693 27.2804C40.7516 27.5199 40.5136 27.8476 40.3056 28.2055C40.0675 28.4451 39.9499 28.5635 39.7419 28.6544C38.9402 29.2216 38.1385 28.7728 37.9004 27.8476C37.7827 27.1592 37.7827 26.2341 37.7827 25.6366V16.8531H41.4631V14.8817H37.7827V9.14625H36.9809C36.2968 10.7598 35.4678 11.8061 34.4581 13.0589H34.4608ZM95.7948 10.1898C95.7948 9.50144 95.5568 8.90395 95.1107 8.33674C94.0709 7.29044 92.4674 7.17204 91.31 8.0972C90.2702 9.1435 90.1525 10.8754 91.1923 11.9217C92.2321 13.0864 93.9532 13.0864 94.993 12.0401C95.5567 11.6822 95.7948 10.9938 95.7948 10.187V10.1898Z" fill="#F8F8F7"/>
</svg>
