<svg width="106" height="21" viewBox="0 0 106 21" fill="none" xmlns="http://www.w3.org/2000/svg">
<path d="M15.9007 1.787V1.45654H10.3633L5.58268 8.12596V1.45654H0.900391V8.64757H10.5518L15.9007 1.787Z" fill="#F8F8F7"/>
<path d="M56.5002 5.28807C58.6283 5.28807 59.7183 6.42423 59.814 8.64735H64.5455C64.4498 2.68534 61.3738 1.03025 57.8252 1.03025C55.8856 0.983823 54.0389 1.59833 52.6211 3.49098L52.479 1.45632H48.2666V8.69376H52.9516C53.1401 6.8011 54.5142 5.24165 56.5002 5.28807Z" fill="#F8F8F7"/>
<path d="M97.0051 5.28807C99.1332 5.28807 100.223 6.42423 100.319 8.64735H105.05C104.955 2.68534 101.879 1.03025 98.3301 1.03025C96.3905 0.983823 94.5438 1.59833 93.126 3.49098L92.9839 1.45632H88.7715V8.69376H93.4565C93.645 6.8011 95.0191 5.24165 97.0051 5.28807Z" fill="#F8F8F7"/>
<path d="M45.759 1.45654H40.5058L38.1865 7.32023L37.7139 8.64757H42.683L45.759 1.45654Z" fill="#F8F8F7"/>
<path d="M34.8752 8.64757L34.3999 7.32023L32.0833 1.45654H26.8301L29.9061 8.64757H34.8752Z" fill="#F8F8F7"/>
<path d="M24.3228 1.40723H19.6377V8.64467H24.3228V1.40723Z" fill="#F8F8F7"/>
<path d="M76.2789 2.02155H85.8375V0.93457H76.2789C74.9076 0.93457 73.5334 1.21862 72.3041 1.83312C69.3237 3.25329 67.335 6.18645 67.1465 9.49656H0.993034V9.7342H0.897461V17.5397H5.58248V10.8212L11.1663 17.5397H16.7966V17.1601L11.0242 10.5371H19.6841V17.5397H24.3691V10.5371H30.7096L33.7392 17.6325H38.8969L41.9265 10.5371H48.267V17.5397H52.9056V10.5371H59.8607V20.3773H64.5922V10.5371H68.2829V10.0155C68.2829 5.61569 71.878 2.02155 76.2789 2.02155ZM36.2934 12.6183L35.4903 10.5371H37.0529L36.2962 12.6183H36.2934Z" fill="#F8F8F7"/>
<path d="M105.05 9.4502H84.3702V10.0647C84.3702 14.5109 80.726 18.1543 76.2786 18.1543C75.0002 18.1543 73.8172 17.8702 72.6835 17.3021L72.4951 17.2066L72.0225 18.2007L72.2109 18.2963C73.4894 18.9108 74.8608 19.2412 76.2814 19.2412C81.1549 19.2412 85.2253 15.3631 85.4138 10.488H88.6783V17.4906H93.3169V10.5372H100.272V20.3774H105.004V9.73424V9.4502H105.05Z" fill="#F8F8F7"/>
</svg>
