<svg width="110" height="28" viewBox="0 0 110 28" fill="none" xmlns="http://www.w3.org/2000/svg">
<path fill-rule="evenodd" clip-rule="evenodd" d="M89.1176 4.6533C89.2624 4.8554 89.4427 5.03564 89.6449 5.18039C90.4589 5.77031 91.5599 5.77031 92.3712 5.18039C92.5734 5.03564 92.7537 4.8554 92.8985 4.6533C93.3328 4.05519 93.4585 3.285 93.229 2.5831C93.076 2.10789 92.7755 1.69277 92.3712 1.40054C91.5599 0.807892 90.4562 0.807892 89.6449 1.40054C89.4427 1.54802 89.2652 1.72556 89.1176 1.92766C88.6833 2.52577 88.5576 3.29594 88.7871 3.99783C88.8608 4.22997 88.9729 4.4512 89.1176 4.6533ZM89.0903 2.68142C89.2078 2.31545 89.4482 1.93856 89.8361 1.65725C90.3497 1.28309 91.0135 1.1766 91.62 1.3705C92.2401 1.57261 92.7263 2.05875 92.9285 2.67872C93.0542 3.07473 93.0542 3.49804 92.9285 3.89405C92.7263 4.51401 92.2401 5.00289 91.62 5.20226C91.2239 5.32789 90.7977 5.32789 90.4016 5.20226C89.7815 5.00016 89.2925 4.51401 89.0931 3.89405C88.9674 3.49804 88.9674 3.07473 89.0931 2.67872L89.0903 2.68142ZM19.7079 4.55772C19.3582 3.94595 18.9157 3.39427 18.3966 2.91906C17.9295 2.493 17.3995 2.14067 16.8286 1.87029C16.2522 1.59991 15.6156 1.40329 14.8535 1.28039C14.0913 1.15749 13.2035 1.14383 12.3211 1.14383H0.282015L0.265625 22.8425H5.92045V6.26466H12.7199C12.8729 6.26466 13.0177 6.33294 13.157 6.36298C13.2963 6.39302 13.4275 6.41759 13.5613 6.45583C13.9793 6.58146 14.3508 6.72622 14.7114 7.18505C14.7852 7.2779 14.8507 7.3844 14.9163 7.5073C14.9819 7.62747 15.0392 7.76676 15.0911 7.92243C15.143 8.07811 15.1895 8.26109 15.2223 8.46592C15.2578 8.70899 15.2742 8.95751 15.2714 9.20331C15.266 9.5365 15.2414 9.8697 15.1949 10.2002C15.1485 10.517 15.0802 10.7737 15.0037 10.9977C14.9354 11.1943 14.8507 11.3855 14.7497 11.5685C14.665 11.7159 14.5694 11.858 14.4573 11.9891C13.7963 12.721 13.1652 12.8084 12.4713 12.8302H7.26997V18.0685H10.9361C11.5015 18.063 12.1162 18.1422 12.6981 18.4399C12.9712 18.5792 13.2253 18.7677 13.4439 18.9862C13.8864 19.4149 14.1295 20.0103 14.2579 20.5538C14.329 20.8215 14.4246 21.0645 14.4246 21.3185V27.9087H19.9756V20.0568C19.9756 19.374 19.8417 18.6939 19.6806 18.1586C19.5167 17.6233 19.3063 17.2383 19.0304 16.9105C18.7545 16.5828 18.4157 16.3179 18.0333 16.124C17.6454 15.9301 17.2219 15.8153 16.7903 15.7853C17.2957 15.6023 17.7765 15.3538 18.2136 15.0397C18.6397 14.7338 19.0085 14.376 19.3282 13.9582C19.6478 13.5403 19.9182 13.0651 20.1996 12.3632C20.4783 11.6641 20.7706 10.741 20.888 9.81511C21.0055 8.88926 20.9509 7.96339 20.7268 7.05666C20.5028 6.1827 20.1586 5.34152 19.7024 4.56315L19.7079 4.55772Z" fill="#F8F8F7"/>
<path fill-rule="evenodd" clip-rule="evenodd" d="M90.4371 3.37773H90.9616C91.1556 3.38592 91.2758 3.35044 91.4288 3.53342C91.4916 3.6454 91.4971 3.77102 91.5162 3.96492C91.5271 4.10421 91.5244 4.18069 91.5626 4.27901H91.8795C91.8467 4.23258 91.8221 4.18341 91.8085 4.12878C91.8003 4.1124 91.7866 3.95399 91.773 3.82017C91.7511 3.61533 91.732 3.40504 91.5408 3.30672C91.5107 3.29033 91.4807 3.27667 91.4479 3.26574C91.6282 3.21385 91.8276 3.00631 91.8358 2.87795C91.8686 2.71135 91.8713 2.42456 91.5899 2.23884C91.4752 2.17603 91.4643 2.18425 91.3605 2.16787C91.273 2.15967 91.1856 2.15693 91.0955 2.15693H90.1612V4.28174H90.4344V3.38046L90.4371 3.37773ZM90.4371 2.3918H91.0627C91.202 2.3918 91.3222 2.39182 91.426 2.44098C91.6719 2.61304 91.5927 2.87248 91.4943 3.01177C91.385 3.12101 91.3413 3.13467 91.1774 3.15379C91.1064 3.15925 90.9999 3.16196 90.8933 3.16196H90.4344V2.38907L90.4371 2.3918ZM45.8841 6.22082C45.1793 6.3328 44.5182 6.51849 43.8489 6.77795C43.1796 7.0374 42.5103 7.37334 41.8765 7.84582C41.2154 8.34834 40.6363 8.9492 40.1637 9.63198C39.6665 10.3421 39.2868 11.1286 39.0354 11.9589C38.7814 12.7973 38.6639 13.6822 38.6858 14.5562C38.7076 15.4301 38.8743 16.2931 39.172 17.0879C39.4698 17.8854 39.8987 18.6146 40.232 19.1116C40.5652 19.6087 40.8056 19.8709 41.046 20.1085C41.2864 20.3461 41.5241 20.5592 41.7891 20.7694C42.0541 20.9797 42.3409 21.1846 42.8162 21.4468C43.2916 21.7089 43.9472 22.023 44.6001 22.2606C45.9332 22.7577 47.3128 22.8669 48.7334 22.8396H56.3332V18.0301H48.7197C48.0477 18.0383 47.4166 17.9946 46.7938 17.8253C46.4823 17.7461 46.1818 17.6368 45.8895 17.5003C45.4005 17.2654 44.9853 16.9049 44.6821 16.4543C44.5264 16.2221 44.4007 15.9709 44.3078 15.706C44.1057 15.127 44.0428 14.4251 44.2368 13.7805C44.3297 13.4555 44.4772 13.1305 44.6712 12.8438C45.0318 12.2839 45.6491 11.836 46.1928 11.6284C46.7009 11.4318 47.0533 11.429 47.4631 11.3908C47.6652 11.3744 47.881 11.3499 48.0968 11.3499C49.1267 11.3499 50.1621 11.3389 51.1865 11.3608L51.1701 11.3963L50.6456 12.2757C50.1293 13.1469 49.0748 14.8839 48.0559 16.6209C49.8015 16.64 51.5498 16.6345 53.2955 16.64L56.3332 11.2952V6.10064H48.0804C47.3347 6.10064 46.5889 6.10885 45.8813 6.22356L45.8841 6.22082ZM92.0871 9.39164C91.538 8.63239 90.8715 7.966 90.112 7.41705C89.3635 6.87629 88.5331 6.45842 87.6534 6.17712C85.0118 5.33867 82.1269 5.7975 79.8759 7.41705C78.357 8.51222 77.2288 10.0662 76.6579 11.8524C76.3847 12.7127 76.2454 13.6085 76.2454 14.5097C76.2427 17.32 77.5921 19.961 79.8759 21.6024C81.3648 22.6785 83.1541 23.2575 84.9926 23.2547C86.8311 23.2547 88.6232 22.6785 90.112 21.6024C94.0295 18.7784 94.9173 13.3162 92.0926 9.39984C92.0926 9.39984 92.0899 9.39437 92.0871 9.39164ZM87.8856 16.5936C87.6616 16.9022 87.3857 17.178 87.0797 17.402C86.7737 17.6232 86.435 17.7925 86.0772 17.9072C84.9899 18.2431 83.8753 18.0847 82.9083 17.402C82.2881 16.9568 81.8265 16.3204 81.5943 15.5912C81.2473 14.5152 81.4358 13.3381 82.0996 12.4232C82.5476 11.8032 83.1814 11.3417 83.9108 11.1095C84.9871 10.7654 86.1618 10.9538 87.0797 11.6148C87.6971 12.0627 88.1588 12.6963 88.391 13.4255C88.727 14.5125 88.5686 15.6268 87.8856 16.5936ZM28.1492 6.22356C27.4444 6.33553 26.7833 6.52123 26.1167 6.78068C25.4502 7.04014 24.7781 7.37607 24.1444 7.84855C23.4833 8.35108 22.9041 8.95193 22.4315 9.63471C21.4235 11.0767 20.9072 12.8028 20.9563 14.5589C20.9782 15.4247 21.1421 16.2795 21.4426 17.0906C21.7404 17.8881 22.1693 18.6173 22.5025 19.1144C22.8358 19.6114 23.0762 19.8736 23.3139 20.1112C23.5516 20.3488 23.7919 20.5619 24.0542 20.7722C24.3165 20.9825 24.606 21.1873 25.0814 21.4495C25.5567 21.7117 26.2123 22.0257 26.8652 22.2634C27.5181 22.501 28.1683 22.6566 28.8567 22.7522C29.5451 22.8478 30.2745 22.8396 31.0012 22.8396H38.5628V18.0383L30.9793 18.0492C30.3073 18.0492 29.6763 17.9946 29.0534 17.8308C28.742 17.7516 28.4387 17.6423 28.1492 17.5058C27.8978 17.3829 27.6629 17.2272 27.4553 17.0415C27.051 16.681 26.745 16.2221 26.5702 15.7087C26.3708 15.1434 26.2997 14.4087 26.4964 13.7368C26.5893 13.4064 26.7396 13.095 26.9335 12.811C27.2941 12.2593 27.9088 11.8059 28.4552 11.5984C28.9633 11.4017 29.3157 11.399 29.7254 11.3608C29.9276 11.3444 30.1434 11.3198 30.3565 11.3198H33.1784L30.4139 16.6099H35.566L38.5874 11.2624L38.5929 6.10337H30.3401C29.5943 6.10337 28.8485 6.11158 28.1465 6.22356H28.1492ZM108.565 12.7618C109.027 12.2292 109.379 11.6147 109.603 10.9484C109.827 10.282 109.879 9.56097 109.879 8.84815V6.34098H104.951C104.981 7.07291 104.932 7.81031 104.826 8.38657C104.719 8.96011 104.561 9.37523 104.345 9.74939C104.129 10.1208 103.861 10.4568 103.55 10.749C102.913 11.3553 102.162 11.6858 101.424 11.6885L99.9411 11.6967L99.9138 2.146L94.7752 2.1542L94.7807 22.8423H99.9465V16.711H101.862C102.244 16.711 102.624 16.8148 102.973 16.9623C103.326 17.1097 103.648 17.3173 103.899 17.5932C104.148 17.869 104.323 18.2104 104.451 18.5244C104.58 18.8385 104.662 19.1281 104.733 19.5787C104.804 20.0293 104.886 20.6438 104.886 21.261V22.8396H109.819L109.825 19.7453C109.825 19.1362 109.778 18.5245 109.705 18.0329C109.634 17.5413 109.535 17.1698 109.426 16.8503C109.317 16.5307 109.196 16.2658 109.071 16.0364C108.849 15.6267 108.56 15.2608 108.213 14.9522C108.052 14.8129 107.882 14.69 107.661 14.5425C107.44 14.395 107.167 14.2284 106.888 14.0673C107.522 13.7396 108.09 13.2971 108.563 12.7618H108.565ZM74.8112 11.5574C74.7101 11.2187 74.5872 10.8856 74.4424 10.5633C74.0436 9.71665 73.5163 8.91642 72.4372 8.09163C72.093 7.8349 71.7297 7.60822 71.35 7.41432C70.891 7.18217 70.413 6.98553 69.924 6.82986C69.3804 6.65506 68.763 6.50486 68.0445 6.39835C67.326 6.29184 66.5147 6.22902 65.7006 6.22902H63.9495V11.4208L66.7879 11.44C67.0692 11.44 67.3533 11.4727 67.6183 11.5328C67.886 11.5929 68.1401 11.6803 68.3778 11.795C68.8613 12.0272 69.2765 12.3849 69.5825 12.8274C70.0578 13.5238 70.2299 14.3541 70.0578 15.1679C69.9513 15.665 69.7136 16.1238 69.3694 16.498C69.0115 16.8831 68.5635 17.1726 68.0663 17.3392C67.7986 17.4293 67.5036 17.4894 67.184 17.5959C66.8643 17.7024 66.5638 18.0274 66.1896 18.0274H62.6437V2.14873H57.5516V22.8369H64.8401C66.1432 22.8396 67.3588 22.7413 68.5635 22.4491C69.2328 22.2988 69.8803 22.0612 70.4867 21.7417C71.2598 21.3238 71.9674 20.8022 72.593 20.185C73.2431 19.5404 73.7868 18.7976 74.1965 17.9892C74.6063 17.1808 74.8904 16.3068 75.0161 15.4001C75.1417 14.4961 75.1144 13.5648 75.0571 12.9148C74.9997 12.2675 74.9123 11.8988 74.8085 11.552L74.8112 11.5574Z" fill="#F8F8F7"/>
</svg>
