<svg width="77" height="21" viewBox="0 0 77 21" fill="none" xmlns="http://www.w3.org/2000/svg">
<path fill-rule="evenodd" clip-rule="evenodd" d="M0 20.999L4.98521 5.05422H9.89106L4.98521 20.999H0ZM5.42843 3.52626L6.66242 0H11.5683L10.2523 3.52626H5.42569H5.42843ZM7.61733 16.7881C7.61733 16.7881 11.82 17.1527 12.2305 16.4819C12.5862 15.903 12.6655 15.5969 12.3673 15.1265C12.0663 14.6534 9.12218 12.4436 9.45052 9.89141C9.77885 7.34202 10.0525 6.98576 12.0389 5.4912C13.3933 4.47255 20.1515 4.77033 20.1515 4.77033L18.819 8.7865C18.819 8.7865 15.5521 8.70299 15.1143 8.84215C14.6766 8.98131 13.8913 9.20397 13.946 10.1697C14.0007 11.1355 17.1582 12.5799 17.2403 15.5691C17.3224 18.5582 15.4564 19.6519 14.7067 20.1362C13.9734 20.6094 12.8269 20.9712 11.4124 20.9406C9.99779 20.9128 6.2657 20.9962 6.2657 20.9962L7.61459 16.7853L7.61733 16.7881ZM50.725 1.59475L49.6114 4.91785H52.8783L51.5732 9.10096H48.1421C48.1421 9.10096 46.2898 14.6952 45.9614 15.8029C45.6331 16.9106 46.4238 16.9356 46.4238 16.9356H48.9547L47.7043 20.9795C47.7043 20.9795 45.116 21.0157 43.8382 20.9795C42.8887 20.9517 41.7997 19.9303 41.4167 19.4294C41.0336 18.9284 40.6259 17.623 40.9242 16.4624C41.2251 15.3019 45.7698 1.59475 45.7698 1.59475H50.725ZM75.1202 9.28463C75.1202 9.28463 73.3008 9.15108 72.562 9.53516C71.826 9.91923 71.0927 10.3673 70.8738 11.0019C70.6549 11.6365 67.6835 20.9684 67.6835 20.9684L62.7284 20.9962C62.7284 20.9962 65.6943 11.4722 66.5671 8.95066C67.4399 6.42911 70.135 5.15724 71.5742 4.96242C73.0162 4.7676 76.6388 4.7954 76.6388 4.7954L75.1148 9.28463H75.1202ZM74.6633 11.2134C74.6633 11.8702 75.1859 12.4018 75.8344 12.4018C76.4774 12.4018 77 11.8675 77 11.2134C77 10.5594 76.4774 10.0306 75.8344 10.0278C75.1887 10.0278 74.6661 10.5594 74.6633 11.2134ZM76.7784 11.2134C76.7811 11.7422 76.3625 12.1764 75.8399 12.1792C75.8399 12.1792 75.8344 12.1792 75.8317 12.1792C75.3091 12.182 74.885 11.7534 74.8822 11.2246C74.8822 11.2218 74.8822 11.219 74.8822 11.2134C74.8822 10.6818 75.3036 10.2505 75.8235 10.2505C75.8235 10.2505 75.8289 10.2505 75.8317 10.2505C76.3515 10.2505 76.7756 10.6763 76.7784 11.2078C76.7784 11.2078 76.7784 11.2106 76.7784 11.2134ZM76.4118 11.8591L76.108 11.3191C76.3296 11.3024 76.45 11.2078 76.45 10.9712C76.45 10.8377 76.4199 10.7096 76.305 10.6401C76.212 10.5816 76.0697 10.5816 75.963 10.5816H75.3528V11.8619H75.5991V11.3219H75.8454L76.1272 11.8619H76.4144L76.4118 11.8591ZM75.9657 11.1271H75.5963V10.7653H75.9001C76.0232 10.7653 76.2038 10.7653 76.2038 10.9351C76.2038 11.1049 76.1053 11.1271 75.9657 11.1271ZM30.8306 16.7881C30.8306 16.7881 35.0333 17.1527 35.4437 16.4819C35.7994 15.903 35.8815 15.5969 35.5805 15.1265C35.2795 14.6534 32.3355 12.4436 32.6638 9.89141C32.9922 7.34202 33.2411 6.98576 35.2522 5.4912C36.612 4.4809 43.3648 4.77033 43.3648 4.77033L42.0323 8.7865C42.0323 8.7865 38.7654 8.70299 38.3276 8.84215C37.8898 8.98131 37.1045 9.20397 37.1593 10.1697C37.214 11.1355 40.3715 12.5799 40.4536 15.5691C40.5356 18.5582 38.6696 19.6519 37.9199 20.1362C37.1866 20.6094 36.0402 20.9712 34.6256 20.9406C33.211 20.9128 29.479 20.9962 29.479 20.9962L30.8279 16.7853L30.8306 16.7881ZM23.1777 11.642C23.8864 9.73 25.1422 7.99045 26.368 8.37453C27.591 8.7586 27.342 11.0575 26.554 13.1922C25.766 15.3241 24.6743 17.2083 23.3418 16.6545C22.0093 16.1006 22.469 13.5541 23.1777 11.642ZM18.4141 10.949C19.6645 7.70935 22.0914 3.8881 27.2353 4.11075C32.382 4.33341 32.9265 9.72997 31.1562 14.3278C29.3859 18.9284 25.9521 21.6447 21.7877 20.8682C17.6261 20.0917 17.1609 14.1914 18.4113 10.9517L18.4141 10.949ZM58.3205 15.121C57.8553 16.5321 56.4681 16.4541 56.3313 16.4263C56.1945 16.3985 55.4065 16.006 55.3272 15.3436C55.2451 14.6812 55.3873 13.6876 55.6281 12.9362C55.8689 12.1875 56.3067 11.2747 56.7964 10.6624C57.2889 10.0528 57.9921 9.55742 58.4299 9.39043C58.8677 9.22344 60.2275 9.22341 60.2275 9.22341C60.2275 9.22341 58.7856 13.7072 58.3205 15.1182V15.121ZM57.3957 20.91V20.1334C57.3957 20.1334 55.1876 21.6002 53.1738 20.7151C51.16 19.8301 49.9671 16.9523 50.3447 14.3751C50.7223 11.7978 52.0329 8.02944 54.862 6.31222C57.6912 4.595 59.8473 4.73414 60.8815 4.62281C61.913 4.51149 66.6492 4.67853 66.6492 4.67853L61.4506 20.9072H57.3957V20.91Z" fill="#F8F8F7"/>
</svg>
