<svg width="81" height="36" viewBox="0 0 81 36" fill="none" xmlns="http://www.w3.org/2000/svg">
<path d="M76.5121 6.03284C73.2585 2.5534 67.6528 1.92525 63.719 4.67275C58.7007 8.17403 57.6927 15.0646 61.4489 19.855C63.4895 22.4578 66.5492 23.8069 69.8356 23.6458C72.9717 23.4928 75.5068 22.1191 77.4382 19.5191C77.4683 19.4781 77.5092 19.459 77.5584 19.459L80.3421 19.4481C80.3694 19.4481 80.3885 19.4699 80.3885 19.4945C80.3885 19.5027 80.3885 19.5109 80.3831 19.5164C77.613 24.5771 72.3434 26.7538 66.7459 25.7788C61.0883 24.7928 57.0316 19.8113 56.6656 14.2152C56.0864 5.35824 64.0332 -1.29468 72.7887 1.02676C76.1925 1.93076 78.9352 4.22759 80.5934 7.34652C80.6043 7.36563 80.5961 7.38747 80.577 7.39839C80.5715 7.40112 80.5634 7.40386 80.5579 7.40386H77.7332C77.6867 7.40386 77.6485 7.38475 77.6184 7.34652C77.266 6.88496 76.8946 6.44523 76.5066 6.0301L76.5121 6.03284Z" fill="#F8F8F7"/>
<path d="M18.8299 35.1025H17.5923L17.0733 34.5263C17.0487 34.4962 17.005 34.4935 16.975 34.5181C16.9531 34.5372 16.9449 34.5672 16.9531 34.5945L17.0787 35.0233C17.0842 35.0397 17.0732 35.0588 17.0569 35.0643C17.0487 35.0643 17.0377 35.0643 17.0295 35.0615C16.9394 35.0069 16.8902 34.9141 16.882 34.7802C16.8574 34.3651 16.7946 33.9309 16.699 33.483C16.5023 32.5817 15.8384 31.6804 15.6636 30.8993C15.2047 28.8237 14.7184 26.7535 14.2075 24.6888C13.8579 23.2795 13.6667 21.843 13.6312 20.3846C13.6284 20.2617 13.6066 20.2589 13.5657 20.3736C12.6041 23.1239 10.9977 26.139 8.91879 28.272C8.44346 28.7609 7.71138 29.5966 6.98198 30.1483C6.67875 30.3804 6.48208 30.6781 6.18432 30.9103C5.11618 31.7405 4.09718 32.6118 3.00446 33.3956C2.75313 33.5731 2.65751 33.8653 2.37886 33.9964C2.00734 34.174 1.68771 34.4252 1.42273 34.7448C1.39268 34.7803 1.35172 34.8021 1.30255 34.8076C1.10312 34.8294 0.92831 34.9032 0.77806 35.0343C0.739815 35.067 0.720703 35.0588 0.720703 35.0069C0.720703 34.9878 0.72892 34.9714 0.742579 34.9605C1.31353 34.4334 1.88719 33.9855 2.36526 33.371C2.74498 32.8794 3.12468 32.3905 3.50987 31.9044C3.96335 31.3308 4.66264 31.3036 4.82655 30.4433C4.83475 30.3996 4.86761 30.3613 4.90858 30.3422L5.23632 30.2111C5.27183 30.1974 5.3019 30.1701 5.32102 30.1346L5.61608 29.5639C5.64067 29.5147 5.68436 29.4792 5.73626 29.4655C6.16789 29.3317 6.38647 29.0285 6.3892 28.5588C6.3892 28.5233 6.36183 28.4959 6.32904 28.4959C6.30719 28.4959 6.28808 28.5042 6.27716 28.5205C6.11871 28.7363 5.95752 28.9466 5.78815 29.146C5.24725 29.7878 5.20902 29.7632 5.66797 29.0695C5.80183 28.8674 6.0313 28.6244 6.35092 28.3376C6.98197 27.7777 7.44359 27.1086 7.7359 26.3302C7.87249 25.9642 8.00641 25.6693 8.143 25.4426C10.0471 22.2281 10.782 18.5793 11.8638 15.0452C12.0741 14.3625 12.238 13.6688 12.3582 12.9669C12.6205 11.4457 12.5084 9.64856 12.5986 8.01263C12.6532 6.99392 12.9291 6.13911 13.4236 5.44268C13.6531 5.12041 13.746 4.77084 13.5766 4.43765C13.2898 3.87777 13.3743 3.65929 13.4563 2.94647C13.53 2.2992 13.7487 1.49352 14.1967 0.96642C14.3306 0.810747 14.5162 0.709667 14.7539 0.663238C15.9996 0.417438 16.7891 0.862579 17.1197 1.99872C17.371 2.85902 17.2809 4.34478 16.934 5.1723C16.8111 5.46726 16.546 5.724 16.3439 6.00804C16.3166 6.04627 16.3002 6.09543 16.3029 6.14459C16.3139 7.59208 16.2619 9.0368 16.1499 10.4788C16.0789 11.4074 16.0734 12.4316 16.1253 13.1935C16.3711 16.7303 16.6716 20.2617 17.024 23.7875C17.1169 24.7188 17.2454 25.6666 17.4121 26.6361C17.759 28.6571 18.1086 30.6781 18.4582 32.6964C18.5074 32.9859 18.5101 33.2699 18.5839 33.5458C18.7178 34.0565 18.7998 34.5782 18.8299 35.1053V35.1025ZM3.38688 32.8056C3.3623 32.7701 3.20657 32.8357 3.03447 32.9504C2.86237 33.0651 2.74217 33.188 2.76676 33.2235C2.79134 33.259 2.94707 33.1935 3.11917 33.0788C3.29127 32.964 3.41147 32.8411 3.38688 32.8056Z" fill="#F8F8F7"/>
<path d="M49.2864 4.23578L40.7386 25.4892C40.7167 25.5438 40.6758 25.5739 40.6157 25.5739H38.586C38.5368 25.5739 38.4958 25.5439 38.4794 25.5002L29.907 4.23031C29.866 4.12926 29.8442 4.13474 29.8442 4.24398V25.4865C29.8442 25.5438 29.8169 25.5739 29.7568 25.5739H27.4867C27.4266 25.5739 27.3965 25.5438 27.3965 25.4838V1.26703C27.3965 1.20422 27.4265 1.17415 27.4893 1.17415L30.9124 1.16602C31.0134 1.16602 31.1062 1.22878 31.1444 1.32164L39.5557 22.2365C39.5639 22.2583 39.5912 22.272 39.6131 22.2638C39.624 22.2584 39.6349 22.2502 39.6404 22.2365L48.0763 1.2561C48.0982 1.19874 48.1418 1.16875 48.2046 1.16875H51.7451C51.7778 1.16875 51.8024 1.19332 51.8024 1.22609V25.4784C51.8024 25.5302 51.7614 25.5739 51.7068 25.5739H49.4149C49.3766 25.5739 49.3438 25.5439 49.3438 25.5056L49.3492 4.24938C49.3492 4.23299 49.3383 4.21937 49.3219 4.21664C49.3082 4.21664 49.2947 4.22486 49.2892 4.23851L49.2864 4.23578Z" fill="#F8F8F7"/>
<path d="M40.9795 33.232C41.0805 33.0545 41.1242 32.7568 41.116 32.3389C41.0969 31.5824 41.0861 30.8259 41.0834 30.0639C41.0834 30.012 41.1079 29.9874 41.1598 29.9902H41.3975C41.4576 29.9929 41.5095 30.0421 41.5095 30.1049C41.5287 30.9188 41.5341 31.7299 41.5205 32.541C41.5041 33.527 41.0286 34.2562 39.9605 34.1797C39.1054 34.1196 38.6629 33.6253 38.6574 32.7732C38.652 31.9129 38.652 31.0362 38.6574 30.1404C38.6574 30.0503 38.7312 29.9766 38.8214 29.9766C38.8295 29.9766 38.8378 29.9766 38.846 29.9766L38.9634 29.9956C39.0235 30.0066 39.0564 30.0421 39.0564 30.1022C39.07 30.8505 39.0755 31.5988 39.0755 32.3499C39.0755 32.7869 39.029 33.202 39.3486 33.5243C39.8486 34.0295 40.6353 33.8438 40.9768 33.2348L40.9795 33.232Z" fill="#F8F8F7"/>
<path d="M57.7581 32.7375C57.7581 34.0429 59.6922 34.2642 59.7359 32.8413C59.7632 31.9236 59.7796 31.0032 59.7823 30.0828C59.7823 30.0337 59.8233 29.9927 59.8725 29.9927C59.8725 29.9927 59.8726 29.9927 59.8753 29.9927L60.0911 29.9981C60.1567 29.9981 60.1894 30.0337 60.1894 30.0965C60.214 30.9459 60.1894 31.7925 60.2058 32.6392C60.2495 34.652 57.5477 34.6383 57.3565 33.0297C57.2937 32.5108 57.2909 31.5303 57.351 30.0883C57.3538 30.0255 57.3865 29.9927 57.4493 29.9927H57.6597C57.7225 29.9954 57.7553 30.0282 57.7553 30.091C57.7553 30.9732 57.7554 31.8553 57.7581 32.7347V32.7375Z" fill="#F8F8F7"/>
<path d="M31.3553 30.6811L30.0577 33.994C30.0386 34.0431 30.0032 34.0814 29.9567 34.1059C29.76 34.2043 29.6371 34.0923 29.566 33.9148C29.1344 32.8223 28.7028 31.7217 28.2684 30.6046C28.263 30.591 28.2493 30.5856 28.2356 30.5883C28.2247 30.591 28.2192 30.6019 28.2192 30.6128V34.0459C28.2192 34.1005 28.1893 34.1278 28.1346 34.1251L27.8832 34.1196C27.8149 34.1196 27.7822 34.0841 27.7822 34.0158L27.7877 30.0748C27.7877 30.0229 27.8123 29.9983 27.8615 30.0011L28.3341 30.0065C28.3887 30.0065 28.4378 30.0393 28.4569 30.0912L29.7737 33.456C29.7847 33.4833 29.8174 33.4942 29.8447 33.4832C29.8583 33.4778 29.8666 33.4669 29.872 33.456L31.227 30.0912C31.2489 30.0366 31.2898 30.0093 31.3472 30.0065L31.787 29.9956C31.8471 29.9956 31.8771 30.0229 31.8771 30.083L31.8607 34.0431C31.8607 34.0978 31.8334 34.1251 31.776 34.1251H31.5411C31.4674 34.1223 31.4291 34.0841 31.4291 34.0077V30.6948C31.4291 30.6729 31.41 30.6538 31.3881 30.6538C31.3717 30.6538 31.3581 30.6647 31.3527 30.6784L31.3553 30.6811Z" fill="#F8F8F7"/>
<path d="M49.6558 30.4924C49.6531 31.6367 49.6476 32.781 49.6394 33.9254C49.6394 34.0865 49.5575 34.1548 49.3936 34.1357C49.3034 34.1248 49.2324 34.0482 49.2324 33.9554L49.1914 30.4705C49.1914 30.4241 49.1668 30.3995 49.1204 30.3995L48.0822 30.3886C48.044 30.3886 48.0113 30.3586 48.0058 30.3231L47.9758 30.151C47.9676 30.0963 48.003 30.0472 48.0577 30.0363C48.0631 30.0363 48.066 30.0363 48.0714 30.0363C48.9128 30.0199 49.8088 30.0663 50.642 29.998C50.7622 29.9871 50.8415 30.039 50.877 30.1455C50.9098 30.2411 50.8578 30.3476 50.7621 30.3804C50.743 30.3859 50.724 30.3913 50.7021 30.3913L49.7377 30.4049C49.6804 30.4049 49.653 30.435 49.653 30.4896L49.6558 30.4924Z" fill="#F8F8F7"/>
<path d="M67.2592 33.09C67.1472 33.3631 67.038 33.6389 66.926 33.9148C66.8413 34.1196 66.7073 34.2043 66.5024 34.1059C66.456 34.0841 66.4424 34.0486 66.4615 34.0022L68.0378 30.154C68.106 29.9902 68.2946 29.9137 68.4585 29.982C68.5377 30.0148 68.6006 30.0803 68.6333 30.1595L70.1549 34.0077C70.1713 34.0486 70.1521 34.095 70.1112 34.1114C69.9281 34.1797 69.7669 34.1415 69.685 33.9448C69.5675 33.669 69.4555 33.3877 69.349 33.1036C69.3298 33.0545 69.2807 33.019 69.2288 33.019L67.3629 33.0244C67.3192 33.0244 67.281 33.0517 67.2646 33.09H67.2592ZM67.464 32.5984C67.4559 32.6229 67.4641 32.6502 67.4914 32.6612C67.4969 32.6612 67.5023 32.6639 67.5078 32.6639H69.095C69.1223 32.6639 69.1414 32.6421 69.1441 32.6175C69.1441 32.612 69.1441 32.6066 69.1414 32.6011L68.3464 30.5883C68.3382 30.5637 68.311 30.55 68.2864 30.561C68.2727 30.5664 68.2618 30.5774 68.259 30.5883L67.464 32.6011V32.5984Z" fill="#F8F8F7"/>
<path d="M76.913 33.7511L78.3226 33.7566C78.4128 33.7566 78.4838 33.8303 78.4838 33.9177C78.4838 33.9478 78.4756 33.9778 78.4592 34.0024C78.4264 34.0543 78.3745 34.0789 78.3062 34.0816C77.7025 34.0953 77.1015 34.1062 76.5032 34.1144C76.4513 34.1144 76.4268 34.0898 76.4268 34.0406C76.4104 32.8007 76.4131 31.5636 76.4322 30.3264C76.4322 30.239 76.4486 30.1679 76.4732 30.1106C76.5114 30.0205 76.6153 29.9795 76.7054 30.0177C76.771 30.045 76.812 30.1079 76.812 30.1789L76.8284 33.661C76.8284 33.7102 76.8666 33.7484 76.9158 33.7484L76.913 33.7511Z" fill="#F8F8F7"/>
</svg>
