<svg width="59" height="38" viewBox="0 0 59 38" fill="none" xmlns="http://www.w3.org/2000/svg">
<path d="M36.8343 9.60046C38.0208 7.55686 39.228 5.55485 40.4541 3.59865C40.5623 3.42592 40.5978 3.23029 40.5603 3.01178C40.3563 1.84638 38.0062 2.09196 37.2609 2.30007C36.445 2.52483 35.8475 3.0118 35.4666 3.7589C34.7297 5.20524 34.0157 6.66198 33.3204 8.12497C31.0723 12.6076 29.1135 17.1693 27.4399 21.808C26.7239 23.6476 25.9371 25.7474 26.062 27.6766C26.1598 29.2332 26.6886 31.7284 27.9354 32.8314C28.0395 32.925 28.1893 32.9458 28.3163 32.8834C28.487 32.8002 28.5557 32.5941 28.4724 32.4235C27.1589 29.7452 28.6952 25.7703 29.9025 23.1627C32.0382 18.5303 34.3509 14.0082 36.8384 9.60046H36.8343ZM33.3288 8.27272C33.3288 8.27272 33.335 8.27897 33.3371 8.28105C33.335 8.27897 33.3309 8.27688 33.3288 8.27272ZM33.3538 8.29355C33.3538 8.29355 33.3621 8.29772 33.3663 8.2998C33.3621 8.29772 33.3579 8.29563 33.3538 8.29355ZM33.3808 8.31016C33.3808 8.31016 33.3892 8.31433 33.3933 8.31641C33.3892 8.31641 33.385 8.31224 33.3808 8.31016ZM33.4412 8.32683C33.4412 8.32683 33.4516 8.32683 33.4579 8.32683C33.4516 8.32683 33.4474 8.32683 33.4412 8.32683ZM33.408 8.32058C33.408 8.32058 33.4204 8.32266 33.4245 8.32474C33.4183 8.32474 33.4121 8.32474 33.408 8.32058ZM33.5328 8.306C33.5328 8.306 33.5411 8.29979 33.5453 8.29771C33.5432 8.29771 33.539 8.30183 33.5369 8.30391C33.5369 8.30391 33.5328 8.30391 33.5328 8.306ZM33.4724 8.32683C33.4724 8.32683 33.4829 8.32682 33.487 8.32474C33.4829 8.32474 33.4766 8.32683 33.4724 8.32683ZM33.5037 8.32058C33.5037 8.32058 33.512 8.31641 33.5182 8.31433C33.5141 8.31433 33.5099 8.3185 33.5037 8.32058ZM33.5578 8.29146C33.5578 8.29146 33.5661 8.28313 33.5703 8.27897C33.5661 8.28313 33.5619 8.2873 33.5578 8.29146ZM35.2439 7.69417C35.2439 7.69417 35.2522 7.70251 35.2564 7.70459C35.2522 7.70043 35.2481 7.69834 35.2439 7.69417ZM35.2709 7.71292C35.2709 7.71292 35.2793 7.71709 35.2856 7.71917C35.2814 7.71709 35.2751 7.715 35.2709 7.71292ZM35.3001 7.72542C35.3001 7.72542 35.3105 7.72751 35.3146 7.72959C35.3105 7.72959 35.3043 7.7275 35.3001 7.72542ZM35.3293 7.73162C35.3293 7.73162 35.3396 7.73162 35.3438 7.73162C35.3396 7.73162 35.3334 7.73162 35.3293 7.73162ZM35.3605 7.73162C35.3605 7.73162 35.3708 7.73162 35.375 7.73162C35.3708 7.73162 35.3646 7.73162 35.3605 7.73162ZM35.4208 7.71501C35.4208 7.71501 35.4271 7.71084 35.4312 7.70876C35.4312 7.70876 35.4291 7.71084 35.427 7.71084C35.425 7.71084 35.4229 7.71084 35.4208 7.71292V7.71501ZM35.3917 7.72542C35.3917 7.72542 35.402 7.72334 35.4062 7.72125C35.402 7.72125 35.3979 7.72542 35.3917 7.72542ZM35.2376 7.68168C35.2376 7.68168 35.2189 7.66088 35.2106 7.64631C35.2168 7.6588 35.2272 7.67127 35.2376 7.68168ZM33.5973 8.23944C33.5973 8.23944 33.6057 8.22068 33.6078 8.21027C33.6057 8.22068 33.6015 8.22903 33.5973 8.23944ZM33.5806 8.26438C33.5806 8.26438 33.587 8.25402 33.5911 8.24985C33.589 8.25402 33.5848 8.26022 33.5806 8.26438Z" fill="#F8F8F7"/>
<path d="M28.2078 15.1736C28.2203 15.0903 28.1869 15.0654 28.1099 15.1029C27.3626 15.4504 26.58 15.6855 25.7619 15.8083C25.7411 15.8125 25.7203 15.8083 25.7015 15.8041C25.6391 15.7813 25.6057 15.7126 25.6265 15.6501L25.9139 14.799C27.2606 11.2529 28.672 6.43312 27.9309 2.65599C27.3772 -0.155531 24.3484 -0.0431758 22.3126 0.812142C20.5745 1.54468 19.0633 2.44582 17.5104 3.66741C11.1012 8.72023 5.41217 15.3047 0.428826 21.9017C0.422581 21.91 0.418459 21.9183 0.418459 21.9288C0.414296 21.96 0.43714 21.9891 0.468364 21.9932L1.19692 22.0786C1.26562 22.0869 1.33433 22.0598 1.37805 22.0099C3.06414 20.0662 22.4292 -2.17414 24.7148 4.0857C24.8147 4.33127 24.8438 4.57679 24.8022 4.81819C25.333 6.3894 24.8896 8.30189 24.4691 9.9168C23.8592 12.0582 23.1037 14.1393 22.1982 16.16C22.1586 16.2495 22.0712 16.3078 21.9734 16.3099C19.0591 16.3702 16.2531 15.8562 13.5574 14.7678C12.221 14.2267 10.5808 14.2725 10.2165 15.9665C9.78144 17.9872 11.99 18.3493 13.7385 18.5429C16.2011 18.8155 18.6511 18.7114 21.0887 18.2328C21.1636 18.2203 21.1969 18.2494 21.1906 18.3243C21.176 18.522 21.0824 18.6406 20.9076 18.676C20.8909 18.9736 20.8118 19.2275 20.6682 19.4398C18.7573 23.1878 16.6695 26.8192 14.4005 30.3321C13.4638 31.7909 12.5187 33.2476 11.5654 34.7023C10.866 35.7657 10.1186 36.5794 11.5674 37.3744C11.5882 37.4514 11.6819 37.4576 11.8484 37.3931C13.1016 37.6345 15.154 37.62 15.8805 36.3214C17.6957 33.0708 19.6836 29.1791 21.8443 24.6445L24.9833 17.3879C25.0499 17.2339 25.179 17.1173 25.3372 17.0674C26.0679 16.8364 26.7985 16.5305 27.5271 16.1517C27.9163 15.9478 28.1432 15.6231 28.2078 15.1777V15.1736Z" fill="#F8F8F7"/>
<path d="M58.5285 15.6293C59.1155 14.339 57.3836 14.0102 56.526 14.0685C56.2033 14.0893 55.9077 14.0622 55.6371 13.9852C53.7741 13.4525 52.0776 13.7813 50.5456 14.9758C47.8207 17.0923 46.2492 19.908 45.8287 23.4208C45.6539 24.8755 45.9557 27.0106 47.6522 27.3228C49.0947 27.5871 51.5656 26.1824 52.8124 25.3936C52.8811 25.3499 52.9103 25.2875 52.8978 25.2085L52.8146 24.6486C52.8021 24.557 52.7521 24.5321 52.6688 24.5716C51.832 24.9712 49.4361 26.0492 48.5827 25.2646C48.5244 25.2105 48.4869 25.1356 48.4786 25.0565C48.2683 23.0004 49.942 20.2284 51.2055 18.8258C52.2692 17.6437 53.5015 16.9591 54.9045 16.7718C54.9919 16.7593 55.0627 16.7905 55.1127 16.8654C55.2417 17.0527 55.2125 17.1797 55.0231 17.2463L54.9232 17.9726C54.663 19.1505 54.407 20.3221 54.1551 21.4833C53.6097 24.0014 53.6618 25.8327 55.3687 27.6828C55.4707 27.7931 55.633 27.8244 55.7683 27.7598C55.939 27.6787 56.0118 27.4747 55.9307 27.304C55.3416 26.0471 55.2646 24.6757 55.7038 23.1898C56.4678 20.603 57.4086 18.0829 58.5285 15.6293Z" fill="#F8F8F7"/>
<path d="M36.1197 25.0481C38.3824 24.4092 40.3453 23.4706 42.0064 22.2303C42.4393 21.9057 42.8661 21.477 43.2887 20.9401C44.1213 19.8433 46.0177 16.2805 44.9186 15.1297C43.6384 13.7895 42.1146 13.4773 40.3494 14.1932C36.4735 15.7686 33.5614 19.7768 32.7787 23.8515C32.173 26.9876 33.5489 29.7097 36.8441 30.309C39.5814 30.8064 42.325 27.895 43.8674 25.8701C43.9236 25.7952 43.9215 25.7223 43.8611 25.6516L43.551 25.2957C43.4823 25.2146 43.4115 25.2125 43.3365 25.2895C41.9377 26.7275 40.1579 28.2134 38.1554 28.6629C36.8419 28.9563 36.0946 28.4735 35.9135 27.2145C35.7886 26.4819 35.8095 25.8097 35.976 25.1938C35.9969 25.1168 36.0447 25.0689 36.1217 25.0481H36.1197ZM42.7142 16.8195C42.7954 16.7925 42.8432 16.8216 42.8578 16.9069C42.9036 17.1879 42.812 17.3606 42.583 17.4251C42.7329 17.6436 42.7329 17.8767 42.5788 18.1244L42.2957 18.9838C40.8928 21.1835 38.9298 22.7984 36.4111 23.8327C36.3382 23.8619 36.3133 23.839 36.3362 23.764C37.1959 20.9879 38.8111 18.8382 41.1821 17.3169L42.7142 16.8216V16.8195ZM41.511 16.7488C41.511 16.7488 41.5131 16.7363 41.5151 16.7301C41.5151 16.7363 41.5151 16.7425 41.511 16.7488ZM41.4714 16.805C41.4714 16.805 41.4757 16.8029 41.4777 16.8008C41.4777 16.8008 41.4735 16.8029 41.4714 16.805ZM41.5006 16.7759C41.5006 16.7759 41.5006 16.7717 41.5026 16.7696C41.5026 16.7696 41.5027 16.7738 41.5006 16.7759ZM41.5151 16.7072C41.5151 16.7072 41.5131 16.6905 41.5089 16.6842C41.5089 16.6884 41.5131 16.6947 41.5151 16.6988C41.5151 16.7009 41.5151 16.7051 41.5151 16.7072ZM41.5068 16.6781C41.5068 16.6781 41.4964 16.6593 41.4881 16.651C41.4964 16.6593 41.5027 16.6676 41.5068 16.6781ZM41.4818 16.6468C41.4818 16.6468 41.4632 16.6322 41.4527 16.6281C41.4632 16.6322 41.4735 16.6385 41.4818 16.6468Z" fill="#F8F8F7"/>
</svg>
