<svg width="162" height="41" viewBox="0 0 162 41" fill="none" xmlns="http://www.w3.org/2000/svg">
<path d="M49.38 9.78046H55.2342V17.3265H53.2837L52.9887 15.5677C52.2483 16.4252 51.1775 17.6952 48.6205 17.6952C45.2495 17.6952 42.1816 15.2782 42.1816 10.3649C42.1816 6.54407 44.3097 2.93631 49.0275 2.95269C53.3219 2.95269 55.0157 5.73837 55.1714 7.67472H52.2429C52.2429 7.1285 51.2458 5.37515 49.1833 5.37515C47.1207 5.37515 45.1621 6.81716 45.1621 10.4086C45.1621 14.2294 47.2464 15.2263 49.2352 15.2263C49.8771 15.2263 52.0216 14.975 52.6281 12.1456H49.369V9.78046H49.3827H49.38Z" fill="#F8F8F7"/>
<path d="M63.8782 14.2815C63.6652 15.0216 62.8812 15.4121 62.1272 15.4121C59.9253 15.4121 59.7696 13.6615 59.6877 12.8776H66.8068V12.3888C66.8068 7.65028 63.9766 6.67529 61.9277 6.67529C57.382 6.67529 56.9531 10.6736 56.9531 11.9217C56.9531 16.1932 59.1932 17.597 62.1217 17.597C63.8947 17.597 65.9654 16.7777 66.6838 14.2787H63.881L63.8782 14.2815ZM59.7614 11.1024C59.9171 9.73412 60.5974 8.91479 61.8895 8.91479C62.7692 8.91479 63.84 9.42551 63.9957 11.1024H59.7587H59.7614Z" fill="#F8F8F7"/>
<path d="M78.0035 17.3267H75.2744V11.0288C75.2744 10.2668 75.2362 8.98043 73.5015 8.98043C72.2885 8.98043 71.357 9.79977 71.357 11.3811V17.3294H68.6279V6.94577H71.245V8.46701H71.2832C71.652 7.84705 72.4361 6.66992 74.403 6.66992C76.3699 6.66992 78.0117 7.86068 78.0117 10.1439V17.3212H78.0035V17.3267Z" fill="#F8F8F7"/>
<path d="M86.6449 14.2815C86.4318 15.0216 85.6478 15.4121 84.8938 15.4121C82.692 15.4121 82.5362 13.6615 82.4543 12.8776H89.5734V12.3888C89.5734 7.65028 86.7432 6.67529 84.6944 6.67529C80.1486 6.67529 79.7197 10.6736 79.7197 11.9217C79.7197 16.1932 81.968 17.597 84.8883 17.597C86.6613 17.597 88.732 16.7777 89.4504 14.2787H86.6476L86.6449 14.2815ZM82.528 11.1024C82.6837 9.73412 83.364 8.91479 84.6561 8.91479C85.5358 8.91479 86.6066 9.42551 86.7623 11.1024H82.5253H82.528Z" fill="#F8F8F7"/>
<path d="M91.3623 6.95085H93.9794V8.74794H94.0176C94.5804 7.691 95.2087 6.67773 96.8642 6.67773C97.0417 6.67773 97.2193 6.69955 97.3887 6.71594V9.48806C97.151 9.44982 96.8642 9.44978 96.6047 9.44978C94.4766 9.44978 94.0914 10.7717 94.0914 11.9269V17.3291H91.3623V6.95358V6.95085Z" fill="#F8F8F7"/>
<path d="M107.381 9.67922C107.381 7.1229 104.704 6.67773 103.248 6.67773C101.12 6.67773 98.9154 7.12838 98.6067 10.3074H101.237C101.319 9.70108 101.549 8.86536 102.915 8.86536C103.617 8.86536 104.712 8.92542 104.712 10.078C104.712 10.6624 104.188 10.8399 103.759 10.8973L101.298 11.266C99.5601 11.5173 98.2734 12.5523 98.2734 14.5843C98.2734 16.7282 99.8715 17.6076 101.437 17.6076C103.292 17.6076 104.166 16.7501 104.794 16.1083C104.854 16.6927 104.89 16.8484 105.046 17.3345H107.988V16.9194C107.654 16.802 107.381 16.5289 107.381 15.2999V9.67649V9.67922ZM104.704 13.6039C104.704 14.8684 103.478 15.6522 102.265 15.6522C101.74 15.6522 100.994 15.3572 100.994 14.4041C100.994 13.2734 101.83 13.0221 102.849 12.8446C103.98 12.6671 104.431 12.4895 104.704 12.2765V13.6066V13.6039Z" fill="#F8F8F7"/>
<path d="M112.624 3.32129H109.895V17.3264H112.624V3.32129Z" fill="#F8F8F7"/>
<path d="M118.049 5.72491H115.32V3.19043H118.049V5.72491ZM118.049 6.95117V17.3267H115.32V6.95117H118.049Z" fill="#F8F8F7"/>
<path d="M123.726 6.95065H125.425V8.90064H123.726V14.5404C123.726 15.1467 123.748 15.3762 124.857 15.3762C125.035 15.3762 125.226 15.3543 125.425 15.3379V17.4081C124.996 17.4299 124.567 17.4463 124.139 17.4463H123.783C121.426 17.4463 120.997 16.5532 120.997 15.1986V8.90064H119.593V6.95065H120.997V4.14307H123.726V6.95065Z" fill="#F8F8F7"/>
<path d="M135.569 9.67922C135.569 7.1229 132.892 6.67773 131.436 6.67773C129.307 6.67773 127.103 7.12838 126.794 10.3074H129.425C129.507 9.70108 129.736 8.86536 131.102 8.86536C131.804 8.86536 132.9 8.92542 132.9 10.078C132.9 10.6624 132.375 10.8399 131.946 10.8973L129.485 11.266C127.748 11.5173 126.461 12.5523 126.461 14.5843C126.461 16.7282 128.059 17.6076 129.624 17.6076C131.479 17.6076 132.353 16.7501 132.982 16.1083C133.042 16.6927 133.077 16.8484 133.233 17.3345H136.175V16.9194C135.842 16.802 135.569 16.5289 135.569 15.2999V9.67649V9.67922ZM132.892 13.6039C132.892 14.8684 131.665 15.6522 130.452 15.6522C129.928 15.6522 129.182 15.3572 129.182 14.4041C129.182 13.2734 130.018 13.0221 131.037 12.8446C132.168 12.6671 132.618 12.4895 132.892 12.2765V13.6066V13.6039Z" fill="#F8F8F7"/>
<path d="M141.067 6.95065H142.767V8.90064H141.067V14.5404C141.067 15.1467 141.089 15.3762 142.198 15.3762C142.376 15.3762 142.567 15.3543 142.761 15.3379V17.4081C142.332 17.4299 141.903 17.4463 141.474 17.4463H141.119C138.762 17.4463 138.333 16.5532 138.333 15.1986V8.90064H136.929V6.95065H138.333V4.14307H141.062V6.95065H141.07H141.067Z" fill="#F8F8F7"/>
<path d="M52.079 22.8269H49.3445V27.8003H49.3062C48.8773 27.1339 48.0578 26.1807 46.304 26.1807C44.0202 26.1807 41.9932 27.9314 41.9932 31.5228C41.9932 34.3686 43.2799 37.1024 46.3613 37.1024C47.4923 37.1024 48.7052 36.6955 49.3636 35.5211H49.4018V36.8293H52.079V22.8242V22.8269ZM44.7987 31.7249C44.7987 30.0835 45.3833 28.5459 47.1208 28.5459C48.9921 28.5459 49.4647 30.2228 49.4647 31.8778C49.4647 33.4154 48.7844 34.8629 47.047 34.8629C45.2877 34.8547 44.7987 32.9484 44.7987 31.7221V31.7249Z" fill="#F8F8F7"/>
<path d="M60.6159 33.7868C60.4029 34.527 59.6188 34.9175 58.8567 34.9175C56.6548 34.9175 56.4991 33.1669 56.4172 32.3831H63.5362V31.8942C63.5362 27.1557 60.7061 26.1807 58.6572 26.1807C54.1115 26.1807 53.6826 30.1791 53.6826 31.4272C53.6826 35.6986 55.9227 37.1024 58.8512 37.1024C60.6241 37.1024 62.6948 36.2831 63.4133 33.7841H60.6187L60.6159 33.7868ZM56.5046 30.6078C56.6603 29.2396 57.3405 28.4202 58.6327 28.4202C59.5123 28.4202 60.5831 28.9309 60.7389 30.6078H56.5018H56.5046Z" fill="#F8F8F7"/>
<path d="M79.9328 27.407C79.6951 26.5713 79.2526 24.99 76.8267 24.99C75.4226 24.99 73.3519 25.9295 73.3519 29.8814C73.3519 32.3941 74.349 34.6636 76.8267 34.6636C78.4467 34.6636 79.5777 33.746 79.9328 32.0336H82.8613C82.2767 35.0788 80.288 37.2008 76.7776 37.2008C73.0514 37.2008 70.377 34.6882 70.377 29.846C70.377 25.0037 73.2071 22.4556 76.8158 22.4556C81.0064 22.4556 82.7083 25.345 82.864 27.407H79.9355H79.9328Z" fill="#F8F8F7"/>
<path d="M93.2774 29.1822C93.2774 26.6258 90.6002 26.1807 89.1441 26.1807C87.0161 26.1807 84.8115 26.6313 84.5028 29.8103H87.1335C87.2155 29.204 87.445 28.3683 88.8109 28.3683C89.5129 28.3683 90.6084 28.4284 90.6084 29.5809C90.6084 30.1654 90.0839 30.3429 89.655 30.4003L87.2018 30.7689C85.4644 31.0202 84.1777 32.0553 84.1777 34.0873C84.1777 36.2312 85.7758 37.1106 87.333 37.1106C89.1878 37.1106 90.062 36.253 90.6904 35.6112C90.7505 36.1956 90.786 36.3513 90.9417 36.8375H93.8839V36.4305C93.5506 36.3131 93.2774 36.04 93.2774 34.811V29.1794V29.1822ZM90.6002 33.1068C90.6002 34.3713 89.3736 35.1551 88.1607 35.1551C87.6362 35.1551 86.8904 34.8601 86.8904 33.907C86.8904 32.7763 87.7263 32.5251 88.7453 32.3475C89.8763 32.17 90.327 31.9925 90.6002 31.7794V33.1095V33.1068Z" fill="#F8F8F7"/>
<path d="M98.777 26.4536H100.476V28.4036H98.777V34.0433C98.777 34.6497 98.7988 34.8791 99.9079 34.8791C100.086 34.8791 100.277 34.8573 100.471 34.8409V36.911C100.042 36.9329 99.6129 36.9493 99.184 36.9493H98.8371C96.4796 36.9493 96.0506 36.0562 96.0506 34.7016V28.4036H94.6465V26.4536H96.0506V23.646H98.7797V26.4536H98.777Z" fill="#F8F8F7"/>
<path d="M110.619 29.1822C110.619 26.6258 107.941 26.1807 106.485 26.1807C104.357 26.1807 102.153 26.6313 101.844 29.8103H104.475C104.557 29.204 104.786 28.3683 106.152 28.3683C106.854 28.3683 107.95 28.4284 107.95 29.5809C107.95 30.1654 107.425 30.3429 106.996 30.4003L104.535 30.7689C102.797 31.0202 101.511 32.0553 101.511 34.0873C101.511 36.2312 103.109 37.1106 104.674 37.1106C106.529 37.1106 107.403 36.253 108.032 35.6112C108.092 36.1956 108.127 36.3513 108.283 36.8375H111.225V36.4305C110.892 36.3131 110.619 36.04 110.619 34.811V29.1794V29.1822ZM107.941 33.1068C107.941 34.3713 106.715 35.1551 105.502 35.1551C104.977 35.1551 104.232 34.8601 104.232 33.907C104.232 32.7763 105.068 32.5251 106.087 32.3475C107.217 32.17 107.668 31.9925 107.941 31.7794V33.1095V33.1068Z" fill="#F8F8F7"/>
<path d="M115.861 22.8267H113.132V36.8318H115.861V22.8267Z" fill="#F8F8F7"/>
<path d="M127.844 36.832H125.227V35.3682H125.188C124.568 36.477 123.473 37.1051 122.033 37.1051C119.984 37.1051 118.501 35.9362 118.501 33.2843V26.4565H121.23V32.8938C121.23 34.4915 122.17 34.8083 123.003 34.8083C123.896 34.8083 125.109 34.2976 125.109 32.4514V26.4647H127.838V36.8348H127.846L127.844 36.832Z" fill="#F8F8F7"/>
<path d="M139.781 36.8321H137.052V30.5342C137.052 29.7722 137.014 28.4859 135.279 28.4859C134.066 28.4859 133.134 29.3051 133.134 30.8865V36.8348H130.405V26.4511H133.022V27.9724H133.061C133.429 27.3524 134.213 26.1753 136.18 26.1753C138.147 26.1753 139.789 27.3661 139.789 29.6493V36.8266H139.781V36.8321Z" fill="#F8F8F7"/>
<path d="M147.611 36.6543C146.324 40.497 145.969 40.9995 143.59 40.9995C143.221 40.9995 142.754 40.9777 142.363 40.9613V38.7737C142.481 38.7955 142.658 38.8119 142.888 38.8119C143.885 38.8119 144.426 38.6781 144.685 37.2524L140.863 26.4536H143.909L146.136 34.0953H146.174L148.302 26.4536H151.192L147.614 36.6516L147.611 36.6543Z" fill="#F8F8F7"/>
<path d="M160.606 29.1822C160.606 26.6258 157.937 26.1807 156.472 26.1807C154.344 26.1807 152.14 26.6313 151.831 29.8103H154.462C154.544 29.204 154.773 28.3683 156.139 28.3683C156.841 28.3683 157.937 28.4284 157.937 29.5809C157.937 30.1654 157.412 30.3429 156.983 30.4003L154.53 30.7689C152.793 31.0202 151.506 32.0553 151.506 34.0873C151.506 36.2312 153.104 37.1106 154.669 37.1106C156.524 37.1106 157.398 36.253 158.027 35.6112C158.087 36.1956 158.122 36.3513 158.278 36.8375H161.22V36.4305C160.887 36.3131 160.614 36.04 160.614 34.811V29.1794H160.606V29.1822ZM157.928 33.1068C157.928 34.3713 156.702 35.1551 155.489 35.1551C154.964 35.1551 154.219 34.8601 154.219 33.907C154.219 32.7763 155.054 32.5251 156.073 32.3475C157.204 32.17 157.655 31.9925 157.928 31.7794V33.1095V33.1068Z" fill="#F8F8F7"/>
<path d="M31.9259 19.9186C31.9259 9.73974 24.8424 1.48633 16.106 1.48633C7.36972 1.48633 0.286133 9.73974 0.286133 19.9186C0.286133 30.0974 7.36972 38.3508 16.106 38.3508C24.8424 38.3508 31.9259 30.0974 31.9259 19.9186ZM27.1862 10.7666C28.7024 13.3694 29.5875 16.5238 29.5875 19.9295C29.5875 23.3352 28.6997 26.4924 27.1862 29.0924V10.7639V10.7666ZM27.1862 29.9882C28.9892 27.2025 30.0546 23.7148 30.0546 19.9295C30.0546 16.1442 28.9838 12.6566 27.1862 9.87082V8.85759C29.3307 11.8427 30.6228 15.7018 30.6228 19.9213C30.6228 24.1409 29.328 28.0054 27.1862 30.985V29.9882ZM5.09139 29.1169C3.57524 26.5142 2.68193 23.3516 2.68193 19.9377C2.68193 16.5238 3.57524 13.3612 5.09139 10.7584V29.1169ZM5.09139 9.85715C3.2884 12.6429 2.20932 16.1387 2.20932 19.9295C2.20932 23.7203 3.2802 27.2079 5.09139 30.0018V31.0069C2.94692 28.0218 1.64657 24.1545 1.64657 19.9295C1.64657 15.7045 2.94692 11.8372 5.09139 8.85212V9.85715ZM11.3308 36.0704C10.3255 35.6635 9.38031 35.1172 8.49247 34.4672V33.7516C9.37212 34.4399 10.3255 35.0162 11.3308 35.4504V36.0704ZM11.3308 34.9479C10.3173 34.4891 9.37212 33.8827 8.49247 33.159V6.70824C9.36392 5.9845 10.3173 5.37818 11.3308 4.91935V34.9479ZM11.3308 4.40313C10.3255 4.84011 9.38031 5.41637 8.49247 6.10188V5.38636C9.38031 4.74455 10.3255 4.20376 11.3308 3.78317V4.40313ZM17.5539 36.9498C17.0895 37.0154 16.6141 37.0454 16.1333 37.0454C15.6525 37.0454 15.1881 37.0153 14.721 36.9634V36.379C15.1854 36.4391 15.6607 36.4609 16.1333 36.4609C16.606 36.4609 17.0868 36.4309 17.5539 36.3735V36.9498ZM17.5539 35.9147C17.0895 35.9748 16.6141 36.0021 16.1333 36.0021C15.6525 36.0021 15.1881 35.9721 14.721 35.9147V3.94433C15.1854 3.88424 15.6607 3.85691 16.1333 3.85691C16.606 3.85691 17.0868 3.88697 17.5539 3.94433V35.9147ZM17.5539 3.48552C17.0895 3.42543 16.6141 3.3981 16.1333 3.3981C15.6525 3.3981 15.1881 3.42816 14.721 3.48005V2.90376C15.1854 2.84367 15.6607 2.82181 16.1333 2.82181C16.606 2.82181 17.0868 2.85187 17.5539 2.90376V3.48825V3.48552ZM23.7933 34.459C22.9055 35.1172 21.9603 35.6553 20.955 36.0704V35.4504C21.9603 35.008 22.9055 34.4372 23.7933 33.7435V34.459ZM23.7933 33.1508C22.9219 33.8745 21.9685 34.4809 20.955 34.9479V4.91935C21.9685 5.38364 22.9137 5.98444 23.7933 6.71638V33.1535V33.1508ZM23.7933 6.11554C22.9137 5.42731 21.9603 4.85104 20.955 4.4086V3.78863C21.9603 4.20376 22.9055 4.75002 23.7933 5.40003V6.11554Z" fill="#F8F8F7"/>
<path d="M3.89438 1.54354C3.6731 1.24858 3.50372 0.959099 3.35347 0.604055C3.08029 0.817081 2.5476 1.08471 2.10505 1.19395C1.5942 0.691426 0.913968 0.49205 0.042522 0.573983C-0.0913365 1.28407 0.0862316 2.1471 0.640788 2.62231C0.528784 3.0866 0.315716 3.56183 0.0561944 3.93873C0.381279 4.10259 0.65446 4.22001 0.944032 4.46308C0.315716 5.40804 0.160003 6.06078 0.0561944 7.19692L0.099896 13.6424C0.515131 11.7661 1.51224 9.31081 2.3755 8.02446C2.62682 7.64756 2.73881 7.40998 2.89179 7.15872C2.97921 7.01124 3.49006 6.1755 3.47641 5.15679C3.83154 5.08305 4.15663 5.09675 4.56913 5.12679C4.51722 4.68435 4.49537 4.61606 4.60738 3.88412C6.16724 3.76668 6.62618 2.82717 8.48108 1.82212C9.38257 1.33325 9.97537 1.11205 11.3276 0.617724C8.17784 0.655959 5.87221 0.210756 3.89165 1.54081L3.89438 1.54354ZM3.2524 1.00825C3.31796 1.18578 3.40811 1.47254 3.66764 1.75384C3.3207 2.0488 3.2524 2.20446 3.13493 2.49396L3.12674 2.48576C3.01474 2.42021 2.89727 2.382 2.7798 2.37381H2.76614L3.25513 1.00552L3.2524 1.00825ZM3.02838 2.87362C3.21961 3.0648 3.21688 3.37342 3.02838 3.5646C2.83989 3.75578 2.52847 3.75305 2.33725 3.5646C2.14602 3.37342 2.14875 3.0648 2.33725 2.87362C2.52847 2.68244 2.83716 2.68518 3.02838 2.87362ZM0.340296 0.912638C0.998662 0.852554 1.55869 1.00827 1.96572 1.5026C2.21705 1.79756 2.32905 2.02694 2.42467 2.42568C2.299 2.46392 2.15148 2.53769 2.06133 2.66332L0.337562 0.912638H0.340296ZM0.427716 3.82404C0.670847 3.72845 1.8182 3.29962 1.8182 3.29962L1.83187 3.28602C1.84006 3.3898 1.86191 3.48535 1.90562 3.58094L1.91382 3.60281C1.47127 3.86772 1.18988 4.24463 1.18988 4.29652C1.18988 4.30471 1.19808 4.30472 1.18988 4.30472V4.29652C1.15164 4.24463 0.774656 3.89778 0.427716 3.82404ZM1.38111 9.26986C0.228292 11.8207 0.501477 11.7088 0.241955 12.7657C0.272005 12.255 0.307521 11.6132 0.38128 11.1462C0.883933 8.37409 1.59966 6.3121 2.47384 4.04254C2.47384 4.04254 2.7115 4.06439 2.82897 4.04254C3.03659 4.28561 3.10215 4.61877 3.10215 4.61877C3.50919 6.29021 2.25256 7.33077 1.37838 9.26712L1.38111 9.26986ZM4.26317 4.79907L3.1923 3.90599L3.1841 3.89779C3.21415 3.87594 3.24967 3.84588 3.27972 3.81584C3.33163 3.76395 3.37533 3.70389 3.41358 3.63835L3.42177 3.62468C3.96813 3.88959 4.33967 3.90599 4.33967 3.90599C4.20034 4.49045 4.2659 4.79907 4.2659 4.79907H4.26317ZM9.31154 1.15574C6.82833 2.08705 6.20002 3.52909 4.51996 3.5564C4.12931 3.54821 3.80423 3.45262 3.51465 3.28329V3.23955C3.52285 3.12757 3.51466 3.02655 3.48461 2.92276V2.90909C4.64563 2.33283 7.29275 1.35783 9.13945 0.934508C9.68035 0.808877 10.1147 0.817073 10.4562 0.800687L9.31154 1.15574Z" fill="#F8F8F7"/>
<path d="M31.5267 4.44956C31.8217 4.22834 32.1113 4.05901 32.4664 3.9088C32.2534 3.63569 31.9857 3.10311 31.8764 2.66067C32.379 2.14995 32.5785 1.46989 32.4965 0.598665C31.7862 0.464841 30.923 0.642347 30.4477 1.19676C29.9832 1.08479 29.5079 0.87179 29.1309 0.612334C28.967 0.937336 28.8495 1.21045 28.6064 1.49994C27.6612 0.87179 27.0083 0.716116 25.8719 0.612334L19.4248 0.656008C21.3016 1.07114 23.7575 2.06801 25.0441 2.93104C25.4211 3.18231 25.6588 3.29425 25.9101 3.44719C26.0576 3.53459 26.8936 4.04534 27.9125 4.03169C27.9863 4.38673 27.9726 4.71173 27.9426 5.12413C28.3851 5.07224 28.4534 5.05036 29.1855 5.16234C29.303 6.7218 30.2428 7.18061 31.2481 9.03503C31.7371 9.9363 31.9583 10.529 32.4528 11.8809C32.4145 8.73192 32.8598 6.42688 31.5294 4.44682L31.5267 4.44956ZM32.0621 3.80772C31.8846 3.87327 31.5977 3.9634 31.3164 4.22285C31.0213 3.876 30.8656 3.80774 30.576 3.6903L30.5842 3.6821C30.6498 3.57012 30.688 3.45268 30.6962 3.33524V3.32157L32.0649 3.81045L32.0621 3.80772ZM30.1963 3.58375C30.0051 3.77493 29.6964 3.7722 29.5052 3.58375C29.314 3.3953 29.3167 3.08395 29.5052 2.89277C29.6964 2.70159 30.0051 2.70432 30.1963 2.89277C30.3875 3.08395 30.3848 3.39257 30.1963 3.58375ZM32.1578 0.89638C32.2179 1.55458 32.0621 2.11444 31.5677 2.52138C31.2727 2.77264 31.0432 2.8846 30.6443 2.98018C30.6061 2.85455 30.5323 2.70705 30.4067 2.61693L32.1578 0.893647V0.89638ZM29.2457 0.983728C29.3413 1.2268 29.7702 2.37389 29.7702 2.37389L29.7838 2.38756C29.68 2.39575 29.5844 2.4176 29.4888 2.4613L29.4669 2.4695C29.2019 2.02706 28.825 1.74572 28.7731 1.74572C28.7649 1.74572 28.7649 1.75391 28.7649 1.74572H28.7731C28.825 1.70748 29.1719 1.33058 29.2457 0.983728ZM23.7984 1.93688C21.2469 0.784354 21.3589 1.05749 20.3017 0.798031C20.8126 0.828073 21.4545 0.86358 21.9217 0.93732C24.6945 1.43984 26.757 2.15537 29.0271 3.02933C29.0271 3.02933 29.0053 3.26695 29.0271 3.38438C28.784 3.59195 28.4507 3.65749 28.4507 3.65749C26.7788 4.06443 25.738 2.8081 23.8012 1.93415L23.7984 1.93688ZM28.2704 4.81822L29.1637 3.74764L29.1719 3.73944C29.1937 3.76948 29.2238 3.80501 29.2538 3.83506C29.3057 3.88695 29.3659 3.93064 29.4314 3.96888L29.4451 3.97708C29.1801 4.5233 29.1637 4.89469 29.1637 4.89469C28.5791 4.75541 28.2704 4.82095 28.2704 4.82095V4.81822ZM31.9146 9.8653C30.9831 7.38272 29.5407 6.75456 29.5134 5.07492C29.5216 4.68438 29.6172 4.35939 29.7865 4.06989H29.8303C29.9423 4.07809 30.0433 4.06993 30.1471 4.03989H30.1608C30.7372 5.20061 31.7125 7.84704 32.1359 9.69327C32.2616 10.234 32.2534 10.6683 32.2698 11.0097L31.9146 9.8653Z" fill="#F8F8F7"/>
<path d="M28.3932 38.4191C28.6145 38.7141 28.7839 39.0036 28.9341 39.3586C29.2073 39.1456 29.74 38.878 30.1825 38.7687C30.6934 39.2713 31.3736 39.4706 32.2451 39.3887C32.3789 38.6786 32.2013 37.8156 31.6468 37.3404C31.7588 36.8761 31.9719 36.4008 32.2314 36.024C31.9063 35.8601 31.6331 35.7427 31.3436 35.4996C31.9719 34.5546 32.1276 33.9019 32.2314 32.7658L32.1877 26.3203C31.7725 28.1966 30.7753 30.6519 29.9121 31.9382C29.6608 32.3151 29.5488 32.5527 29.3958 32.804C29.3084 32.9514 28.7975 33.7872 28.8112 34.8059C28.456 34.8796 28.131 34.866 27.7184 34.836C27.7704 35.2784 27.7922 35.3466 27.6802 36.0786C26.1204 36.196 25.6614 37.1355 23.8065 38.1406C22.905 38.6294 22.3122 38.8507 20.96 39.345C24.1097 39.3068 26.4154 39.7519 28.3959 38.4219L28.3932 38.4191ZM29.0352 38.9544C28.9696 38.7769 28.8795 38.4901 28.62 38.2088C28.9669 37.9139 29.0352 37.7582 29.1526 37.4687L29.1609 37.4769C29.2729 37.5425 29.3903 37.5807 29.5078 37.5889H29.5215L29.0324 38.9572L29.0352 38.9544ZM29.2592 37.0891C29.068 36.8979 29.0707 36.5893 29.2592 36.3981C29.4477 36.207 29.7591 36.2097 29.9503 36.3981C30.1416 36.5893 30.1388 36.8979 29.9503 37.0891C29.7591 37.2803 29.4504 37.2776 29.2592 37.0891ZM31.9473 39.05C31.2889 39.1101 30.7289 38.9545 30.3219 38.4601C30.0705 38.1652 29.9585 37.9357 29.8629 37.537C29.9886 37.4988 30.1361 37.4251 30.2263 37.2994L31.95 39.05H31.9473ZM31.8599 36.1387C31.6167 36.2343 30.4694 36.6631 30.4694 36.6631L30.4557 36.6767C30.4475 36.5729 30.4257 36.4773 30.382 36.3817L30.3738 36.3599C30.8163 36.095 31.0977 35.7181 31.0977 35.6662C31.0977 35.658 31.0895 35.658 31.0977 35.658V35.6662C31.1359 35.7181 31.5129 36.065 31.8599 36.1387ZM30.9065 30.6928C32.0593 28.142 31.7861 28.2539 32.0456 27.197C32.0156 27.7077 31.9801 28.3496 31.9063 28.8166C31.4037 31.5887 30.6879 33.6506 29.8138 35.9202C29.8138 35.9202 29.5761 35.8984 29.4586 35.9202C29.251 35.6771 29.1854 35.3439 29.1854 35.3439C28.7784 33.6725 30.035 32.6319 30.9092 30.6956L30.9065 30.6928ZM28.0244 35.1637L29.0953 36.0568L29.1035 36.065C29.0734 36.0868 29.0379 36.1168 29.0079 36.1468C28.956 36.1987 28.9123 36.2589 28.874 36.3244L28.8658 36.3381C28.3194 36.0732 27.9479 36.0568 27.9479 36.0568C28.0872 35.4723 28.0217 35.1637 28.0217 35.1637H28.0244ZM22.976 38.8069C25.4592 37.8756 26.0876 36.4337 27.7676 36.4063C28.1583 36.4145 28.4834 36.5101 28.7729 36.6795V36.7231C28.7647 36.8351 28.7729 36.9361 28.803 37.0399V37.0536C27.642 37.6298 24.9948 38.6048 23.1481 39.0282C22.6072 39.1538 22.1729 39.1456 21.8314 39.162L22.976 38.8069Z" fill="#F8F8F7"/>
<path d="M1.41634 35.5134C1.1213 35.7346 0.831728 35.9039 0.476593 36.0541C0.689674 36.3272 0.957384 36.8598 1.06666 37.3022C0.564004 37.8129 0.364593 38.493 0.446547 39.3642C1.15682 39.498 2.02007 39.3205 2.4954 38.7661C2.95981 38.8781 3.43515 39.0911 3.81214 39.3505C3.97604 39.0255 4.09351 38.7524 4.33664 38.4629C5.28184 39.0911 5.93475 39.2467 7.07118 39.3505L13.5182 39.3068C11.6415 38.8917 9.18559 37.8948 7.89891 37.0318C7.52192 36.7806 7.28426 36.6686 7.03293 36.5157C6.88541 36.4283 6.04947 35.9176 5.03051 35.9312C4.95675 35.5762 4.97041 35.2512 5.00046 34.8388C4.55791 34.8907 4.48962 34.9125 3.7575 34.8005C3.64003 33.2411 2.70029 32.7822 1.69499 30.9278C1.20599 30.0266 0.984706 29.4339 0.490249 28.082C0.528494 31.231 0.083211 33.536 1.4136 35.5161L1.41634 35.5134ZM0.880895 36.1551C1.05846 36.0896 1.34531 35.9995 1.62669 35.74C1.92173 36.0869 2.07743 36.1552 2.367 36.2726L2.35881 36.2808C2.29325 36.3927 2.25499 36.5102 2.2468 36.6276V36.6413L0.878161 36.1524L0.880895 36.1551ZM2.74672 36.3791C2.93795 36.1879 3.24664 36.1907 3.43786 36.3791C3.62909 36.5676 3.62636 36.8789 3.43786 37.0701C3.24664 37.2613 2.93795 37.2585 2.74672 37.0701C2.5555 36.8789 2.55823 36.5703 2.74672 36.3791ZM0.785289 39.0665C0.725189 38.4083 0.880895 37.8484 1.37535 37.4415C1.67039 37.1902 1.89986 37.0783 2.2987 36.9827C2.33695 37.1083 2.41071 37.2558 2.53637 37.3459L0.785289 39.0693V39.0665ZM3.69739 38.9791C3.60177 38.7361 3.17289 37.589 3.17289 37.589L3.15923 37.5753C3.26304 37.5671 3.35866 37.5453 3.45427 37.5016L3.47611 37.4934C3.7411 37.9359 4.1181 38.2171 4.17 38.2171C4.1782 38.2171 4.17819 38.2089 4.17819 38.2171H4.17C4.1181 38.2554 3.77115 38.6323 3.69739 38.9791ZM9.14461 38.026C11.6961 39.1785 11.5841 38.9054 12.6413 39.1648C12.1305 39.1348 11.4885 39.0993 11.0214 39.0255C8.24858 38.523 6.18606 37.8075 3.91593 36.9335C3.91593 36.9335 3.93778 36.6959 3.91593 36.5785C4.15906 36.3709 4.49235 36.3054 4.49235 36.3054C6.16422 35.8984 7.20503 37.1548 9.14188 38.0287L9.14461 38.026ZM4.67264 35.1446L3.77934 36.2152L3.77115 36.2234C3.7493 36.1934 3.71925 36.1579 3.6892 36.1279C3.6373 36.076 3.57719 36.0323 3.51163 35.994L3.49797 35.9858C3.76296 35.4396 3.77934 35.0682 3.77934 35.0682C4.36395 35.2074 4.67264 35.1419 4.67264 35.1419V35.1446ZM1.02842 30.0976C1.95997 32.5801 3.40236 33.2083 3.42968 34.8879C3.42148 35.2785 3.32587 35.6035 3.1565 35.893H3.11279C3.00079 35.8848 2.8997 35.893 2.79589 35.923H2.78224C2.20583 34.7623 1.23058 32.1158 0.807148 30.2696C0.681485 29.7288 0.689666 29.2946 0.673275 28.9532L1.02842 30.0976Z" fill="#F8F8F7"/>
</svg>
