<svg width="48" height="39" viewBox="0 0 48 39" fill="none" xmlns="http://www.w3.org/2000/svg">
<path fill-rule="evenodd" clip-rule="evenodd" d="M34.8087 14.104C34.8087 14.104 59.6654 45.8231 40.1412 32.2686C40.1412 32.2686 30.2875 24.1353 25.0452 20.8826C25.0452 20.8826 6.42249 62.2725 17.8141 19.1647C17.8141 19.1647 -21.8681 13.9237 17.6338 12.2058C17.6338 12.2058 6.24492 -3.33689 25.7691 9.49386C25.7691 9.49386 57.7695 -12.6472 34.2678 13.921L34.8114 14.1012L34.8087 14.104Z" fill="#F8F8F7"/>
<path fill-rule="evenodd" clip-rule="evenodd" d="M13.6562 22.0567C13.6562 23.3212 12.3913 24.3153 10.8533 24.3153C9.31532 24.3153 8.14062 23.3212 8.14062 22.0567C8.14062 20.8823 9.31532 19.8882 10.8533 19.8882C12.3913 19.8882 13.6562 20.8823 13.6562 22.0567Z" fill="#F8F8F7"/>
<path fill-rule="evenodd" clip-rule="evenodd" d="M12.4814 32.3585C12.4814 35.0705 10.6729 37.3291 8.50389 37.3291C6.33484 37.3291 4.52637 35.0705 4.52637 32.3585C4.52637 29.6465 6.24469 27.478 8.50389 27.478C10.6729 27.478 12.4814 29.6465 12.4814 32.3585Z" fill="#F8F8F7"/>
</svg>
