<svg width="120" height="27" viewBox="0 0 120 27" fill="none" xmlns="http://www.w3.org/2000/svg">
<path fill-rule="evenodd" clip-rule="evenodd" d="M106.792 2.80011C106.792 3.4747 107.338 4.02091 108.013 4.02091C108.685 4.02091 109.229 3.47196 109.229 2.80011C109.229 2.12826 108.682 1.58476 108.013 1.58203C107.341 1.58203 106.795 2.12553 106.792 2.80011ZM108.999 2.80011C109.002 3.3436 108.565 3.78604 108.021 3.79151C108.019 3.79151 108.016 3.79151 108.013 3.79151C107.469 3.79424 107.024 3.35725 107.021 2.81103C107.021 2.8083 107.021 2.80284 107.021 2.80011C107.021 2.25662 107.461 1.81418 108.005 1.81145C108.005 1.81145 108.01 1.81145 108.013 1.81145C108.557 1.81145 108.999 2.24842 108.999 2.79191C108.999 2.79191 108.999 2.79465 108.999 2.79738V2.80011ZM108.617 3.46104L108.297 2.90663C108.529 2.89024 108.655 2.79192 108.655 2.54885C108.655 2.4123 108.625 2.28121 108.502 2.20747C108.406 2.14738 108.256 2.14737 108.144 2.14737H107.508V3.46104H107.764V2.90663H108.024L108.316 3.46104H108.617ZM108.152 2.70998H107.767V2.33855H108.087C108.215 2.33855 108.404 2.33856 108.404 2.51335C108.404 2.68814 108.303 2.70998 108.155 2.70998H108.152Z" fill="#F8F8F7"/>
<path d="M15.5053 7.99726C15.3715 7.87436 15.2841 7.75966 15.2458 7.65861C14.9699 6.95125 14.6858 6.24936 14.3962 5.54747C14.0793 4.78002 13.492 3.75313 12.7107 3.65754C12.2408 3.60292 12.208 4.20103 12.208 4.52877C12.208 10.8185 12.208 17.1082 12.208 23.398C12.208 23.9852 12.9566 24.4386 13.3418 24.8373C13.3718 24.8673 13.3964 24.8646 13.4182 24.8236L13.451 24.7581C13.4619 24.7335 13.4811 24.7144 13.5057 24.7007C14.1148 24.3621 14.3443 23.9142 14.3443 23.1959C14.3471 18.7169 14.3443 15.4832 14.3389 13.4923C14.3389 12.9324 14.0957 12.5446 13.6177 12.3261C12.9975 12.0448 12.8883 11.4931 13.5603 11.1599C14.9945 10.4471 16.4779 9.84896 18.0104 9.36828C19.1195 9.0187 19.2643 10.234 19.2643 11.007C19.2616 15.1282 19.2588 19.2494 19.2616 23.3707C19.2616 23.9251 19.4828 24.3375 19.9227 24.6079C20.4745 24.9438 20.2232 25.5419 19.7752 25.7904C19.6577 25.856 19.4829 25.8888 19.2507 25.8888C17.7946 25.8942 16.3385 25.8942 14.8798 25.8888C14.1449 25.8888 13.7078 25.9734 13.4073 25.3344C13.3937 25.3043 13.3773 25.3016 13.3554 25.3262C12.9839 25.6976 12.5249 25.886 11.9813 25.8888C9.40796 25.9051 7.65686 25.9024 6.72804 25.886C6.15709 25.8751 4.78847 25.3507 5.74733 24.5614C6.12979 24.2474 6.60784 23.9196 6.60511 23.3161C6.59691 17.2639 6.60511 11.2118 6.62423 5.15965C6.62423 4.82646 6.64882 4.14914 6.47125 3.79136C6.45486 3.75586 6.42208 3.72854 6.38383 3.71489C5.03159 3.27245 3.99624 6.56891 3.62745 7.53299C3.37612 8.19392 2.75327 8.54076 2.05939 8.43152C1.48025 8.34139 0.862857 7.89075 0.980325 7.21617C1.2699 5.55019 1.56767 3.88696 1.87363 2.22371C1.9829 1.63106 2.26973 0.328321 2.90078 0.0907149C3.29689 -0.0594962 3.88151 0.415708 4.15742 0.661507C4.18747 0.686087 4.22025 0.69975 4.26123 0.702481C7.69784 0.817187 11.1372 0.817187 14.5738 0.702481C14.612 0.702481 14.6476 0.686087 14.6749 0.661507C15.0245 0.336505 15.6556 -0.146899 16.049 0.134405C16.5434 0.489449 16.8357 1.62559 16.9477 2.25102C17.2346 3.85691 17.5241 5.46281 17.8137 7.07143C17.9011 7.55484 17.8356 7.85799 17.4422 8.1311C16.762 8.60631 16.1173 8.56534 15.5108 8.00273L15.5053 7.99726Z" fill="#F8F8F7"/>
<path d="M40.7636 24.6956C40.7636 24.5399 40.7199 24.3761 40.7199 24.2368C40.7199 17.7804 40.7144 11.3241 40.7089 4.86776C40.7089 4.57826 40.6734 4.33519 40.6051 4.14128C40.5915 4.10577 40.5669 4.07573 40.5314 4.05935C39.9112 3.77531 39.3731 2.91775 40.2254 2.46165C41.0777 2.00556 44.4105 0.339571 45.0307 0.639993C45.5115 0.872137 45.6071 1.56858 45.6098 2.06837C45.6125 4.652 45.6153 7.23563 45.6153 9.81926C45.6153 9.84931 45.6399 9.87387 45.6726 9.87387C45.6781 9.87387 45.6836 9.87387 45.6863 9.87387C46.1835 9.74005 46.3884 9.36317 46.8009 9.2075C48.9399 8.39909 51.0352 10.8216 51.7591 12.5531C52.2782 13.7958 52.5732 15.0712 52.6415 16.3739C52.7398 18.2529 52.6415 20.0964 52.3492 21.9072C52.2126 22.7565 51.9012 23.7588 51.5296 24.4525C50.8603 25.7061 49.7785 26.1895 48.3416 26.2715C47.4128 26.3234 46.3856 26.2633 45.5552 25.8345C45.1345 25.616 44.8094 25.0425 44.3887 24.671C44.1237 24.4362 43.7003 24.062 43.4408 24.4935C43.0802 25.0971 42.7988 25.4794 42.5966 25.6378C42.2032 25.9437 41.788 26.0175 41.3482 25.8591C41.0805 25.7607 40.9275 25.5423 40.8892 25.1981C40.8838 25.149 40.8674 25.1462 40.8428 25.1872C40.5696 25.6406 40.4603 25.8864 39.8512 25.8864C38.365 25.8864 36.8789 25.8864 35.3928 25.8809C34.8246 25.8809 34.1854 25.3483 34.546 24.7448C34.5651 24.712 34.5924 24.6874 34.6252 24.671C35.1634 24.3952 35.4338 23.9855 35.4338 23.4393C35.4338 20.7082 35.1579 17.7613 34.6088 14.5987C34.5405 14.2163 34.3739 13.752 34.1034 13.2058C33.8248 12.6432 33.1282 12.9846 32.8796 13.3533C32.8577 13.3861 32.8468 13.4216 32.8468 13.4571C32.8468 16.7508 32.8468 20.0445 32.8468 23.3383C32.8468 23.9609 33.0872 24.3515 33.609 24.6383C33.6226 24.6437 33.6336 24.6546 33.6418 24.6656C33.975 25.0834 33.8139 25.4958 33.4041 25.7498C33.2648 25.8372 33.0544 25.8809 32.7703 25.8809C31.4126 25.8809 30.0576 25.8809 28.6999 25.8836C28.3257 25.8836 28.0689 25.8481 27.9268 25.7799C27.5498 25.5969 27.1728 24.9141 27.7247 24.6137C28.2055 24.3515 28.4459 23.9637 28.4431 23.4502C28.4431 20.3368 28.4431 17.226 28.4431 14.1153C28.4431 13.8121 28.3967 13.4107 28.2437 13.143C27.8039 12.3619 26.9461 12.6241 26.5281 13.2468C26.3205 13.5554 26.2167 13.9105 26.2167 14.3174C26.2167 17.297 26.2194 20.2739 26.2249 23.2536C26.2249 23.9391 26.3915 24.1931 26.9051 24.5645C27.416 24.9332 27.2411 25.4986 26.7767 25.7717C26.6483 25.8481 26.4626 25.8864 26.214 25.8864C24.6596 25.8864 23.1079 25.8864 21.5562 25.8864C21.2175 25.8864 20.9798 25.8591 20.846 25.8017C20.4143 25.6187 20.0838 25.0015 20.5892 24.641C21.0372 24.3214 21.3268 23.991 21.3268 23.4202C21.3322 20.2139 21.3322 17.0075 21.3268 13.7985C21.3268 13.2523 21.2967 12.7224 20.8023 12.4411C20.4335 12.2336 19.6057 11.6409 20.3843 11.2422C21.7393 10.5457 23.474 9.80015 25.0284 9.36044C26.0992 9.05729 26.2522 10.188 26.2386 10.9172C26.2386 10.9609 26.2577 10.9772 26.3014 10.9663C26.7959 10.8407 27.0472 10.4638 27.3613 10.1251C27.8367 9.61716 28.2246 9.43144 28.9103 9.33312C30.451 9.1119 31.5656 9.66358 32.254 10.9882C32.2895 11.0537 32.3715 11.081 32.4398 11.0455C32.773 10.8789 33.0708 10.6577 33.3358 10.3819C33.609 10.0978 33.8057 9.92031 33.9204 9.8493C35.3409 8.96715 36.9527 9.71547 37.734 11.0346C39.0644 13.2823 39.4933 16.3466 39.6736 18.7336C39.7911 20.2794 39.8484 21.8279 39.8457 23.3765C39.8457 24.0237 40.1708 24.4334 40.7253 24.7093C40.7527 24.7229 40.7663 24.7147 40.7663 24.6847L40.7636 24.6956ZM45.8502 14.2191C45.4514 16.3603 45.476 18.5042 45.9212 20.6508C46.0332 21.1889 46.4976 22.65 47.3937 22.0219C47.8799 21.6832 48.1777 20.8311 48.3116 20.2603C48.7541 18.3594 48.8033 16.4477 48.4591 14.5277C48.3198 13.7493 48.1067 12.381 47.5412 11.8485C46.4512 10.8243 45.9513 13.6783 45.8529 14.2191H45.8502Z" fill="#F8F8F7"/>
<path d="M74.5915 13.5388C74.3866 14.0468 73.914 15.112 73.2856 15.0191C72.4688 14.9017 72.2749 14.2517 71.9716 13.6071C71.8542 13.3559 71.5537 13.3395 71.3078 13.4214C70.084 13.8256 69.3355 15.6254 68.9885 16.7533C68.9038 17.0265 68.8629 17.3324 68.8629 17.6683C68.8629 19.5391 68.8547 21.4099 68.8437 23.2807C68.8437 23.6794 68.9394 23.9962 69.1333 24.2311C69.3409 24.4797 69.972 24.6845 69.8381 25.187C69.6687 25.8206 69.2644 25.8889 68.6388 25.8862C67.1118 25.8862 65.5847 25.8862 64.0603 25.8862C63.7407 25.8862 63.5058 25.8398 63.3555 25.7469C63.0769 25.5721 62.8256 25.0505 63.0851 24.75C63.1206 24.7118 63.2025 24.649 63.3364 24.5616C63.7598 24.2912 63.9729 23.9034 63.9729 23.3981C63.9757 20.3256 63.9729 17.2531 63.9702 14.1806C63.9702 13.3367 64.0303 12.7796 63.3446 12.3672C63.0523 12.1924 62.8884 12.0832 62.8556 12.0422C62.2901 11.3348 63.6424 10.947 64.1204 10.7258C65.2241 10.2151 66.3578 9.76991 67.5133 9.39302C67.833 9.28924 68.1908 9.21276 68.4585 9.48314C68.9994 10.0294 68.8984 11.1491 68.8847 11.8619C68.8847 11.9056 68.9038 11.9193 68.9448 11.9084C69.9392 11.6052 70.1441 10.551 70.9308 9.97747C71.5045 9.55961 72.2038 9.36844 73.0316 9.40667C73.6845 9.43672 74.2035 9.64427 74.5915 10.0321C74.6188 10.0594 74.6324 10.0539 74.6324 10.013C74.6406 8.45624 74.5887 6.88312 74.6406 5.33458C74.6543 4.88122 74.5423 4.40601 74.1052 4.18479C73.4414 3.84887 73.0097 3.30538 73.9358 2.85201C75.258 2.20474 76.6185 1.65305 78.0144 1.19149C78.6154 0.992122 79.1372 0.891066 79.3858 1.57931C79.5169 1.94527 79.5825 2.34129 79.5797 2.76188C79.5661 8.92872 79.5497 15.0956 79.5306 21.2597C79.5306 21.9343 79.536 22.6089 79.5497 23.2862C79.5661 24.0263 79.7682 24.2858 80.3446 24.679C80.5413 24.8129 80.5932 25.0231 80.5031 25.3044C80.3419 25.8097 79.8611 25.8971 79.3448 25.8944C77.8013 25.8944 76.2606 25.8944 74.7171 25.8916C74.4166 25.8916 74.1953 25.8479 74.0478 25.7578C73.69 25.5421 73.4468 25.0013 73.8593 24.6736C74.3319 24.2994 74.627 24.0782 74.627 23.3981C74.6379 20.1153 74.6379 16.8326 74.6324 13.547C74.6324 13.4678 74.6188 13.4651 74.5887 13.5388H74.5915Z" fill="#F8F8F7"/>
<path d="M113.148 10.7447C113.17 8.27034 113.17 6.54975 113.148 5.58294C113.143 5.38903 113.085 5.20331 112.971 5.02851C112.711 4.62704 111.501 4.30751 112.034 3.67116C112.168 3.51003 112.378 3.41716 112.665 3.39258C113.094 3.35435 113.487 3.30246 113.889 3.10855C115.276 2.44763 116.219 1.98607 116.713 1.72388C117.227 1.45623 117.639 1.5682 117.891 2.09804C118.008 2.34384 118.066 2.55413 118.066 2.72893C118.066 9.51846 118.066 16.308 118.066 23.0948C118.066 23.8049 118.169 24.2583 118.768 24.6188C119.287 24.9328 119.03 25.5501 118.631 25.7686C118.484 25.8505 118.243 25.8915 117.915 25.8915C114.842 25.8833 111.771 25.886 108.698 25.8997C107.977 25.9024 107.644 25.7412 107.346 25.1049C105.865 21.9259 105.584 18.6158 106.496 15.1746C107.01 13.241 108.064 11.2746 109.775 10.2094C110.799 9.57036 112.233 10.0428 113.083 10.7666C113.118 10.7966 113.137 10.7884 113.137 10.742L113.148 10.7447ZM113.296 16.4009C113.197 15.5597 112.632 12.9078 111.591 12.7302C111.553 12.7248 111.517 12.7303 111.485 12.7548C111.056 13.0607 110.829 13.7735 110.701 14.2597C110.135 16.4282 110.059 18.6158 110.471 20.8198C110.6 21.508 111.173 23.1167 112.047 23.2041C112.083 23.2068 112.118 23.1986 112.148 23.1795C113.574 22.2427 113.468 17.8675 113.296 16.3981V16.4009Z" fill="#F8F8F7"/>
<path d="M54.4611 24.0589C52.5871 21.519 52.5406 17.8046 53.1089 14.7786C53.5924 12.1977 54.8326 9.63317 57.6628 9.21531C60.3727 8.81384 62.0719 10.8321 62.9051 13.1344C63.222 14.0057 63.823 16.349 62.6729 16.8324C61.0967 17.496 59.5095 18.1296 57.9114 18.7332C57.1191 19.0336 57.0536 19.6837 57.4032 20.3856C58.0589 21.691 59.0478 22.4612 60.5831 22.2045C61.1731 22.1061 61.2414 21.5708 61.266 21.0765C61.2906 20.5876 61.6512 20.3582 62.1184 20.462C63.0636 20.6669 63.5498 21.265 63.5826 22.2536C63.6345 23.8923 62.8587 25.3534 61.307 25.9434C58.8019 26.8938 56.0428 26.2083 54.4611 24.0616V24.0589ZM58.0889 16.6958C59.8154 15.7672 59.1571 13.5387 58.3457 12.266C58.1354 11.9328 57.7147 11.3975 57.2721 11.4576C55.7915 11.6597 56.275 15.7399 56.428 16.6603C56.4526 16.8051 56.5673 16.917 56.7148 16.9334C57.2148 16.9962 57.6737 16.917 58.0889 16.6931V16.6958Z" fill="#F8F8F7"/>
<path d="M81.5689 17.8406C82.3857 17.0158 83.3254 16.3658 84.4619 16.0435C85.1994 15.8332 86.4151 15.6775 86.4096 14.6479C86.4069 13.8531 86.1419 12.4767 85.3661 12.026C84.9044 11.7611 84.1149 11.8758 83.5795 11.9632C83.5303 11.9714 83.5248 11.9905 83.5603 12.026C84.2652 12.6979 84.4919 13.4981 84.2378 14.4239C83.9264 15.5546 82.372 15.4618 81.4678 15.246C80.7357 15.0712 80.3532 14.6533 80.1893 13.9023C79.5555 11.0346 82.4622 9.83295 84.7378 9.74282C86.8194 9.65816 89.0103 9.63904 90.0156 11.8103C90.4664 12.7853 90.745 13.8641 90.8516 15.0439C91.0865 17.663 91.275 20.2876 91.417 22.915C91.4252 23.0843 91.5099 23.2372 91.6711 23.3711C91.7012 23.3956 91.7366 23.412 91.7776 23.4175C92.4196 23.4967 92.8048 23.8627 92.9332 24.5127C92.9414 24.5536 92.9632 24.5646 93.0015 24.5427C93.5151 24.2368 93.6216 23.8408 93.6216 23.229C93.627 20.0637 93.627 16.8983 93.6216 13.733C93.6216 13.0557 93.5369 12.5941 92.9086 12.3265C92.5671 12.1817 92.3923 11.9332 92.3841 11.5836C92.3841 11.5399 92.4005 11.4989 92.4333 11.4689C92.6054 11.305 92.8676 11.1411 93.22 10.9855C94.758 10.3 96.0502 9.78105 97.0992 9.4342C97.4079 9.33315 97.6319 9.28947 97.7712 9.30858C98.405 9.38779 98.5553 10.3082 98.5361 10.8243C98.5361 10.8598 98.5607 10.8899 98.599 10.8899C98.6153 10.8899 98.6317 10.8844 98.6426 10.8762C99.5387 10.1306 100.003 9.33588 101.364 9.50248C102.21 9.60626 102.822 10.0542 103.355 10.7533C103.795 11.3323 104.117 11.9277 104.325 12.5422C105.478 15.9725 105.715 19.8315 105.693 23.3683C105.691 23.8736 105.849 24.2041 106.223 24.499C106.65 24.8349 106.904 25.078 106.467 25.5696C106.253 25.8099 106.098 25.8946 105.759 25.8946C104.237 25.8946 102.713 25.8973 101.191 25.9001C100.702 25.9001 100.405 25.6406 100.301 25.119C100.222 24.7202 100.896 24.4772 101.088 24.1631C101.325 23.7616 101.295 23.4393 101.284 22.986C101.224 20.7847 101.044 18.5479 100.746 16.2702C100.623 15.3361 100.429 14.4512 100.164 13.6128C100.126 13.4926 100.044 13.3397 99.9211 13.154C99.5742 12.6405 98.9158 13.1048 98.6864 13.4599C98.5907 13.6073 98.5443 13.8122 98.5443 14.0771C98.5443 17.1878 98.547 20.2986 98.5525 23.4066C98.5525 23.879 98.7792 24.2723 99.23 24.5946C99.9648 25.1162 99.2601 25.8946 98.5962 25.8973C96.908 25.9028 95.2224 25.9028 93.5342 25.8973C93.261 25.8973 93.0971 25.8127 92.8977 25.6488C92.8676 25.6242 92.8376 25.6242 92.8048 25.6406C92.5261 25.8045 92.2092 25.8891 91.8568 25.8919C90.7805 25.9028 89.7069 25.9028 88.6306 25.8946C88.5924 25.8946 88.5568 25.8782 88.5295 25.8536C88.3602 25.687 88.1471 25.3975 87.8466 25.3757C87.8111 25.3757 87.7728 25.3812 87.7428 25.4003C87.2128 25.7171 86.762 25.8919 86.1118 25.8946C84.7651 25.9001 83.4183 25.9001 82.0715 25.8973C81.8475 25.8973 81.6617 25.8509 81.5142 25.7635C80.7848 25.332 80.2795 24.2942 80.0937 23.4994C79.6375 21.5357 80.1183 19.3208 81.5798 17.846L81.5689 17.8406ZM86.5626 17.6385C84.2679 17.8051 84.104 20.7628 84.4427 22.4916C84.5137 22.8576 84.6258 23.1417 84.7733 23.341C85.1011 23.7835 85.8196 23.9091 86.2785 23.6251C86.5162 23.4776 86.6364 23.2454 86.6418 22.9286C86.6664 21.2217 86.6719 19.4874 86.6555 17.7258C86.6555 17.663 86.6254 17.6357 86.5626 17.6385Z" fill="#F8F8F7"/>
</svg>
