<svg width="133" height="21" viewBox="0 0 133 21" fill="none" xmlns="http://www.w3.org/2000/svg">
<path d="M0.899414 19.5954C1.03653 19.0657 1.02732 18.5243 1.04591 17.9853C1.23184 12.1558 1.09003 6.32396 1.12489 0.492141C1.12489 0.143625 1.18994 0.00887527 1.56644 0.0367565C2.06146 0.071608 2.56349 0.0669611 3.06083 0.0367565C3.38619 0.018169 3.44432 0.138981 3.442 0.43638C3.43038 2.97357 3.43497 5.51076 3.43497 8.04795C3.43497 8.1223 3.43497 8.19666 3.43497 8.35001C3.54419 8.20828 3.6209 8.12231 3.68133 8.02705C5.7776 4.68828 10.6627 5.01355 12.3662 8.51497C13.8629 11.5865 13.8397 14.7185 12.099 17.7134C10.3885 20.6549 6.62586 20.562 4.89214 19.2469C4.39479 18.8705 4.03693 18.3849 3.70924 17.8691C3.63255 17.7483 3.55348 17.6275 3.42101 17.423C3.37453 17.9737 3.33507 18.4291 3.29788 18.8821C3.29091 18.982 3.2909 19.082 3.28393 19.1795C3.25914 19.5482 3.06164 19.7325 2.69134 19.7325C2.09407 19.7325 1.49669 19.7371 0.899414 19.7418V19.5931V19.5954ZM3.4327 13.0433C3.40946 13.7287 3.50465 14.5164 3.74635 15.2808C4.06474 16.2845 4.54349 17.1883 5.48937 17.7483C7.27887 18.8055 9.65643 17.9597 10.4489 15.9198C11.2321 13.9007 11.1832 11.8235 10.4814 9.79751C10.0142 8.44991 8.95688 7.69247 7.52993 7.58327C5.9798 7.46245 4.83868 8.17111 4.13683 9.53961C3.593 10.5991 3.41875 11.7492 3.4327 13.0457V13.0433Z" fill="#F8F8F7"/>
<path d="M79.9557 8.35199C80.9248 6.72327 82.2471 5.71953 84.1947 5.71953C86.1538 5.71953 87.518 6.60477 88.2083 8.52858C88.4546 8.18006 88.6498 7.87103 88.8776 7.58758C89.9861 6.20513 91.3922 5.50577 93.191 5.77529C94.9619 6.03783 96.168 7.28087 96.412 9.05597C96.5096 9.77159 96.5585 10.4895 96.5585 11.2098C96.5585 13.9212 96.5538 16.635 96.5655 19.3465C96.5655 19.6439 96.5051 19.7647 96.182 19.7438C95.7102 19.7159 95.2362 19.7391 94.7621 19.7368C94.1857 19.7322 94.2601 19.8112 94.2578 19.2512C94.2531 16.5142 94.2578 13.7772 94.2438 11.0402C94.2438 10.608 94.2066 10.1689 94.1299 9.74373C93.8673 8.26138 92.6891 7.51787 91.2365 7.93842C89.7445 8.37057 88.9264 9.4649 88.4988 10.8868C88.3035 11.5304 88.2571 12.2042 88.2571 12.878C88.2571 15.0435 88.2525 17.2066 88.2641 19.372C88.2641 19.6601 88.1989 19.7624 87.8945 19.7461C87.3716 19.7205 86.8464 19.7229 86.3235 19.7461C86.0353 19.7577 85.9447 19.6834 85.947 19.379C85.9609 16.8279 85.954 14.2791 85.9563 11.7279C85.9563 11.1424 85.9168 10.5616 85.8796 9.9784C85.7657 8.12662 84.0692 7.49463 82.7421 8.01275C81.2478 8.59594 80.4367 9.75997 80.1114 11.2911C79.9952 11.8394 79.9533 12.3971 79.9533 12.9594C79.9533 15.0992 79.9487 17.2391 79.9626 19.379C79.9626 19.6787 79.879 19.76 79.5885 19.7461C79.054 19.7229 78.5171 19.7252 77.9803 19.7461C77.7153 19.7554 77.6456 19.6718 77.6479 19.4115C77.6595 17.906 77.6525 16.4004 77.6525 14.8948C77.6525 12.0834 77.6595 9.27207 77.6455 6.46072C77.6455 6.1424 77.7316 6.0634 78.0384 6.07967C78.5613 6.10523 79.0865 6.1029 79.6094 6.07967C79.8789 6.06805 79.9766 6.12845 79.965 6.42121C79.9394 7.0648 79.958 7.71073 79.958 8.35432L79.9557 8.35199Z" fill="#F8F8F7"/>
<path d="M61.8638 8.28024C62.5424 7.36481 63.3116 6.59809 64.3481 6.11249C66.219 5.23655 68.787 5.80115 69.9374 7.36017C70.5765 8.22449 70.7322 9.2375 70.7439 10.2575C70.7787 13.3291 70.7601 16.403 70.7694 19.4746C70.7694 19.6976 70.6928 19.7418 70.4906 19.7371C69.9677 19.7255 69.4424 19.7092 68.9195 19.7417C68.5662 19.7626 68.4594 19.6721 68.4617 19.3003C68.4803 16.7259 68.4733 14.1492 68.4686 11.5749C68.4686 10.9661 68.443 10.3597 68.3106 9.76027C68.0758 8.69381 67.2392 7.97588 66.1493 7.85739C64.1483 7.63899 62.5214 9.17708 62.0891 10.8895C61.9404 11.4819 61.8638 12.086 61.8638 12.6971C61.8614 14.9229 61.8567 17.1511 61.8707 19.377C61.8707 19.6767 61.787 19.7534 61.4988 19.7394C60.9759 19.7162 60.4507 19.7116 59.9301 19.7394C59.6187 19.7557 59.5258 19.6419 59.5699 19.3607C59.5746 19.3375 59.5699 19.3119 59.5699 19.2864C59.5699 13.0177 59.5722 6.74679 59.5606 0.478159C59.5606 0.11338 59.6559 0.0111412 60.0161 0.0343755C60.5135 0.0669036 61.0132 0.0645802 61.5105 0.0343755C61.8219 0.015788 61.8707 0.131959 61.8707 0.410771C61.8614 2.91079 61.8638 5.41081 61.8638 7.91315V8.28024Z" fill="#F8F8F7"/>
<path d="M111.3 17.9203C110.782 18.4106 110.296 18.8706 109.741 19.247C108.172 20.3065 105.671 20.5412 104.1 19.0472C103.066 18.0644 102.873 16.8399 103.113 15.5179C103.352 14.1982 104.251 13.4152 105.409 12.8715C106.906 12.1675 108.504 11.7981 110.113 11.4635C110.501 11.3822 111.017 11.4217 111.242 11.1847C111.474 10.9431 111.296 10.4273 111.309 10.0323C111.316 9.83247 111.321 9.63263 111.309 9.43514C111.261 8.71255 110.963 8.1317 110.268 7.8436C108.951 7.29759 107.656 7.26738 106.443 8.12705C105.983 8.45233 105.73 8.92166 105.716 9.4909C105.711 9.69072 105.651 9.74185 105.458 9.73953C104.798 9.72791 104.135 9.72559 103.475 9.73953C103.24 9.74417 103.21 9.64659 103.222 9.45375C103.285 8.51276 103.768 7.78785 104.419 7.16285C105.216 6.39611 106.211 6.0197 107.284 5.83847C108.725 5.59219 110.131 5.70139 111.498 6.25205C112.797 6.77482 113.475 7.72278 113.552 9.12381C113.68 11.4101 113.58 13.6987 113.613 15.9849C113.627 17.0281 113.633 18.0714 113.915 19.089C114.091 19.7349 114.08 19.7373 113.394 19.7373C112.934 19.7373 112.471 19.7187 112.011 19.7442C111.742 19.7582 111.658 19.6513 111.586 19.412C111.447 18.938 111.382 18.4524 111.298 17.9227L111.3 17.9203ZM111.295 12.8831C109.906 13.2293 108.535 13.5778 107.238 14.1541C106.803 14.3469 106.415 14.6118 106.09 14.9649C105.016 16.1359 105.481 17.8297 107.001 18.2781C108.149 18.6174 109.613 18.0295 110.475 16.9189C111.416 15.7084 111.354 14.3097 111.295 12.8808V12.8831Z" fill="#F8F8F7"/>
<path d="M123.125 8.36122C123.432 7.97553 123.678 7.64097 123.952 7.32963C125.407 5.68 127.943 5.21994 129.89 6.23993C131.187 6.92069 131.789 8.0406 131.947 9.4486C132.003 9.95511 132.026 10.4639 132.026 10.9728C132.024 13.7702 132.021 16.5699 132.031 19.3673C132.031 19.6461 131.98 19.7577 131.671 19.7414C131.148 19.7135 130.622 19.7135 130.102 19.7414C129.807 19.7577 129.758 19.6508 129.76 19.3836C129.769 16.9579 129.779 14.5346 129.76 12.1089C129.753 11.3306 129.76 10.5429 129.584 9.77389C129.335 8.6842 128.514 7.96859 127.39 7.86171C125.642 7.69442 123.95 8.89098 123.423 10.6638C123.209 11.384 123.13 12.1229 123.127 12.871C123.12 15.0341 123.118 17.1996 123.134 19.3627C123.137 19.6833 123.044 19.7577 122.739 19.7414C122.242 19.7158 121.74 19.7065 121.245 19.7414C120.878 19.767 120.824 19.6253 120.824 19.3023C120.834 15.3594 120.831 11.4189 120.831 7.47601C120.831 7.11588 120.843 6.75341 120.827 6.39328C120.817 6.16326 120.864 6.06335 121.129 6.07265C121.7 6.09356 122.274 6.09356 122.848 6.07265C123.09 6.06335 123.137 6.147 123.13 6.36773C123.116 7.009 123.125 7.64793 123.125 8.3589V8.36122Z" fill="#F8F8F7"/>
<path d="M41.8 13.0594C41.793 11.4493 41.9928 10.0367 42.6877 8.72856C43.615 6.98134 45.0814 6.0171 47.036 5.78476C48.4815 5.61283 49.9015 5.69415 51.2123 6.39815C52.2325 6.94648 53.0297 7.70159 53.2877 8.89352C53.2993 8.94231 53.3109 8.9911 53.3179 9.03989C53.3705 9.40855 53.2109 9.59287 52.8391 9.59287C52.3023 9.59287 51.7677 9.59287 51.2309 9.59287C51.1217 9.59287 51.0194 9.61609 51.0124 9.43254C50.9776 8.50317 50.378 8.01989 49.5692 7.80614C47.0918 7.1486 44.9351 8.36842 44.4145 10.8057C44.0798 12.3717 44.0613 13.9447 44.554 15.4804C45.1675 17.3973 46.9175 18.4475 48.9162 18.1524C49.5158 18.0641 50.0874 17.9177 50.5266 17.46C50.8032 17.1719 50.9985 16.8443 51.0078 16.4424C51.0124 16.2542 51.0798 16.217 51.2471 16.2193C51.8583 16.2263 52.4695 16.2333 53.0784 16.2193C53.3085 16.2123 53.3457 16.3053 53.3341 16.5004C53.3039 17.079 53.0692 17.5808 52.7508 18.0479C52.1535 18.9261 51.3238 19.5023 50.3175 19.7997C48.7999 20.2481 47.2661 20.2505 45.7601 19.7486C43.7638 19.0841 42.6621 17.5994 42.116 15.6408C41.8673 14.7486 41.7767 13.8354 41.7953 13.0641L41.8 13.0594Z" fill="#F8F8F7"/>
<path d="M31.561 8.2899C32.2257 7.27921 33.0508 6.50317 34.1594 6.04545C34.9751 5.70856 35.8186 5.63886 36.6855 5.79221C36.9713 5.84332 37.1039 5.95019 37.0876 6.2778C37.0551 6.93301 37.0783 7.59054 37.0783 8.2806C36.6205 8.14816 36.2044 7.99947 35.7605 7.93673C34.1384 7.71136 32.1863 8.95904 31.7865 10.8387C31.6448 11.5102 31.5565 12.1816 31.5588 12.8694C31.5588 15.0209 31.5495 17.1724 31.5681 19.3239C31.5704 19.6817 31.4611 19.7607 31.1311 19.7444C30.6337 19.7189 30.1341 19.7165 29.6368 19.7444C29.3161 19.763 29.251 19.6538 29.251 19.3494C29.2603 15.2207 29.2579 11.0919 29.2579 6.9632C29.2579 6.74015 29.2672 6.5148 29.2556 6.29175C29.2463 6.12679 29.3114 6.07799 29.4718 6.08031C30.0946 6.08728 30.7174 6.09193 31.3402 6.08031C31.5726 6.07566 31.5634 6.20112 31.5634 6.36144C31.5588 7.00503 31.5634 7.64863 31.5634 8.29223L31.561 8.2899Z" fill="#F8F8F7"/>
<path d="M19.8979 12.9151C19.8979 10.752 19.9026 8.58883 19.8909 6.42571C19.8909 6.15387 19.9444 6.06093 20.2326 6.07487C20.7555 6.10043 21.2808 6.10275 21.8013 6.07487C22.1058 6.0586 22.1638 6.16315 22.1615 6.44429C22.1522 9.88762 22.1546 13.3333 22.1546 16.7766C22.1546 17.6595 22.1475 18.5424 22.1591 19.4253C22.1615 19.6623 22.1081 19.7506 21.8524 19.7413C21.3039 19.7204 20.7555 19.7181 20.2094 19.7413C19.9328 19.7529 19.8887 19.653 19.8887 19.4044C19.898 17.2413 19.8932 15.0782 19.8932 12.9151H19.8979Z" fill="#F8F8F7"/>
<path d="M19.8981 1.91151C19.8981 1.61411 19.9074 1.31672 19.8958 1.01932C19.8888 0.83577 19.9307 0.756777 20.1375 0.761424C20.7325 0.775364 21.3297 0.770717 21.9247 0.761424C22.099 0.7591 22.164 0.807888 22.1617 0.989116C22.1524 1.60947 22.1501 2.22751 22.1617 2.84786C22.1664 3.0593 22.078 3.09183 21.8968 3.08718C21.3134 3.07789 20.7301 3.07557 20.1468 3.08718C19.9516 3.09183 19.8841 3.03375 19.8934 2.83626C19.9074 2.52725 19.8981 2.21591 19.8981 1.90689V1.91151Z" fill="#F8F8F7"/>
</svg>
