<svg width="134" height="25" viewBox="0 0 134 25" fill="none" xmlns="http://www.w3.org/2000/svg">
<path d="M51.9647 17.3662C51.9947 14.9437 51.7325 8.08594 43.5945 8.08594C35.4564 8.08594 34.3664 14.6351 34.3691 16.6316C34.3691 18.628 35.2215 24.6501 43.212 24.6501C50.0579 24.6501 51.6424 18.8629 51.6424 18.8629H47.236C47.236 18.8629 46.6486 21.3591 44.1244 21.3591C41.8625 21.3591 41.0101 19.7887 41.0375 17.3662H51.9647ZM40.9501 14.6351L41.0375 13.5782C41.0375 13.5782 41.45 11.3469 43.5371 11.3469C45.6242 11.3469 45.8564 13.5782 45.8564 13.5782L45.8864 14.6351H40.9528H40.9501Z" fill="#F8F8F7"/>
<path d="M31.4878 19.7888C31.4905 18.3631 31.4906 13.5182 31.4906 13.0047C31.4906 12.169 31.7255 8.11328 26.2455 8.11328C21.6752 8.11328 20.7081 10.4047 20.2519 10.8881C19.8066 10.5959 19.2384 8.2007 14.7446 8.2007C10.9993 8.2007 9.39843 10.5795 9.39843 10.5795V8.71415H0.0529301L0.0419922 11.803L1.58547 11.8167C1.58547 11.8167 2.93773 11.9396 2.93773 12.9992V19.7533C2.93773 21.2963 1.35054 21.1926 1.35054 21.1926H0.0419922V24.2159L10.9419 24.2596L10.9283 21.2199C10.9283 21.2199 9.37112 21.1926 9.37112 19.7806C9.37112 18.3686 9.36839 13.5673 9.36839 13.5673C9.36839 13.5673 9.67982 11.4097 11.868 11.4097C13.8649 11.4097 13.9961 12.9965 13.9961 12.9965V19.7369C13.9961 21.2062 12.4553 21.1898 12.4553 21.1898L12.4499 24.2132L21.8992 24.2569V21.1871C21.8992 21.1871 20.3557 21.3182 20.353 19.7779C20.3502 18.3686 20.3557 13.9333 20.3557 13.9333C20.3557 13.9333 20.4295 11.407 22.9427 11.3933C25.1855 11.3797 25.1473 13.1249 25.1473 13.1249C25.1473 13.1249 25.1254 18.7073 25.1282 19.7779C25.1309 21.056 23.4563 21.1571 23.4563 21.1571V24.2105H34.247V21.1871H32.6789C32.1626 21.1871 31.4905 20.9959 31.4851 19.7779L31.4878 19.7888Z" fill="#F8F8F7"/>
<path d="M86.6739 16.3086C86.6739 16.3086 86.693 19.4221 86.6603 19.7881C86.6302 20.154 86.3652 21.1973 85.3955 21.1973C84.1716 21.1973 84.0159 19.941 84.0159 19.3702V11.6357H88.4223V8.63971H84.0159V2.56299H79.8307C79.492 7.14579 76.5553 8.58236 74.501 8.71619V11.7532H77.6426V19.7881C77.6426 23.0299 80.6694 24.502 84.0186 24.4992C87.3678 24.4992 89.8647 22.7677 89.8647 19.7881C89.8647 16.4561 89.8593 16.3086 89.8593 16.3086H86.6739Z" fill="#F8F8F7"/>
<path d="M72.9253 19.8045C72.9199 18.3952 72.9253 12.608 72.9253 11.786C72.9253 11.0813 72.8952 8.14538 67.1939 8.15631C63.0853 8.14265 61.8478 10.5351 61.8478 10.5351V8.66976H52.5023L52.4914 11.7614L54.0349 11.775C54.0349 11.775 55.3871 11.9006 55.3871 12.9576V19.7116C55.3871 21.2547 53.8 21.1509 53.8 21.1509H52.4914L52.4805 24.2207H63.5279V21.1974C63.5279 21.1974 61.5009 21.2137 61.5009 19.8045V13.7851C61.5883 13.2252 62.1757 11.3763 64.3174 11.3736C66.5247 11.3736 66.6394 13.1215 66.6394 13.1215V19.8045C66.6394 21.2738 64.9047 21.1536 64.9047 21.1536V24.2234H75.8948V21.2001C75.8948 21.2001 72.9308 21.3476 72.9281 19.8072L72.9253 19.8045Z" fill="#F8F8F7"/>
<path d="M100.443 7.7876C92.0403 7.7876 90.718 13.2525 90.688 15.8662C90.6607 18.4799 91.7753 24.2207 100.443 24.2207C109.111 24.2207 110.138 18.275 110.138 15.8662C110.138 13.4574 108.846 7.79033 100.443 7.7876ZM100.443 21.1973C97.5613 21.1973 97.5913 18.245 97.5612 16.3059C97.5339 14.3668 97.3564 10.7508 100.443 10.7536C103.528 10.7536 103.26 14.9841 103.262 16.3059C103.262 17.6278 103.325 21.1973 100.443 21.1973Z" fill="#F8F8F7"/>
<path fill-rule="evenodd" clip-rule="evenodd" d="M119.212 7.5859C122.621 7.5859 124.645 8.7903 124.645 8.7903L124.94 8.04198L127.907 8.02287V13.4578H124.88C124.88 13.4578 124.205 10.642 120.061 10.642C120.061 10.642 117.772 10.642 117.772 11.6989C117.772 13.8128 128.612 12.8733 128.612 18.6305C128.612 22.0362 125.555 24.2238 121.149 24.2238C116.742 24.2238 114.98 22.4622 114.98 22.4622L114.453 23.8141L111.399 23.7978V17.9532H114.453C116.742 22.1564 122.356 21.5091 122.356 20.0398C122.356 17.8357 111.161 18.7179 111.161 13.0044C111.161 8.9214 115.805 7.5859 119.212 7.5859ZM128.757 3.31444C128.757 1.89973 129.904 0.856445 131.262 0.856445C132.619 0.856445 133.753 1.89973 133.753 3.31444C133.753 4.72916 132.606 5.78608 131.262 5.78608C129.918 5.78608 128.757 4.74281 128.757 3.31444ZM131.262 5.37371C132.376 5.37371 133.259 4.49974 133.259 3.31171C133.259 2.12368 132.379 1.26338 131.262 1.26338C130.144 1.26338 129.254 2.14279 129.254 3.31171C129.254 4.48062 130.133 5.37371 131.262 5.37371ZM130.74 4.74281H130.308V1.89971H131.393C132.065 1.89971 132.398 2.14827 132.398 2.70815C132.398 3.21613 132.079 3.43735 131.661 3.48924L132.469 4.74007H131.986L131.237 3.50834H130.743V4.74281H130.74ZM131.256 3.14512C131.622 3.14512 131.947 3.12052 131.947 2.68354C131.947 2.33123 131.628 2.26571 131.33 2.26571H130.743V3.14512H131.256Z" fill="#F8F8F7"/>
</svg>
